<svg width="142" height="142" viewBox="0 0 142 142" fill="none" xmlns="http://www.w3.org/2000/svg">
<g filter="url(#filter0_d_661_1035)">
<path d="M101.386 31.5C106.19 31.5 110.084 35.3943 110.084 40.1982V101.386C110.084 106.19 106.19 110.084 101.386 110.084H40.1982C35.3943 110.084 31.5 106.19 31.5 101.386V40.1982C31.5001 35.3944 35.3944 31.5001 40.1982 31.5H101.386Z" fill="#6524EB" stroke="white" stroke-width="3"/>
<path d="M79.4014 47.8342C79.7065 47.8342 79.999 47.9563 80.2148 48.1721C80.4306 48.3879 80.5527 48.6804 80.5527 48.9856V50.7561H82.9023C85.0814 50.7686 87.1665 51.6457 88.7002 53.1936C90.2337 54.7414 91.0905 56.8341 91.083 59.0129V73.4944C92.7587 75.5786 93.6737 78.1726 93.6748 80.8479C93.6711 84.0574 92.3945 87.1351 90.125 89.4045C87.8556 91.6738 84.7786 92.9487 81.5693 92.9524L81.5703 92.9534C79.1459 92.9769 76.7738 92.2527 74.7754 90.8811H56.1064C53.9175 90.8786 51.8183 90.0081 50.2705 88.4602C48.7229 86.9124 47.8521 84.814 47.8496 82.6252V59.0129C47.852 56.8241 48.7227 54.7248 50.2705 53.177C51.8183 51.6292 53.9176 50.7585 56.1064 50.7561H58.3818V48.9856C58.3818 48.6805 58.5031 48.3879 58.7188 48.1721C58.9345 47.9564 59.2271 47.8343 59.5322 47.8342C59.8374 47.8342 60.1299 47.9563 60.3457 48.1721C60.5615 48.3879 60.6826 48.6804 60.6826 48.9856V50.7561H78.251V48.9856C78.251 48.6805 78.3723 48.3879 78.5879 48.1721C78.8036 47.9564 79.0963 47.8343 79.4014 47.8342ZM81.5684 71.0442C79.4969 71.0472 77.4794 71.706 75.8047 72.925C74.13 74.1442 72.8835 75.8619 72.2441 77.8323C71.6049 79.8026 71.6053 81.9246 72.2451 83.8948C72.885 85.8649 74.1316 87.5824 75.8066 88.801L75.8076 88.802C77.4742 90.0299 79.4965 90.6798 81.5664 90.6526H81.5684C84.1677 90.6497 86.6599 89.6155 88.498 87.7776C90.3362 85.9396 91.37 83.4473 91.373 80.8479C91.3697 78.5662 90.5474 76.3616 89.0557 74.635L89.0508 74.6292C88.2789 73.6497 87.3194 72.834 86.2285 72.2297C85.1373 71.6254 83.9363 71.2444 82.6963 71.1096H82.6953C82.3212 71.0667 81.9449 71.0446 81.5684 71.0442ZM56.1064 53.0579C54.5277 53.0597 53.0138 53.6876 51.8975 54.804C50.7811 55.9203 50.1532 57.4341 50.1514 59.0129V82.6243C50.1531 84.2031 50.7812 85.7168 51.8975 86.8333C53.0138 87.9497 54.5276 88.5785 56.1064 88.5803H72.2598C72.234 88.5471 72.2084 88.5159 72.1855 88.4875C71.9893 88.2449 71.8004 87.9961 71.623 87.7385C71.5382 87.6151 71.4575 87.4907 71.3779 87.3655C71.2153 87.1097 71.0636 86.8483 70.9209 86.5823C70.8648 86.4777 70.7966 86.3599 70.7393 86.2444C70.5976 85.9612 70.4668 85.6724 70.3477 85.3792L70.2324 85.0842C70.2186 85.0471 70.2066 85.01 70.1963 84.9768L70.167 84.8831C70.0472 84.5446 69.9421 84.2006 69.8525 83.8518C69.8184 83.7189 69.7894 83.5848 69.7607 83.4553C69.6938 83.1516 69.6385 82.845 69.5947 82.5354C69.5773 82.4123 69.5553 82.28 69.541 82.1487V82.1477C69.3476 80.4572 69.5154 78.7444 70.0322 77.1233C70.5492 75.5018 71.4044 74.0083 72.541 72.7415C73.6776 71.4746 75.0698 70.4629 76.626 69.7737C78.182 69.0846 79.8667 68.7338 81.5684 68.7434C81.9839 68.7434 82.3932 68.7704 82.7969 68.8108C82.9191 68.8231 83.0413 68.8407 83.1562 68.8557C83.4508 68.8939 83.7427 68.9427 84.0312 69.0022C84.1479 69.0262 84.2701 69.0507 84.3906 69.0793C84.5681 69.1217 84.7448 69.1674 84.9199 69.217L85.4414 69.3782C85.4535 69.3823 85.4668 69.3859 85.4844 69.3909C85.5006 69.3955 85.521 69.4021 85.542 69.4094H85.543C85.9159 69.541 86.282 69.691 86.6396 69.8596L86.9434 70.012C87.2041 70.1426 87.4591 70.2836 87.709 70.4338C87.8118 70.4956 87.9175 70.5582 88.0215 70.6252L88.4424 70.9104C88.5572 70.9918 88.6703 71.0756 88.7822 71.1614V59.012C88.7899 57.443 88.1749 55.9348 87.0723 54.8186C85.9697 53.7025 84.4692 53.0693 82.9004 53.0579H80.5527V56.9329C80.5527 57.238 80.4306 57.5305 80.2148 57.7463C79.999 57.9621 79.7065 58.0842 79.4014 58.0842C79.0963 58.0842 78.8036 57.9621 78.5879 57.7463C78.3722 57.5306 78.251 57.2379 78.251 56.9329V53.0579H60.6826V56.9329C60.6826 57.238 60.5615 57.5305 60.3457 57.7463C60.1299 57.9621 59.8374 58.0842 59.5322 58.0842C59.2271 58.0842 58.9345 57.9621 58.7188 57.7463C58.5031 57.5306 58.3818 57.2379 58.3818 56.9329V53.0579H56.1064Z" fill="white" stroke="white" stroke-width="0.3"/>
<path d="M81.5713 75.8281C81.8764 75.8282 82.169 75.9503 82.3848 76.166C82.6004 76.3818 82.7217 76.6744 82.7217 76.9795V80.3721L85.0811 82.7314C85.2967 82.9472 85.418 83.2399 85.418 83.5449C85.4179 83.85 85.2967 84.1427 85.0811 84.3584C84.8654 84.5741 84.5726 84.6952 84.2676 84.6953C83.9625 84.6953 83.6699 84.574 83.4541 84.3584L80.7578 81.6621C80.542 81.4464 80.42 81.1538 80.4199 80.8486V76.9795C80.4199 76.6743 80.542 76.3818 80.7578 76.166C80.9736 75.9502 81.2661 75.8281 81.5713 75.8281Z" fill="white" stroke="white" stroke-width="0.3"/>
<path d="M68.3154 65.8496C68.6206 65.8496 68.9131 65.9717 69.1289 66.1875C69.3446 66.4033 69.4658 66.6958 69.4658 67.001C69.4657 67.3061 69.3446 67.5987 69.1289 67.8145C68.9131 68.0301 68.6205 68.1514 68.3154 68.1514H57.8955C57.5905 68.1514 57.2978 68.0301 57.082 67.8145C56.8663 67.5987 56.7442 67.3061 56.7441 67.001C56.7441 66.6958 56.8662 66.4033 57.082 66.1875C57.2978 65.9717 57.5903 65.8496 57.8955 65.8496H68.3154Z" fill="white" stroke="white" stroke-width="0.3"/>
<path d="M61.3389 74.6777C61.6441 74.6777 61.9365 74.7998 62.1523 75.0156C62.3681 75.2314 62.4893 75.524 62.4893 75.8291C62.4892 76.1342 62.3681 76.4268 62.1523 76.6426C61.9366 76.8582 61.6439 76.9795 61.3389 76.9795H57.8955C57.5905 76.9795 57.2978 76.8582 57.082 76.6426C56.8663 76.4268 56.7442 76.1342 56.7441 75.8291C56.7441 75.5239 56.8662 75.2314 57.082 75.0156C57.2978 74.7998 57.5903 74.6777 57.8955 74.6777H61.3389Z" fill="white" stroke="white" stroke-width="0.3"/>
</g>
<defs>
<filter id="filter0_d_661_1035" x="0" y="0" width="141.586" height="141.584" filterUnits="userSpaceOnUse" color-interpolation-filters="sRGB">
<feFlood flood-opacity="0" result="BackgroundImageFix"/>
<feColorMatrix in="SourceAlpha" type="matrix" values="0 0 0 0 0 0 0 0 0 0 0 0 0 0 0 0 0 0 127 0" result="hardAlpha"/>
<feOffset/>
<feGaussianBlur stdDeviation="15"/>
<feComposite in2="hardAlpha" operator="out"/>
<feColorMatrix type="matrix" values="0 0 0 0 0 0 0 0 0 0 0 0 0 0 0 0 0 0 0.1 0"/>
<feBlend mode="normal" in2="BackgroundImageFix" result="effect1_dropShadow_661_1035"/>
<feBlend mode="normal" in="SourceGraphic" in2="effect1_dropShadow_661_1035" result="shape"/>
</filter>
</defs>
</svg>
