<svg width="40" height="40" viewBox="0 0 40 40" fill="none" xmlns="http://www.w3.org/2000/svg">
<path fill-rule="evenodd" clip-rule="evenodd" d="M29.7911 25.5485C27.9867 23.7441 25.06 23.7441 23.2534 25.5485L23.2489 25.5552C22.3112 26.4908 20.7912 26.4908 19.8556 25.5552C18.2445 23.9441 16.1556 21.8552 14.5467 20.2464C13.609 19.3086 13.609 17.7886 14.5467 16.8508L14.5512 16.8464C16.3557 15.042 16.3557 12.1153 14.5512 10.3087C13.7357 9.49313 12.8157 8.57312 11.9579 7.71535C10.9157 6.67313 9.50238 6.08871 8.02905 6.08871C6.55573 6.08871 5.1424 6.67313 4.10018 7.71535C3.50018 8.31535 2.87352 8.94201 2.28019 9.53534C-0.00645765 11.822 -0.642032 15.2842 0.686848 18.2308L0.691324 18.2419C4.7513 26.7885 13.0045 35.0507 21.8645 39.2796L21.8712 39.284C24.8156 40.644 28.2889 40.0285 30.5822 37.744C31.1844 37.1974 31.7978 36.5863 32.3844 35.9996C33.4266 34.9574 34.0111 33.5441 34.0111 32.0708C34.0111 30.5974 33.4266 29.1841 32.3844 28.1419C31.5266 27.2841 30.6067 26.3663 29.7911 25.5485ZM28.22 27.1196L30.8133 29.713C31.4378 30.3396 31.7889 31.1863 31.7889 32.0708C31.7889 32.9552 31.4378 33.8018 30.8133 34.4285L29.0222 36.1618C27.3889 37.7951 24.9111 38.2374 22.8156 37.2707C14.4023 33.253 6.56237 25.4152 2.70906 17.3086C1.76463 15.2064 2.2202 12.7375 3.85129 11.1086L5.67128 9.28645C6.29794 8.66201 7.14462 8.31091 8.02905 8.31091C8.91349 8.31091 9.76016 8.66201 10.3868 9.28645L12.9801 11.8797C13.9179 12.8175 13.9179 14.3375 12.9801 15.2753L12.9735 15.2798C11.169 17.0842 11.169 20.0108 12.9735 21.8175C14.5846 23.4263 16.6734 25.5152 18.2823 27.1263C20.0889 28.9308 23.0156 28.9308 24.82 27.1263L24.8245 27.1196C25.7622 26.1819 27.2822 26.1819 28.22 27.1196ZM21.1112 15.5553C22.9512 15.5553 24.4445 17.0486 24.4445 18.8886C24.4445 19.5019 24.9423 19.9997 25.5556 19.9997C26.1689 19.9997 26.6667 19.5019 26.6667 18.8886C26.6667 15.822 24.1778 13.3331 21.1112 13.3331C20.4978 13.3331 20.0001 13.8309 20.0001 14.4442C20.0001 15.0575 20.4978 15.5553 21.1112 15.5553ZM21.1112 8.88867C26.6311 8.88867 31.1111 13.3686 31.1111 18.8886C31.1111 19.5019 31.6089 19.9997 32.2222 19.9997C32.8355 19.9997 33.3333 19.5019 33.3333 18.8886C33.3333 12.142 27.8578 6.66647 21.1112 6.66647C20.4978 6.66647 20.0001 7.16424 20.0001 7.77757C20.0001 8.3909 20.4978 8.88867 21.1112 8.88867ZM21.1112 2.22205C30.3089 2.22205 37.7777 9.69089 37.7777 18.8886C37.7777 19.5019 38.2755 19.9997 38.8888 19.9997C39.5022 19.9997 39.9999 19.5019 39.9999 18.8886C39.9999 8.46423 31.5355 -0.000152588 21.1112 -0.000152588C20.4978 -0.000152588 20.0001 0.497622 20.0001 1.11095C20.0001 1.72428 20.4978 2.22205 21.1112 2.22205Z" fill="#3DC322"/>
</svg>
