<svg width="142" height="142" viewBox="0 0 142 142" fill="none" xmlns="http://www.w3.org/2000/svg">
<g filter="url(#filter0_d_661_1031)">
<path d="M101.386 31.5C106.19 31.5 110.084 35.3943 110.084 40.1982V101.386C110.084 106.19 106.19 110.084 101.386 110.084H40.1982C35.3943 110.084 31.5 106.19 31.5 101.386V40.1982C31.5001 35.3944 35.3944 31.5001 40.1982 31.5H101.386Z" fill="#6524EB" stroke="white" stroke-width="3"/>
<path fill-rule="evenodd" clip-rule="evenodd" d="M83.1366 77.943C80.9284 75.7348 77.3469 75.7348 75.136 77.943L75.1306 77.9512C73.983 79.096 72.1229 79.096 70.978 77.9512C69.0064 75.9796 66.4501 73.4233 64.4813 71.4544C63.3337 70.3068 63.3337 68.4467 64.4813 67.2991L64.4868 67.2937C66.6949 65.0855 66.6949 61.5041 64.4868 59.2932C63.4887 58.2952 62.3629 57.1693 61.3132 56.1196C60.0378 54.8442 58.3082 54.129 56.5052 54.129C54.7023 54.129 52.9727 54.8442 51.6973 56.1196C50.963 56.8538 50.1962 57.6207 49.4701 58.3468C46.6718 61.1451 45.894 65.3819 47.5202 68.9879L47.5257 69.0015C52.4941 79.4604 62.594 89.5713 73.4364 94.7463L73.4446 94.7518C77.0478 96.4161 81.2982 95.6628 84.1047 92.8672C84.8416 92.1982 85.5922 91.4504 86.3102 90.7325C87.5856 89.4571 88.3008 87.7275 88.3008 85.9245C88.3008 84.1216 87.5856 82.392 86.3102 81.1166C85.2605 80.0669 84.1346 78.9437 83.1366 77.943ZM81.214 79.8656L84.3875 83.0392C85.1517 83.8061 85.5813 84.8422 85.5813 85.9245C85.5813 87.0069 85.1517 88.043 84.3875 88.8098L82.1957 90.931C80.1969 92.9298 77.1647 93.471 74.6003 92.288C64.3045 87.3713 54.7104 77.7798 49.9949 67.8594C48.8391 65.2868 49.3967 62.2655 51.3927 60.2721L53.6199 58.0422C54.3868 57.2781 55.4229 56.8484 56.5052 56.8484C57.5876 56.8484 58.6237 57.2781 59.3906 58.0422L62.5641 61.2158C63.7117 62.3634 63.7117 64.2235 62.5641 65.3711L62.556 65.3765C60.3478 67.5847 60.3478 71.1662 62.556 73.3771C64.5276 75.3459 67.0838 77.9022 69.0526 79.8738C71.2635 82.082 74.8451 82.082 77.0532 79.8738L77.0586 79.8656C78.2062 78.718 80.0664 78.718 81.214 79.8656ZM72.5145 65.7137C74.7662 65.7137 76.5936 67.5412 76.5936 69.7929C76.5936 70.5434 77.2028 71.1526 77.9534 71.1526C78.7039 71.1526 79.3131 70.5434 79.3131 69.7929C79.3131 66.0401 76.2673 62.9943 72.5145 62.9943C71.7639 62.9943 71.1548 63.6035 71.1548 64.354C71.1548 65.1046 71.7639 65.7137 72.5145 65.7137ZM72.5145 57.5554C79.2696 57.5554 84.7519 63.0378 84.7519 69.7929C84.7519 70.5434 85.3611 71.1526 86.1116 71.1526C86.8622 71.1526 87.4714 70.5434 87.4714 69.7929C87.4714 61.5367 80.7707 54.836 72.5145 54.836C71.7639 54.836 71.1548 55.4452 71.1548 56.1957C71.1548 56.9463 71.7639 57.5554 72.5145 57.5554ZM72.5145 49.3972C83.7702 49.3972 92.9102 58.5372 92.9102 69.7929C92.9102 70.5434 93.5194 71.1526 94.2699 71.1526C95.0205 71.1526 95.6296 70.5434 95.6296 69.7929C95.6296 57.036 85.2713 46.6777 72.5145 46.6777C71.7639 46.6777 71.1548 47.2869 71.1548 48.0374C71.1548 48.788 71.7639 49.3972 72.5145 49.3972Z" fill="white"/>
</g>
<defs>
<filter id="filter0_d_661_1031" x="0" y="0" width="141.586" height="141.584" filterUnits="userSpaceOnUse" color-interpolation-filters="sRGB">
<feFlood flood-opacity="0" result="BackgroundImageFix"/>
<feColorMatrix in="SourceAlpha" type="matrix" values="0 0 0 0 0 0 0 0 0 0 0 0 0 0 0 0 0 0 127 0" result="hardAlpha"/>
<feOffset/>
<feGaussianBlur stdDeviation="15"/>
<feComposite in2="hardAlpha" operator="out"/>
<feColorMatrix type="matrix" values="0 0 0 0 0 0 0 0 0 0 0 0 0 0 0 0 0 0 0.1 0"/>
<feBlend mode="normal" in2="BackgroundImageFix" result="effect1_dropShadow_661_1031"/>
<feBlend mode="normal" in="SourceGraphic" in2="effect1_dropShadow_661_1031" result="shape"/>
</filter>
</defs>
</svg>
