<svg width="142" height="142" viewBox="0 0 142 142" fill="none" xmlns="http://www.w3.org/2000/svg">
<g clip-path="url(#clip0_1278_1653)">
<g filter="url(#filter0_d_1278_1653)">
<path d="M101.386 31.5C106.19 31.5 110.084 35.3943 110.084 40.1982V101.386C110.084 106.19 106.19 110.084 101.386 110.084H40.1982C35.3943 110.084 31.5 106.19 31.5 101.386V40.1982C31.5001 35.3944 35.3944 31.5001 40.1982 31.5H101.386Z" fill="#6524EB" stroke="white" stroke-width="3"/>
<path d="M77.4722 96.0973C65.0406 95.7135 48.911 79.285 46.3403 67.6176C45.8273 65.3837 45.8953 63.0555 46.5376 60.8553C47.18 58.655 48.3753 56.656 50.0096 55.0489L52.2632 52.8044C52.7714 52.3002 53.4583 52.0174 54.1741 52.0175C54.8899 52.0177 55.5767 52.3008 56.0846 52.8052L63.5377 60.2587C64.0382 60.7669 64.3187 61.4516 64.3187 62.1648C64.3187 62.8781 64.0382 63.5627 63.5377 64.0709L60.9958 66.6129C60.3355 67.2564 59.9119 68.104 59.7936 69.0183C59.6753 69.9326 59.8693 70.8601 60.3441 71.6503C61.6152 73.6891 63.1307 75.5648 64.857 77.2358C66.532 78.9603 68.4101 80.4753 70.45 81.7474C71.2386 82.2226 72.1647 82.4171 73.0778 82.2995C73.9909 82.1818 74.8374 81.7589 75.4798 81.0994L78.0242 78.565C78.531 78.0584 79.2182 77.774 79.9347 77.7741C80.6512 77.7743 81.3383 78.059 81.8448 78.5658L89.2987 86.0193C89.8008 86.5252 90.0817 87.2096 90.0799 87.9224C90.0781 88.6352 89.7937 89.3181 89.2892 89.8215L87.0355 92.0752C85.785 93.3425 84.2964 94.3503 82.6552 95.0405C81.014 95.7308 79.2526 96.0899 77.4722 96.0973ZM54.1703 53.2358C53.9769 53.2349 53.7852 53.2726 53.6065 53.3468C53.4279 53.4211 53.2658 53.5302 53.13 53.6679L50.9122 55.8761C49.4146 57.3383 48.3175 59.1604 47.7256 61.168C47.1338 63.1756 47.0672 65.3015 47.5321 67.3422C48.7765 72.7553 52.2983 78.3906 58.0005 84.0935C66.2673 92.1273 77.4356 99.4994 86.1704 91.2103L88.424 88.9564C88.6994 88.6826 88.8551 88.3107 88.8569 87.9224C88.8587 87.534 88.7064 87.1608 88.4336 86.8844L80.9797 79.4309C80.8481 79.2839 80.6853 79.1682 80.5032 79.0923C80.3211 79.0165 80.1244 78.9823 79.9274 78.9923C79.7343 78.9926 79.5433 79.0313 79.3654 79.1061C79.1875 79.1809 79.0262 79.2904 78.891 79.4281L76.3466 81.9633C75.5112 82.8176 74.4117 83.3646 73.2264 83.5155C72.0411 83.6665 70.8396 83.4126 69.8167 82.795C65.5983 80.084 62.0108 76.4992 59.2966 72.2828C58.6793 71.2585 58.426 70.0557 58.5777 68.8694C58.7293 67.6831 59.2771 66.5827 60.1322 65.7466L62.6726 63.2058C62.9467 62.9286 63.1004 62.5546 63.1004 62.1648C63.1004 61.775 62.9467 61.401 62.6726 61.1238L55.2195 53.6703C55.082 53.5321 54.9185 53.4226 54.7384 53.348C54.5584 53.2734 54.3653 53.2352 54.1703 53.2358ZM81.8528 74.5572C78.0573 74.5529 74.4185 73.0433 71.7347 70.3596C69.0508 67.6758 67.5411 64.0371 67.5368 60.2416C68.3232 41.2504 95.3847 41.2551 96.1679 60.2417C96.1637 64.0371 94.6542 67.6758 91.9705 70.3595C89.2868 73.0433 85.6481 74.5529 81.8528 74.5572ZM81.8528 47.1496C78.3817 47.1535 75.0539 48.5341 72.5995 50.9885C70.1451 53.4428 68.7644 56.7706 68.7604 60.2416C69.4797 77.6095 94.228 77.6053 94.9444 60.2415C94.9405 56.7706 93.56 53.4429 91.1057 50.9885C88.6514 48.5342 85.3237 47.1536 81.8528 47.1496ZM81.8528 72.0124C78.732 72.0089 75.7401 70.7677 73.5334 68.561C71.3267 66.3543 70.0854 63.3623 70.082 60.2416C70.7283 44.626 92.9796 44.6305 93.6236 60.2417C93.6201 63.3624 92.3788 66.3543 90.1721 68.561C87.9654 70.7677 84.9735 72.0089 81.8528 72.0124ZM81.8528 49.6944C79.0564 49.6975 76.3755 50.8097 74.3982 52.787C72.4209 54.7644 71.3087 57.4453 71.3056 60.2416C71.8847 74.234 91.8229 74.2299 92.4 60.2415C92.3968 57.4452 91.2846 54.7643 89.3073 52.787C87.33 50.8097 84.6491 49.6975 81.8528 49.6944ZM81.8528 62.8852C81.2581 62.8846 80.681 62.6838 80.2144 62.3152C79.7478 61.9466 79.4188 61.4317 79.2805 60.8534H76.3888C76.2265 60.8534 76.0709 60.7889 75.9562 60.6742C75.8414 60.5595 75.777 60.4039 75.777 60.2416C75.777 60.0793 75.8414 59.9237 75.9562 59.809C76.0709 59.6943 76.2265 59.6298 76.3888 59.6298H79.2805C79.3948 59.1541 79.6384 58.7192 79.9844 58.3732C80.3304 58.0273 80.7652 57.7837 81.241 57.6693V54.1738C81.241 54.0115 81.3054 53.8559 81.4201 53.7412C81.5349 53.6264 81.6905 53.562 81.8528 53.562C82.015 53.562 82.1706 53.6264 82.2854 53.7412C82.4001 53.8559 82.4646 54.0115 82.4646 54.1738V57.6693C83.0893 57.825 83.6359 58.2029 84.0021 58.7325C84.3683 59.2621 84.5289 59.907 84.4539 60.5465C84.3789 61.1859 84.0734 61.7762 83.5946 62.2066C83.1158 62.6371 82.4966 62.8784 81.8528 62.8852ZM81.8528 58.8216C81.4789 58.8257 81.1217 58.9772 80.8587 59.243C80.5958 59.5089 80.4483 59.8677 80.4483 60.2416C80.4483 60.6155 80.5958 60.9744 80.8588 61.2402C81.1217 61.5061 81.4789 61.6575 81.8528 61.6616C82.2267 61.6575 82.5839 61.506 82.8468 61.2402C83.1098 60.9743 83.2572 60.6155 83.2572 60.2416C83.2572 59.8677 83.1097 59.5088 82.8468 59.243C82.5838 58.9771 82.2267 58.8257 81.8528 58.8216Z" fill="white"/>
<mask id="mask0_1278_1653" style="mask-type:luminance" maskUnits="userSpaceOnUse" x="45" y="45" width="52" height="52">
<path d="M97 45H45V97H97V45Z" fill="white"/>
<path d="M77.4722 96.0973C65.0406 95.7135 48.911 79.285 46.3403 67.6176C45.8273 65.3837 45.8953 63.0555 46.5376 60.8553C47.18 58.655 48.3753 56.656 50.0096 55.0489L52.2632 52.8044C52.7714 52.3002 53.4583 52.0174 54.1741 52.0175C54.8899 52.0177 55.5767 52.3008 56.0846 52.8052L63.5377 60.2587C64.0382 60.7669 64.3187 61.4516 64.3187 62.1648C64.3187 62.8781 64.0382 63.5627 63.5377 64.0709L60.9958 66.6129C60.3355 67.2564 59.9119 68.104 59.7936 69.0183C59.6753 69.9326 59.8693 70.8601 60.3441 71.6503C61.6152 73.6891 63.1307 75.5648 64.857 77.2358C66.532 78.9603 68.4101 80.4753 70.45 81.7474C71.2386 82.2226 72.1647 82.4171 73.0778 82.2995C73.9909 82.1818 74.8374 81.7589 75.4798 81.0994L78.0242 78.565C78.531 78.0584 79.2182 77.774 79.9347 77.7741C80.6512 77.7743 81.3383 78.059 81.8448 78.5658L89.2987 86.0193C89.8008 86.5252 90.0817 87.2096 90.0799 87.9224C90.0781 88.6352 89.7937 89.3181 89.2892 89.8215L87.0355 92.0752C85.785 93.3425 84.2964 94.3503 82.6552 95.0405C81.014 95.7308 79.2526 96.0899 77.4722 96.0973ZM54.1703 53.2358C53.9769 53.2349 53.7852 53.2726 53.6065 53.3468C53.4279 53.4211 53.2658 53.5302 53.13 53.6679L50.9122 55.8761C49.4146 57.3383 48.3175 59.1604 47.7256 61.168C47.1338 63.1756 47.0672 65.3015 47.5321 67.3422C48.7765 72.7553 52.2983 78.3906 58.0005 84.0935C66.2673 92.1273 77.4356 99.4994 86.1704 91.2103L88.424 88.9564C88.6994 88.6826 88.8551 88.3107 88.8569 87.9224C88.8587 87.534 88.7064 87.1608 88.4336 86.8844L80.9797 79.4309C80.8481 79.2839 80.6853 79.1682 80.5032 79.0923C80.3211 79.0165 80.1244 78.9823 79.9274 78.9923C79.7343 78.9926 79.5433 79.0313 79.3654 79.1061C79.1875 79.1809 79.0262 79.2904 78.891 79.4281L76.3466 81.9633C75.5112 82.8176 74.4117 83.3646 73.2264 83.5155C72.0411 83.6665 70.8396 83.4126 69.8167 82.795C65.5983 80.084 62.0108 76.4992 59.2966 72.2828C58.6793 71.2585 58.426 70.0557 58.5777 68.8694C58.7293 67.6831 59.2771 66.5827 60.1322 65.7466L62.6726 63.2058C62.9467 62.9286 63.1004 62.5546 63.1004 62.1648C63.1004 61.775 62.9467 61.401 62.6726 61.1238L55.2195 53.6703C55.082 53.5321 54.9185 53.4226 54.7384 53.348C54.5584 53.2734 54.3653 53.2352 54.1703 53.2358ZM81.8528 74.5572C78.0573 74.5529 74.4185 73.0433 71.7347 70.3596C69.0508 67.6758 67.5411 64.0371 67.5368 60.2416C68.3232 41.2504 95.3847 41.2551 96.1679 60.2417C96.1637 64.0371 94.6542 67.6758 91.9705 70.3595C89.2868 73.0433 85.6481 74.5529 81.8528 74.5572ZM81.8528 47.1496C78.3817 47.1535 75.0539 48.5341 72.5995 50.9885C70.1451 53.4428 68.7644 56.7706 68.7604 60.2416C69.4797 77.6095 94.228 77.6053 94.9444 60.2415C94.9405 56.7706 93.56 53.4429 91.1057 50.9885C88.6514 48.5342 85.3237 47.1536 81.8528 47.1496ZM81.8528 72.0124C78.732 72.0089 75.7401 70.7677 73.5334 68.561C71.3267 66.3543 70.0854 63.3623 70.082 60.2416C70.7283 44.626 92.9796 44.6305 93.6236 60.2417C93.6201 63.3624 92.3788 66.3543 90.1721 68.561C87.9654 70.7677 84.9735 72.0089 81.8528 72.0124ZM81.8528 49.6944C79.0564 49.6975 76.3755 50.8097 74.3982 52.787C72.4209 54.7644 71.3087 57.4453 71.3056 60.2416C71.8847 74.234 91.8229 74.2299 92.4 60.2415C92.3968 57.4452 91.2846 54.7643 89.3073 52.787C87.33 50.8097 84.6491 49.6975 81.8528 49.6944ZM81.8528 62.8852C81.2581 62.8846 80.681 62.6838 80.2144 62.3152C79.7478 61.9466 79.4188 61.4317 79.2805 60.8534H76.3888C76.2265 60.8534 76.0709 60.7889 75.9562 60.6742C75.8414 60.5595 75.777 60.4039 75.777 60.2416C75.777 60.0793 75.8414 59.9237 75.9562 59.809C76.0709 59.6943 76.2265 59.6298 76.3888 59.6298H79.2805C79.3948 59.1541 79.6384 58.7192 79.9844 58.3732C80.3304 58.0273 80.7652 57.7837 81.241 57.6693V54.1738C81.241 54.0115 81.3054 53.8559 81.4201 53.7412C81.5349 53.6264 81.6905 53.562 81.8528 53.562C82.015 53.562 82.1706 53.6264 82.2854 53.7412C82.4001 53.8559 82.4646 54.0115 82.4646 54.1738V57.6693C83.0893 57.825 83.6359 58.2029 84.0021 58.7325C84.3683 59.2621 84.5289 59.907 84.4539 60.5465C84.3789 61.1859 84.0734 61.7762 83.5946 62.2066C83.1158 62.6371 82.4966 62.8784 81.8528 62.8852ZM81.8528 58.8216C81.4789 58.8257 81.1217 58.9772 80.8587 59.243C80.5958 59.5089 80.4483 59.8677 80.4483 60.2416C80.4483 60.6155 80.5958 60.9744 80.8588 61.2402C81.1217 61.5061 81.4789 61.6575 81.8528 61.6616C82.2267 61.6575 82.5839 61.506 82.8468 61.2402C83.1098 60.9743 83.2572 60.6155 83.2572 60.2416C83.2572 59.8677 83.1097 59.5088 82.8468 59.243C82.5838 58.9771 82.2267 58.8257 81.8528 58.8216Z" fill="black"/>
</mask>
<g mask="url(#mask0_1278_1653)">
<path d="M77.4722 96.0973C65.0406 95.7135 48.911 79.285 46.3403 67.6176C45.8273 65.3837 45.8953 63.0555 46.5376 60.8553C47.18 58.655 48.3753 56.656 50.0096 55.0489L52.2632 52.8044C52.7714 52.3002 53.4583 52.0174 54.1741 52.0175C54.8899 52.0177 55.5767 52.3008 56.0846 52.8052L63.5377 60.2587C64.0382 60.7669 64.3187 61.4516 64.3187 62.1648C64.3187 62.8781 64.0382 63.5627 63.5377 64.0709L60.9958 66.6129C60.3355 67.2564 59.9119 68.104 59.7936 69.0183C59.6753 69.9326 59.8693 70.8601 60.3441 71.6503C61.6152 73.6891 63.1307 75.5648 64.857 77.2358C66.532 78.9603 68.4101 80.4753 70.45 81.7474C71.2386 82.2226 72.1647 82.4171 73.0778 82.2995C73.9909 82.1818 74.8374 81.7589 75.4798 81.0994L78.0242 78.565C78.531 78.0584 79.2182 77.774 79.9347 77.7741C80.6512 77.7743 81.3383 78.059 81.8448 78.5658L89.2987 86.0193C89.8008 86.5252 90.0817 87.2096 90.0799 87.9224C90.0781 88.6352 89.7937 89.3181 89.2892 89.8215L87.0355 92.0752C85.785 93.3425 84.2964 94.3503 82.6552 95.0405C81.014 95.7308 79.2526 96.0899 77.4722 96.0973ZM54.1703 53.2358C53.9769 53.2349 53.7852 53.2726 53.6065 53.3468C53.4279 53.4211 53.2658 53.5302 53.13 53.6679L50.9122 55.8761C49.4146 57.3383 48.3175 59.1604 47.7256 61.168C47.1338 63.1756 47.0672 65.3015 47.5321 67.3422C48.7765 72.7553 52.2983 78.3906 58.0005 84.0935C66.2673 92.1273 77.4356 99.4994 86.1704 91.2103L88.424 88.9564C88.6994 88.6826 88.8551 88.3107 88.8569 87.9224C88.8587 87.534 88.7064 87.1608 88.4336 86.8844L80.9797 79.4309C80.8481 79.2839 80.6853 79.1682 80.5032 79.0923C80.3211 79.0165 80.1244 78.9823 79.9274 78.9923C79.7343 78.9926 79.5433 79.0313 79.3654 79.1061C79.1875 79.1809 79.0262 79.2904 78.891 79.4281L76.3466 81.9633C75.5112 82.8176 74.4117 83.3646 73.2264 83.5155C72.0411 83.6665 70.8396 83.4126 69.8167 82.795C65.5983 80.084 62.0108 76.4992 59.2966 72.2828C58.6793 71.2585 58.426 70.0557 58.5777 68.8694C58.7293 67.6831 59.2771 66.5827 60.1322 65.7466L62.6726 63.2058C62.9467 62.9286 63.1004 62.5546 63.1004 62.1648C63.1004 61.775 62.9467 61.401 62.6726 61.1238L55.2195 53.6703C55.082 53.5321 54.9185 53.4226 54.7384 53.348C54.5584 53.2734 54.3653 53.2352 54.1703 53.2358ZM81.8528 74.5572C78.0573 74.5529 74.4185 73.0433 71.7347 70.3596C69.0508 67.6758 67.5411 64.0371 67.5368 60.2416C68.3232 41.2504 95.3847 41.2551 96.1679 60.2417C96.1637 64.0371 94.6542 67.6758 91.9705 70.3595C89.2868 73.0433 85.6481 74.5529 81.8528 74.5572ZM81.8528 47.1496C78.3817 47.1535 75.0539 48.5341 72.5995 50.9885C70.1451 53.4428 68.7644 56.7706 68.7604 60.2416C69.4797 77.6095 94.228 77.6053 94.9444 60.2415C94.9405 56.7706 93.56 53.4429 91.1057 50.9885C88.6514 48.5342 85.3237 47.1536 81.8528 47.1496ZM81.8528 72.0124C78.732 72.0089 75.7401 70.7677 73.5334 68.561C71.3267 66.3543 70.0854 63.3623 70.082 60.2416C70.7283 44.626 92.9796 44.6305 93.6236 60.2417C93.6201 63.3624 92.3788 66.3543 90.1721 68.561C87.9654 70.7677 84.9735 72.0089 81.8528 72.0124ZM81.8528 49.6944C79.0564 49.6975 76.3755 50.8097 74.3982 52.787C72.4209 54.7644 71.3087 57.4453 71.3056 60.2416C71.8847 74.234 91.8229 74.2299 92.4 60.2415C92.3968 57.4452 91.2846 54.7643 89.3073 52.787C87.33 50.8097 84.6491 49.6975 81.8528 49.6944ZM81.8528 62.8852C81.2581 62.8846 80.681 62.6838 80.2144 62.3152C79.7478 61.9466 79.4188 61.4317 79.2805 60.8534H76.3888C76.2265 60.8534 76.0709 60.7889 75.9562 60.6742C75.8414 60.5595 75.777 60.4039 75.777 60.2416C75.777 60.0793 75.8414 59.9237 75.9562 59.809C76.0709 59.6943 76.2265 59.6298 76.3888 59.6298H79.2805C79.3948 59.1541 79.6384 58.7192 79.9844 58.3732C80.3304 58.0273 80.7652 57.7837 81.241 57.6693V54.1738C81.241 54.0115 81.3054 53.8559 81.4201 53.7412C81.5349 53.6264 81.6905 53.562 81.8528 53.562C82.015 53.562 82.1706 53.6264 82.2854 53.7412C82.4001 53.8559 82.4646 54.0115 82.4646 54.1738V57.6693C83.0893 57.825 83.6359 58.2029 84.0021 58.7325C84.3683 59.2621 84.5289 59.907 84.4539 60.5465C84.3789 61.1859 84.0734 61.7762 83.5946 62.2066C83.1158 62.6371 82.4966 62.8784 81.8528 62.8852ZM81.8528 58.8216C81.4789 58.8257 81.1217 58.9772 80.8587 59.243C80.5958 59.5089 80.4483 59.8677 80.4483 60.2416C80.4483 60.6155 80.5958 60.9744 80.8588 61.2402C81.1217 61.5061 81.4789 61.6575 81.8528 61.6616C82.2267 61.6575 82.5839 61.506 82.8468 61.2402C83.1098 60.9743 83.2572 60.6155 83.2572 60.2416C83.2572 59.8677 83.1097 59.5088 82.8468 59.243C82.5838 58.9771 82.2267 58.8257 81.8528 58.8216Z" stroke="white" stroke-width="0.8"/>
</g>
</g>
</g>
<defs>
<filter id="filter0_d_1278_1653" x="0" y="0" width="141.586" height="141.584" filterUnits="userSpaceOnUse" color-interpolation-filters="sRGB">
<feFlood flood-opacity="0" result="BackgroundImageFix"/>
<feColorMatrix in="SourceAlpha" type="matrix" values="0 0 0 0 0 0 0 0 0 0 0 0 0 0 0 0 0 0 127 0" result="hardAlpha"/>
<feOffset/>
<feGaussianBlur stdDeviation="15"/>
<feComposite in2="hardAlpha" operator="out"/>
<feColorMatrix type="matrix" values="0 0 0 0 0 0 0 0 0 0 0 0 0 0 0 0 0 0 0.1 0"/>
<feBlend mode="normal" in2="BackgroundImageFix" result="effect1_dropShadow_1278_1653"/>
<feBlend mode="normal" in="SourceGraphic" in2="effect1_dropShadow_1278_1653" result="shape"/>
</filter>
<clipPath id="clip0_1278_1653">
<rect width="142" height="142" fill="white"/>
</clipPath>
</defs>
</svg>
