<svg width="142" height="142" viewBox="0 0 142 142" fill="none" xmlns="http://www.w3.org/2000/svg">
<g clip-path="url(#clip0_1278_1649)">
<g filter="url(#filter0_d_1278_1649)">
<path d="M101.386 31.5C106.19 31.5 110.084 35.3943 110.084 40.1982V101.386C110.084 106.19 106.19 110.084 101.386 110.084H40.1982C35.3943 110.084 31.5 106.19 31.5 101.386V40.1982C31.5001 35.3944 35.3944 31.5001 40.1982 31.5H101.386Z" fill="#6524EB" stroke="white" stroke-width="3"/>
<path d="M61.3622 48.7539L61.3612 48.7549C63.6551 48.7914 65.5029 50.6509 65.5194 52.9463L65.578 60.1729C65.6024 61.5118 64.9789 62.7803 63.9013 63.5752L63.9003 63.5742L61.1454 65.666L61.1386 65.6719C60.8653 65.8643 60.7625 66.2119 60.8739 66.5166L60.9354 66.6445L60.9364 66.6455C64.4526 72.5803 69.41 77.536 75.3466 81.0508C75.6697 81.2443 76.087 81.1605 76.3085 80.8584L76.3114 80.8545L78.4052 78.0977C79.1995 77.0252 80.4652 76.4007 81.8026 76.4258H81.8056L89.0351 76.4844C91.1488 76.4993 92.8929 78.0643 93.1854 80.1035L93.2333 80.0596L93.246 80.625C93.3505 85.4239 91.5443 89.0554 88.4228 91.167C85.3085 93.2735 80.9284 93.8379 75.9335 92.6045H75.9315C70.4592 91.2229 64.4836 87.8243 59.3456 82.6387C54.2103 77.4557 50.7608 71.5321 49.4032 66.0752C48.1586 61.0809 48.724 56.7017 50.831 53.5869C52.9428 50.4652 56.5741 48.6572 61.3622 48.7539ZM61.3222 50.5977C57.0849 50.5065 54.0166 52.0678 52.2724 54.7188C50.5222 57.3789 50.0731 61.1845 51.1845 65.6348C52.463 70.7661 55.7124 76.4121 60.6483 81.3428C65.5864 86.2736 71.2251 89.527 76.3573 90.7988C79.598 91.607 82.7016 91.6173 85.2362 90.7246C87.7393 89.843 89.6975 88.0775 90.706 85.2969L90.7304 85.2246C91.2251 83.7579 91.4516 82.2138 91.3954 80.6689V80.666C91.3677 79.369 90.3139 78.3297 89.0185 78.3193L81.787 78.2598H81.7811C81.0242 78.2426 80.3056 78.5963 79.8573 79.208L79.8544 79.2109L77.9687 81.6934L77.7636 81.9678C76.9826 83.0065 75.5468 83.2967 74.4247 82.6406L74.4237 82.6396C68.2062 78.9654 63.0208 73.7793 59.3476 67.5645L59.3466 67.5635C58.6906 66.4423 58.9798 65.0057 60.0185 64.2266L62.7772 62.1338L62.7811 62.1309C63.3925 61.6848 63.7457 60.9666 63.7284 60.208V60.2041L63.6698 52.9756C63.6592 51.6795 62.6199 50.6273 61.3222 50.5977ZM81.4081 50.7227C81.6951 50.6324 82.0094 50.6909 82.247 50.8789L90.6532 57.0039C90.8915 57.1767 91.0341 57.4527 91.0341 57.749C91.034 58.043 90.8918 58.3202 90.6532 58.4932L82.2177 64.5791L82.2157 64.5801C81.9372 64.777 81.5725 64.803 81.2685 64.6484C80.9649 64.494 80.7708 64.1851 80.7655 63.8438V61.3936C78.9036 61.1948 77.4534 61.6441 76.3095 62.5771C75.1128 63.5532 74.2273 65.0773 73.5751 67.0098C73.4505 67.3803 73.1054 67.625 72.7255 67.6328L72.5614 67.6211C72.117 67.55 71.7909 67.1666 71.7909 66.7178C71.6728 62.9242 72.2763 59.8697 73.7616 57.708L73.9081 57.502C75.4052 55.4387 77.6684 54.2539 80.7655 53.9756V51.5986C80.7636 51.245 80.9688 50.9232 81.2851 50.7715L81.4081 50.7227ZM82.5946 54.8457C82.592 55.3384 82.2012 55.743 81.7069 55.7588C79.0876 55.8433 77.2353 56.5992 75.9696 57.9004C74.8869 59.0135 74.2106 60.5498 73.87 62.4736C74.3555 61.8601 74.9226 61.315 75.5575 60.8535V60.8389L75.6669 60.7637C77.3615 59.6039 79.4148 59.2573 81.7997 59.6963C82.2542 59.756 82.5946 60.1437 82.5946 60.6035V62.043L88.5634 57.7178L82.5946 53.4023V54.8457Z" fill="white" stroke="white" stroke-width="0.5"/>
</g>
</g>
<defs>
<filter id="filter0_d_1278_1649" x="0" y="0" width="141.586" height="141.584" filterUnits="userSpaceOnUse" color-interpolation-filters="sRGB">
<feFlood flood-opacity="0" result="BackgroundImageFix"/>
<feColorMatrix in="SourceAlpha" type="matrix" values="0 0 0 0 0 0 0 0 0 0 0 0 0 0 0 0 0 0 127 0" result="hardAlpha"/>
<feOffset/>
<feGaussianBlur stdDeviation="15"/>
<feComposite in2="hardAlpha" operator="out"/>
<feColorMatrix type="matrix" values="0 0 0 0 0 0 0 0 0 0 0 0 0 0 0 0 0 0 0.1 0"/>
<feBlend mode="normal" in2="BackgroundImageFix" result="effect1_dropShadow_1278_1649"/>
<feBlend mode="normal" in="SourceGraphic" in2="effect1_dropShadow_1278_1649" result="shape"/>
</filter>
<clipPath id="clip0_1278_1649">
<rect width="142" height="142" fill="white"/>
</clipPath>
</defs>
</svg>
