<svg width="300" height="57" viewBox="0 0 300 57" fill="none" xmlns="http://www.w3.org/2000/svg">
<path d="M0 15.8281C0 8.22568 6.02207 2.01578 13.6227 1.85158C41.2749 1.25423 105.161 -0.0104394 149.969 6.50351e-05C194.377 0.0104756 257.858 1.26198 285.409 1.85358C293.011 2.0168 299.035 8.22725 299.035 15.8307V40.2478C299.035 47.8512 293.011 54.0617 285.409 54.2249C257.858 54.8165 194.377 56.0681 149.969 56.0785C105.161 56.089 41.2749 54.8243 13.6227 54.2269C6.02205 54.0627 0 47.8528 0 40.2504V15.8281Z" fill="#6524EB"/>
<path d="M50.7948 25.8441H48.2714C48.1994 25.4303 48.0667 25.0637 47.8733 24.7443C47.6799 24.4205 47.4392 24.1461 47.1513 23.9212C46.8634 23.6963 46.5351 23.5276 46.1662 23.4151C45.8019 23.2982 45.4083 23.2397 44.9855 23.2397C44.2343 23.2397 43.5686 23.4286 42.9883 23.8065C42.4081 24.1798 41.9538 24.7286 41.6254 25.4528C41.297 26.1725 41.1329 27.0518 41.1329 28.0909C41.1329 29.148 41.297 30.0386 41.6254 30.7628C41.9583 31.4825 42.4126 32.0268 42.9883 32.3956C43.5686 32.7599 44.2321 32.9421 44.9787 32.9421C45.3926 32.9421 45.7794 32.8881 46.1393 32.7802C46.5036 32.6677 46.8297 32.5036 47.1176 32.2876C47.41 32.0717 47.6551 31.8063 47.853 31.4915C48.0554 31.1766 48.1949 30.8168 48.2714 30.4119L50.7948 30.4254C50.7003 31.0821 50.4957 31.6984 50.1808 32.2741C49.8704 32.8499 49.4634 33.3582 48.9596 33.799C48.4558 34.2353 47.8665 34.5772 47.1918 34.8246C46.5171 35.0675 45.7682 35.1889 44.945 35.1889C43.7305 35.1889 42.6465 34.9078 41.6929 34.3455C40.7393 33.7833 39.9881 32.9714 39.4393 31.9098C38.8906 30.8482 38.6162 29.5753 38.6162 28.0909C38.6162 26.602 38.8928 25.3291 39.4461 24.272C39.9993 23.2105 40.7528 22.3986 41.7064 21.8363C42.66 21.274 43.7395 20.9929 44.945 20.9929C45.7142 20.9929 46.4294 21.1009 47.0906 21.3168C47.7518 21.5327 48.3411 21.8498 48.8584 22.2681C49.3756 22.6819 49.8007 23.1902 50.1336 23.793C50.4709 24.3912 50.6913 25.0749 50.7948 25.8441ZM52.9792 35V24.6364H55.3474V26.3636H55.4554C55.6443 25.7654 55.9682 25.3043 56.427 24.9805C56.8903 24.6521 57.4188 24.4879 58.0126 24.4879C58.1475 24.4879 58.2982 24.4947 58.4646 24.5082C58.6356 24.5172 58.7772 24.5329 58.8897 24.5554V26.8022C58.7862 26.7662 58.6221 26.7347 58.3972 26.7077C58.1767 26.6763 57.9631 26.6605 57.7562 26.6605C57.3109 26.6605 56.9105 26.7572 56.5552 26.9506C56.2043 27.1396 55.9277 27.4027 55.7253 27.7401C55.5229 28.0774 55.4217 28.4665 55.4217 28.9073V35H52.9792ZM64.6737 35.2024C63.6346 35.2024 62.7373 34.9865 61.9816 34.5547C61.2304 34.1184 60.6524 33.5021 60.2476 32.706C59.8427 31.9053 59.6403 30.9629 59.6403 29.8789C59.6403 28.8129 59.8427 27.8772 60.2476 27.0721C60.6569 26.2624 61.2281 25.6327 61.9613 25.1829C62.6945 24.7286 63.5559 24.5014 64.5455 24.5014C65.1842 24.5014 65.787 24.6049 66.3537 24.8118C66.925 25.0142 67.4288 25.3291 67.8651 25.7564C68.3059 26.1837 68.6523 26.728 68.9042 27.3892C69.1561 28.0459 69.282 28.8286 69.282 29.7372V30.4862H60.7873V28.8398H66.9407C66.9362 28.372 66.835 27.956 66.6371 27.5916C66.4392 27.2228 66.1626 26.9326 65.8072 26.7212C65.4564 26.5098 65.047 26.4041 64.5792 26.4041C64.0799 26.4041 63.6414 26.5256 63.2635 26.7685C62.8857 27.0069 62.5911 27.3217 62.3797 27.7131C62.1728 28.0999 62.067 28.525 62.0625 28.9883V30.4254C62.0625 31.0282 62.1728 31.5455 62.3932 31.9773C62.6136 32.4046 62.9217 32.733 63.3175 32.9624C63.7134 33.1873 64.1767 33.2997 64.7074 33.2997C65.0628 33.2997 65.3844 33.2502 65.6723 33.1513C65.9602 33.0478 66.2098 32.8971 66.4212 32.6992C66.6326 32.5013 66.7923 32.2562 66.9003 31.9638L69.1808 32.2202C69.0369 32.8229 68.7625 33.3492 68.3576 33.799C67.9573 34.2443 67.4445 34.5907 66.8193 34.8381C66.1941 35.081 65.4789 35.2024 64.6737 35.2024ZM74.3306 35.2092C73.6738 35.2092 73.0823 35.0922 72.5561 34.8583C72.0343 34.6199 71.6205 34.2691 71.3146 33.8058C71.0132 33.3424 70.8625 32.7712 70.8625 32.092C70.8625 31.5072 70.9705 31.0237 71.1864 30.6413C71.4023 30.259 71.6969 29.9531 72.0703 29.7237C72.4436 29.4943 72.8642 29.3211 73.332 29.2042C73.8043 29.0827 74.2923 28.995 74.7961 28.9411C75.4034 28.8781 75.8959 28.8219 76.2738 28.7724C76.6516 28.7184 76.926 28.6374 77.0969 28.5295C77.2723 28.417 77.36 28.2438 77.36 28.0099V27.9695C77.36 27.4612 77.2094 27.0676 76.908 26.7887C76.6066 26.5098 76.1725 26.3704 75.6058 26.3704C75.0075 26.3704 74.533 26.5008 74.1821 26.7617C73.8358 27.0226 73.6019 27.3307 73.4804 27.6861L71.1999 27.3622C71.3798 26.7325 71.6767 26.2062 72.0905 25.7834C72.5043 25.3561 73.0104 25.0367 73.6086 24.8253C74.2069 24.6094 74.8681 24.5014 75.5923 24.5014C76.0916 24.5014 76.5886 24.5599 77.0834 24.6768C77.5782 24.7938 78.0303 24.9872 78.4396 25.2571C78.8489 25.5225 79.1773 25.8846 79.4247 26.3434C79.6766 26.8022 79.8025 27.3757 79.8025 28.0639V35H77.4545V33.5763H77.3735C77.2251 33.8642 77.0159 34.1341 76.7461 34.386C76.4807 34.6334 76.1456 34.8336 75.7407 34.9865C75.3404 35.1349 74.8703 35.2092 74.3306 35.2092ZM74.9648 33.4144C75.4551 33.4144 75.8802 33.3177 76.24 33.1243C76.5999 32.9264 76.8765 32.6655 77.0699 32.3416C77.2678 32.0178 77.3668 31.6647 77.3668 31.2823V30.0611C77.2903 30.1241 77.1599 30.1825 76.9755 30.2365C76.7955 30.2905 76.5931 30.3377 76.3682 30.3782C76.1433 30.4187 75.9206 30.4547 75.7002 30.4862C75.4798 30.5176 75.2887 30.5446 75.1267 30.5671C74.7624 30.6166 74.4363 30.6976 74.1484 30.81C73.8605 30.9225 73.6334 31.0799 73.4669 31.2823C73.3005 31.4802 73.2173 31.7366 73.2173 32.0515C73.2173 32.5013 73.3815 32.8409 73.7098 33.0703C74.0382 33.2997 74.4565 33.4144 74.9648 33.4144ZM87.4336 24.6364V26.5256H81.4758V24.6364H87.4336ZM82.9467 22.1534H85.3892V31.8828C85.3892 32.2112 85.4386 32.4631 85.5376 32.6385C85.6411 32.8094 85.776 32.9264 85.9424 32.9893C86.1089 33.0523 86.2933 33.0838 86.4957 33.0838C86.6486 33.0838 86.7881 33.0726 86.914 33.0501C87.0445 33.0276 87.1434 33.0073 87.2109 32.9893L87.6225 34.8988C87.492 34.9438 87.3054 34.9933 87.0625 35.0472C86.8241 35.1012 86.5317 35.1327 86.1853 35.1417C85.5736 35.1597 85.0226 35.0675 84.5323 34.8651C84.042 34.6581 83.6529 34.3388 83.365 33.907C83.0816 33.4751 82.9422 32.9354 82.9467 32.2876V22.1534ZM93.953 35.2024C92.9139 35.2024 92.0166 34.9865 91.2609 34.5547C90.5097 34.1184 89.9317 33.5021 89.5269 32.706C89.122 31.9053 88.9196 30.9629 88.9196 29.8789C88.9196 28.8129 89.122 27.8772 89.5269 27.0721C89.9362 26.2624 90.5074 25.6327 91.2406 25.1829C91.9738 24.7286 92.8352 24.5014 93.8248 24.5014C94.4635 24.5014 95.0663 24.6049 95.633 24.8118C96.2043 25.0142 96.7081 25.3291 97.1444 25.7564C97.5852 26.1837 97.9316 26.728 98.1835 27.3892C98.4354 28.0459 98.5613 28.8286 98.5613 29.7372V30.4862H90.0666V28.8398H96.22C96.2155 28.372 96.1143 27.956 95.9164 27.5916C95.7185 27.2228 95.4419 26.9326 95.0865 26.7212C94.7357 26.5098 94.3263 26.4041 93.8585 26.4041C93.3592 26.4041 92.9207 26.5256 92.5428 26.7685C92.165 27.0069 91.8704 27.3217 91.659 27.7131C91.452 28.0999 91.3463 28.525 91.3418 28.9883V30.4254C91.3418 31.0282 91.452 31.5455 91.6725 31.9773C91.8929 32.4046 92.201 32.733 92.5968 32.9624C92.9926 33.1873 93.456 33.2997 93.9867 33.2997C94.3421 33.2997 94.6637 33.2502 94.9516 33.1513C95.2395 33.0478 95.4891 32.8971 95.7005 32.6992C95.9119 32.5013 96.0716 32.2562 96.1796 31.9638L98.4601 32.2202C98.3162 32.8229 98.0418 33.3492 97.6369 33.799C97.2366 34.2443 96.7238 34.5907 96.0986 34.8381C95.4734 35.081 94.7582 35.2024 93.953 35.2024ZM105.341 35V24.6364H107.675V26.3974H107.796C108.012 25.8036 108.37 25.3403 108.869 25.0075C109.369 24.6701 109.965 24.5014 110.657 24.5014C111.359 24.5014 111.95 24.6723 112.432 25.0142C112.918 25.3516 113.259 25.8126 113.457 26.3974H113.565C113.795 25.8216 114.182 25.3628 114.726 25.021C115.275 24.6746 115.925 24.5014 116.676 24.5014C117.629 24.5014 118.408 24.8028 119.01 25.4055C119.613 26.0083 119.914 26.8877 119.914 28.0437V35H117.465V28.4215C117.465 27.7783 117.294 27.3082 116.952 27.0114C116.611 26.71 116.192 26.5593 115.697 26.5593C115.108 26.5593 114.647 26.7437 114.314 27.1126C113.986 27.4769 113.822 27.9515 113.822 28.5362V35H111.426V28.3203C111.426 27.785 111.265 27.3577 110.941 27.0384C110.621 26.719 110.203 26.5593 109.686 26.5593C109.335 26.5593 109.015 26.6493 108.728 26.8292C108.44 27.0046 108.21 27.2543 108.039 27.5781C107.868 27.8975 107.783 28.2708 107.783 28.6982V35H105.341ZM123.539 38.8864C123.206 38.8864 122.898 38.8594 122.615 38.8054C122.336 38.7559 122.113 38.6974 121.947 38.63L122.514 36.7273C122.869 36.8307 123.186 36.8802 123.465 36.8757C123.744 36.8712 123.989 36.7835 124.201 36.6126C124.416 36.4461 124.599 36.1673 124.747 35.7759L124.956 35.2159L121.198 24.6364H123.789L126.177 32.4631H126.285L128.681 24.6364H131.278L127.129 36.255C126.935 36.8037 126.679 37.2738 126.36 37.6651C126.04 38.061 125.649 38.3623 125.186 38.5692C124.727 38.7807 124.178 38.8864 123.539 38.8864ZM136.389 35V21.1818H146.105V24.2045H140.141V26.5795H145.511V29.6023H140.141V35H136.389ZM147.485 35V21.1818H153.449C154.475 21.1818 155.372 21.3685 156.142 21.7418C156.911 22.1152 157.509 22.6527 157.936 23.3544C158.364 24.0561 158.577 24.8973 158.577 25.8778C158.577 26.8674 158.357 27.7018 157.916 28.381C157.48 29.0603 156.866 29.573 156.074 29.9194C155.287 30.2657 154.367 30.4389 153.315 30.4389H149.752V27.5241H152.559C153 27.5241 153.375 27.4702 153.686 27.3622C154 27.2498 154.241 27.0721 154.408 26.8292C154.578 26.5863 154.664 26.2692 154.664 25.8778C154.664 25.482 154.578 25.1604 154.408 24.913C154.241 24.6611 154 24.4767 153.686 24.3597C153.375 24.2383 153 24.1776 152.559 24.1776H151.236V35H147.485ZM155.582 28.6577L159.036 35H154.961L151.587 28.6577H155.582ZM160.176 35V21.1818H170.135V24.2045H163.928V26.5795H169.622V29.6023H163.928V31.9773H170.108V35H160.176ZM171.996 35V21.1818H181.955V24.2045H175.747V26.5795H181.442V29.6023H175.747V31.9773H181.928V35H171.996ZM190.947 35.2092C190.29 35.2092 189.699 35.0922 189.172 34.8583C188.65 34.6199 188.237 34.2691 187.931 33.8058C187.629 33.3424 187.479 32.7712 187.479 32.092C187.479 31.5072 187.587 31.0237 187.803 30.6413C188.019 30.259 188.313 29.9531 188.686 29.7237C189.06 29.4943 189.48 29.3211 189.948 29.2042C190.421 29.0827 190.909 28.995 191.412 28.9411C192.02 28.8781 192.512 28.8219 192.89 28.7724C193.268 28.7184 193.542 28.6374 193.713 28.5295C193.889 28.417 193.976 28.2438 193.976 28.0099V27.9695C193.976 27.4612 193.826 27.0676 193.524 26.7887C193.223 26.5098 192.789 26.3704 192.222 26.3704C191.624 26.3704 191.149 26.5008 190.798 26.7617C190.452 27.0226 190.218 27.3307 190.097 27.6861L187.816 27.3622C187.996 26.7325 188.293 26.2062 188.707 25.7834C189.121 25.3561 189.627 25.0367 190.225 24.8253C190.823 24.6094 191.484 24.5014 192.208 24.5014C192.708 24.5014 193.205 24.5599 193.7 24.6768C194.194 24.7938 194.646 24.9872 195.056 25.2571C195.465 25.5225 195.793 25.8846 196.041 26.3434C196.293 26.8022 196.419 27.3757 196.419 28.0639V35H194.071V33.5763H193.99C193.841 33.8642 193.632 34.1341 193.362 34.386C193.097 34.6334 192.762 34.8336 192.357 34.9865C191.957 35.1349 191.487 35.2092 190.947 35.2092ZM191.581 33.4144C192.071 33.4144 192.496 33.3177 192.856 33.1243C193.216 32.9264 193.493 32.6655 193.686 32.3416C193.884 32.0178 193.983 31.6647 193.983 31.2823V30.0611C193.907 30.1241 193.776 30.1825 193.592 30.2365C193.412 30.2905 193.209 30.3377 192.984 30.3782C192.76 30.4187 192.537 30.4547 192.316 30.4862C192.096 30.5176 191.905 30.5446 191.743 30.5671C191.379 30.6166 191.052 30.6976 190.765 30.81C190.477 30.9225 190.25 31.0799 190.083 31.2823C189.917 31.4802 189.833 31.7366 189.833 32.0515C189.833 32.5013 189.998 32.8409 190.326 33.0703C190.654 33.2997 191.073 33.4144 191.581 33.4144ZM203.395 35.2024C202.361 35.2024 201.472 34.9753 200.73 34.521C199.992 34.0666 199.423 33.4392 199.023 32.6385C198.627 31.8333 198.429 30.9067 198.429 29.8587C198.429 28.8061 198.632 27.8772 199.037 27.0721C199.441 26.2624 200.013 25.6327 200.75 25.1829C201.493 24.7286 202.37 24.5014 203.382 24.5014C204.223 24.5014 204.967 24.6566 205.615 24.967C206.267 25.2728 206.787 25.7069 207.174 26.2692C207.561 26.8269 207.781 27.4792 207.835 28.2259H205.5C205.406 27.7266 205.181 27.3105 204.826 26.9776C204.475 26.6403 204.005 26.4716 203.416 26.4716C202.916 26.4716 202.478 26.6065 202.1 26.8764C201.722 27.1418 201.427 27.5241 201.216 28.0234C201.009 28.5227 200.906 29.121 200.906 29.8182C200.906 30.5244 201.009 31.1316 201.216 31.6399C201.423 32.1437 201.713 32.5328 202.086 32.8072C202.464 33.0771 202.907 33.212 203.416 33.212C203.775 33.212 204.097 33.1445 204.38 33.0096C204.668 32.8701 204.909 32.67 205.102 32.4091C205.296 32.1482 205.428 31.8311 205.5 31.4577H207.835C207.776 32.1909 207.561 32.8409 207.187 33.4077C206.814 33.9699 206.306 34.4107 205.662 34.7301C205.019 35.045 204.263 35.2024 203.395 35.2024ZM214.361 35.2024C213.327 35.2024 212.438 34.9753 211.696 34.521C210.958 34.0666 210.389 33.4392 209.989 32.6385C209.593 31.8333 209.395 30.9067 209.395 29.8587C209.395 28.8061 209.598 27.8772 210.002 27.0721C210.407 26.2624 210.979 25.6327 211.716 25.1829C212.458 24.7286 213.336 24.5014 214.348 24.5014C215.189 24.5014 215.933 24.6566 216.581 24.967C217.233 25.2728 217.753 25.7069 218.14 26.2692C218.526 26.8269 218.747 27.4792 218.801 28.2259H216.466C216.372 27.7266 216.147 27.3105 215.792 26.9776C215.441 26.6403 214.971 26.4716 214.381 26.4716C213.882 26.4716 213.443 26.6065 213.066 26.8764C212.688 27.1418 212.393 27.5241 212.182 28.0234C211.975 28.5227 211.871 29.121 211.871 29.8182C211.871 30.5244 211.975 31.1316 212.182 31.6399C212.389 32.1437 212.679 32.5328 213.052 32.8072C213.43 33.0771 213.873 33.212 214.381 33.212C214.741 33.212 215.063 33.1445 215.346 33.0096C215.634 32.8701 215.875 32.67 216.068 32.4091C216.262 32.1482 216.394 31.8311 216.466 31.4577H218.801C218.742 32.1909 218.526 32.8409 218.153 33.4077C217.78 33.9699 217.271 34.4107 216.628 34.7301C215.985 35.045 215.229 35.2024 214.361 35.2024ZM225.327 35.2024C224.315 35.2024 223.438 34.9798 222.696 34.5344C221.953 34.0891 221.378 33.4661 220.968 32.6655C220.563 31.8648 220.361 30.9292 220.361 29.8587C220.361 28.7881 220.563 27.8503 220.968 27.0451C221.378 26.2399 221.953 25.6147 222.696 25.1694C223.438 24.7241 224.315 24.5014 225.327 24.5014C226.339 24.5014 227.216 24.7241 227.958 25.1694C228.701 25.6147 229.274 26.2399 229.679 27.0451C230.088 27.8503 230.293 28.7881 230.293 29.8587C230.293 30.9292 230.088 31.8648 229.679 32.6655C229.274 33.4661 228.701 34.0891 227.958 34.5344C227.216 34.9798 226.339 35.2024 225.327 35.2024ZM225.34 33.2457C225.889 33.2457 226.348 33.0951 226.717 32.7937C227.086 32.4878 227.36 32.0785 227.54 31.5657C227.724 31.0529 227.817 30.4817 227.817 29.8519C227.817 29.2177 227.724 28.6442 227.54 28.1314C227.36 27.6141 227.086 27.2025 226.717 26.8967C226.348 26.5908 225.889 26.4379 225.34 26.4379C224.778 26.4379 224.31 26.5908 223.937 26.8967C223.568 27.2025 223.292 27.6141 223.107 28.1314C222.927 28.6442 222.837 29.2177 222.837 29.8519C222.837 30.4817 222.927 31.0529 223.107 31.5657C223.292 32.0785 223.568 32.4878 223.937 32.7937C224.31 33.0951 224.778 33.2457 225.34 33.2457ZM238.971 30.6413V24.6364H241.414V35H239.046V33.158H238.938C238.704 33.7383 238.319 34.2128 237.784 34.5817C237.253 34.9505 236.599 35.1349 235.82 35.1349C235.141 35.1349 234.541 34.9843 234.019 34.6829C233.502 34.377 233.097 33.9339 232.804 33.3537C232.512 32.7689 232.366 32.0627 232.366 31.2351V24.6364H234.808V30.8572C234.808 31.514 234.988 32.0357 235.348 32.4226C235.708 32.8094 236.18 33.0028 236.765 33.0028C237.125 33.0028 237.474 32.9151 237.811 32.7397C238.148 32.5643 238.425 32.3034 238.641 31.957C238.861 31.6062 238.971 31.1676 238.971 30.6413ZM246.368 28.9276V35H243.925V24.6364H246.26V26.3974H246.381C246.62 25.8171 247 25.3561 247.522 25.0142C248.048 24.6723 248.698 24.5014 249.472 24.5014C250.187 24.5014 250.81 24.6544 251.341 24.9602C251.876 25.2661 252.29 25.7092 252.582 26.2894C252.879 26.8697 253.025 27.5736 253.021 28.4013V35H250.578V28.7791C250.578 28.0864 250.398 27.5444 250.038 27.1531C249.683 26.7617 249.191 26.5661 248.561 26.5661C248.133 26.5661 247.753 26.6605 247.421 26.8494C247.092 27.0339 246.833 27.3015 246.645 27.6523C246.46 28.0032 246.368 28.4283 246.368 28.9276ZM260.679 24.6364V26.5256H254.721V24.6364H260.679ZM256.192 22.1534H258.634V31.8828C258.634 32.2112 258.684 32.4631 258.783 32.6385C258.886 32.8094 259.021 32.9264 259.188 32.9893C259.354 33.0523 259.538 33.0838 259.741 33.0838C259.894 33.0838 260.033 33.0726 260.159 33.0501C260.29 33.0276 260.389 33.0073 260.456 32.9893L260.868 34.8988C260.737 34.9438 260.55 34.9933 260.308 35.0472C260.069 35.1012 259.777 35.1327 259.43 35.1417C258.819 35.1597 258.268 35.0675 257.777 34.8651C257.287 34.6581 256.898 34.3388 256.61 33.907C256.327 33.4751 256.187 32.9354 256.192 32.2876V22.1534Z" fill="white"/>
</svg>
