<svg width="156" height="156" viewBox="0 0 156 156" fill="none" xmlns="http://www.w3.org/2000/svg">
<path d="M71.7949 3.72461C75.2411 0.278389 81.0701 0.277854 84.5166 3.72363C86.4233 5.7441 89.1942 7.09017 92.083 7.67383C94.9734 8.25775 98.0354 8.08874 100.536 7.01953L100.537 7.02051C105.277 5.0816 110.459 7.44521 112.406 11.9893C113.476 14.5997 115.541 16.8889 117.994 18.5244C120.449 20.1612 123.333 21.1689 126.067 21.1689C131.026 21.1689 135.127 25.2697 135.127 30.2285C135.127 32.9695 136.196 35.8538 137.859 38.3047C139.523 40.7559 141.811 42.8202 144.307 43.8896L144.314 43.8926C149.065 45.8362 151.217 51.2303 149.279 55.751L149.274 55.7607L149.271 55.7695C148.32 58.2669 148.21 61.326 148.793 64.2129C149.375 67.0934 150.66 69.8597 152.561 71.7666V71.7676C156.027 75.4504 156.012 81.0592 152.571 84.5C150.551 86.4067 149.206 89.1779 148.622 92.0664C148.038 94.9567 148.206 98.0189 149.275 100.52V100.521C151.154 105.112 148.995 110.119 144.727 112.198L144.307 112.39C141.696 113.46 139.407 115.524 137.771 117.978C136.135 120.433 135.127 123.316 135.127 126.051C135.127 131.01 131.026 135.11 126.067 135.11C123.326 135.11 120.442 136.18 117.991 137.843C115.54 139.506 113.476 141.795 112.406 144.29L112.403 144.298C110.46 149.049 105.066 151.2 100.545 149.263L100.535 149.258L100.525 149.255L100.051 149.086C97.6466 148.292 94.7893 148.23 92.083 148.776C89.1967 149.36 86.4239 150.647 84.5166 152.555C81.0701 156.001 75.2413 156.001 71.7949 152.555C69.8882 150.535 67.1178 149.189 64.2295 148.605C61.5168 148.057 58.6523 148.171 56.2432 149.071L55.7754 149.259C51.184 151.137 46.1768 148.978 44.0977 144.71L43.9062 144.29C42.8362 141.68 40.7715 139.39 38.3184 137.755C35.8632 136.118 32.9797 135.11 30.2451 135.11C25.2863 135.11 21.1855 131.01 21.1855 126.051C21.1855 123.31 20.1162 120.426 18.4531 117.975C16.7898 115.523 14.5014 113.459 12.0059 112.39L11.998 112.387C7.24738 110.443 5.09591 105.049 7.0332 100.528L7.03809 100.519L7.04102 100.509C7.99226 98.0115 8.10272 94.9532 7.51953 92.0664C6.93637 89.1801 5.64852 86.4073 3.74121 84.5C0.402634 81.1612 0.2977 75.5868 3.42773 72.1084L3.74121 71.7783C5.76112 69.8716 7.10687 67.1012 7.69043 64.2129C8.27442 61.3222 8.10565 58.2596 7.03613 55.7588H7.03711C5.0982 51.0192 7.46182 45.8372 12.0059 43.8896L12.0049 43.8887C14.6155 42.8187 16.9054 40.755 18.541 38.3018C20.1778 35.8466 21.1855 32.9631 21.1855 30.2285C21.1855 25.2697 25.2863 21.1689 30.2451 21.1689C32.9861 21.1689 35.8704 20.0996 38.3213 18.4365C40.7725 16.7732 42.8368 14.4847 43.9062 11.9893L43.9092 11.9814C45.8528 7.23078 51.2469 5.0793 55.7676 7.0166L55.7773 7.02148L55.7861 7.02441C58.2835 7.97578 61.3426 8.08614 64.2295 7.50293C67.1157 6.91979 69.8876 5.63174 71.7949 3.72461Z" fill="white" stroke="#787878"/>
<circle cx="78.1562" cy="78.1396" r="55" fill="white" stroke="#787878"/>
<path d="M30.6562 117.64C30.6562 115.983 31.9994 114.64 33.6562 114.64H124.656C126.313 114.64 127.656 115.983 127.656 117.64V130.64C127.656 132.297 126.313 133.64 124.656 133.64H33.6563C31.9994 133.64 30.6562 132.297 30.6562 130.64V117.64Z" fill="white"/>
<path d="M63.3684 118.241H59.9465C59.884 117.799 59.7564 117.405 59.5637 117.062C59.371 116.713 59.1236 116.416 58.8215 116.171C58.5194 115.926 58.1705 115.739 57.7746 115.608C57.384 115.478 56.9595 115.413 56.5012 115.413C55.6731 115.413 54.9517 115.619 54.3371 116.03C53.7226 116.437 53.246 117.03 52.9075 117.812C52.5689 118.588 52.3996 119.53 52.3996 120.64C52.3996 121.78 52.5689 122.739 52.9075 123.515C53.2512 124.291 53.7304 124.877 54.345 125.272C54.9595 125.668 55.6705 125.866 56.4778 125.866C56.9309 125.866 57.3502 125.806 57.7356 125.687C58.1262 125.567 58.4726 125.392 58.7746 125.163C59.0767 124.929 59.3267 124.645 59.5246 124.312C59.7278 123.978 59.8684 123.598 59.9465 123.171L63.3684 123.187C63.2799 123.921 63.0585 124.629 62.7043 125.312C62.3554 125.989 61.884 126.595 61.2903 127.132C60.7017 127.663 59.9986 128.085 59.1809 128.397C58.3684 128.705 57.4491 128.858 56.4231 128.858C54.996 128.858 53.72 128.535 52.595 127.89C51.4752 127.244 50.5898 126.309 49.9387 125.085C49.2929 123.861 48.97 122.379 48.97 120.64C48.97 118.895 49.2981 117.41 49.9543 116.187C50.6106 114.963 51.5012 114.03 52.6262 113.39C53.7512 112.744 55.0168 112.421 56.4231 112.421C57.3502 112.421 58.2095 112.551 59.0012 112.812C59.7981 113.072 60.5038 113.452 61.1184 113.952C61.733 114.447 62.233 115.054 62.6184 115.772C63.009 116.491 63.259 117.314 63.3684 118.241ZM69.5342 128.64V112.64H75.8467C77.055 112.64 78.0863 112.856 78.9404 113.288C79.7998 113.715 80.4535 114.322 80.9014 115.108C81.3545 115.89 81.5811 116.809 81.5811 117.866C81.5811 118.929 81.3519 119.843 80.8936 120.608C80.4352 121.369 79.7712 121.952 78.9014 122.358C78.0368 122.765 76.9899 122.968 75.7607 122.968H71.5342V120.249H75.2139C75.8597 120.249 76.3962 120.16 76.8232 119.983C77.2503 119.806 77.568 119.541 77.7764 119.187C77.9899 118.832 78.0967 118.392 78.0967 117.866C78.0967 117.335 77.9899 116.887 77.7764 116.522C77.568 116.158 77.2477 115.882 76.8154 115.694C76.3883 115.502 75.8493 115.405 75.1982 115.405H72.917V128.64H69.5342ZM78.1748 121.358L82.1514 128.64H78.417L74.5264 121.358H78.1748ZM87.7117 112.64H91.8836L96.2898 123.39H96.4773L100.884 112.64H105.055V128.64H101.774V118.226H101.641L97.5007 128.562H95.2664L91.1257 118.187H90.9929V128.64H87.7117V112.64Z" fill="#787878"/>
<path d="M37.0534 103.64V92.7306H40.8674C41.6273 92.7306 42.2541 92.8619 42.7477 93.1247C43.2413 93.384 43.6088 93.7338 43.8503 94.1741C44.0918 94.6109 44.2125 95.0956 44.2125 95.6283C44.2125 96.097 44.1291 96.4841 43.9622 96.7895C43.7988 97.0949 43.5822 97.3364 43.3123 97.5139C43.046 97.6915 42.7566 97.8229 42.4441 97.9081V98.0146C42.7779 98.036 43.1135 98.1531 43.4508 98.3662C43.7882 98.5793 44.0705 98.8847 44.2978 99.2824C44.525 99.6801 44.6387 100.167 44.6387 100.742C44.6387 101.289 44.5144 101.781 44.2658 102.217C44.0172 102.654 43.6248 103 43.0886 103.256C42.5524 103.512 41.8546 103.64 40.9952 103.64H37.0534ZM38.3745 102.468H40.9952C41.8581 102.468 42.4707 102.301 42.8329 101.967C43.1987 101.63 43.3816 101.221 43.3816 100.742C43.3816 100.373 43.2875 100.032 43.0993 99.7192C42.911 99.4031 42.6429 99.151 42.2949 98.9628C41.9469 98.771 41.535 98.6752 41.0591 98.6752H38.3745V102.468ZM38.3745 97.5246H40.8248C41.2225 97.5246 41.5811 97.4465 41.9007 97.2902C42.2239 97.134 42.4796 96.9138 42.6678 96.6297C42.8596 96.3456 42.9554 96.0118 42.9554 95.6283C42.9554 95.1489 42.7885 94.7423 42.4547 94.4085C42.1209 94.0711 41.5918 93.9024 40.8674 93.9024H38.3745V97.5246ZM51.7951 100.294V95.4578H53.0522V103.64H51.7951V102.255H51.7099C51.5181 102.67 51.2198 103.024 50.815 103.315C50.4102 103.602 49.8988 103.746 49.2809 103.746C48.7695 103.746 48.315 103.634 47.9173 103.411C47.5195 103.183 47.207 102.842 46.9798 102.388C46.7525 101.93 46.6388 101.353 46.6388 100.657V95.4578H47.896V100.571C47.896 101.168 48.0629 101.644 48.3967 101.999C48.734 102.354 49.1637 102.532 49.6857 102.532C49.9982 102.532 50.3161 102.452 50.6392 102.292C50.9659 102.132 51.2393 101.887 51.4595 101.557C51.6832 101.227 51.7951 100.806 51.7951 100.294ZM55.3547 103.64V95.4578H56.6118V103.64H55.3547ZM55.9939 94.0942C55.7488 94.0942 55.5376 94.0107 55.36 93.8438C55.186 93.6769 55.099 93.4763 55.099 93.2419C55.099 93.0075 55.186 92.8069 55.36 92.64C55.5376 92.4731 55.7488 92.3896 55.9939 92.3896C56.2389 92.3896 56.4484 92.4731 56.6224 92.64C56.8 92.8069 56.8888 93.0075 56.8888 93.2419C56.8888 93.4763 56.8 93.6769 56.6224 93.8438C56.4484 94.0107 56.2389 94.0942 55.9939 94.0942ZM60.1713 92.7306V103.64H58.9142V92.7306H60.1713ZM66.032 95.4578V96.5232H61.792V95.4578H66.032ZM63.0278 93.4976H64.2849V101.296C64.2849 101.651 64.3364 101.917 64.4394 102.095C64.5459 102.269 64.6808 102.386 64.8442 102.446C65.0111 102.503 65.1869 102.532 65.3715 102.532C65.51 102.532 65.6237 102.525 65.7124 102.51C65.8012 102.493 65.8722 102.478 65.9255 102.468L66.1812 103.597C66.096 103.629 65.977 103.661 65.8243 103.693C65.6716 103.728 65.4781 103.746 65.2437 103.746C64.8886 103.746 64.5406 103.67 64.1997 103.517C63.8623 103.364 63.5818 103.132 63.358 102.819C63.1379 102.507 63.0278 102.113 63.0278 101.637V93.4976ZM72.3176 98.3769V99.5487H67.5448V98.3769H72.3176ZM76.021 92.7306V103.64H74.6999V92.7306H76.021ZM79.7563 98.7178V103.64H78.4992V95.4578H79.7137V96.7362H79.8202C80.012 96.3208 80.3032 95.9869 80.6938 95.7348C81.0844 95.4791 81.5887 95.3513 82.2066 95.3513C82.7606 95.3513 83.2453 95.4649 83.6608 95.6922C84.0763 95.9159 84.3994 96.2568 84.6302 96.7149C84.8611 97.1695 84.9765 97.7448 84.9765 98.4408V103.64H83.7194V98.526C83.7194 97.8833 83.5525 97.3825 83.2187 97.0239C82.8849 96.6617 82.4268 96.4806 81.8444 96.4806C81.4431 96.4806 81.0844 96.5676 80.7684 96.7416C80.4559 96.9156 80.2091 97.1695 80.028 97.5033C79.8469 97.8371 79.7563 98.2419 79.7563 98.7178ZM91.6628 92.7306H93.2395L96.9469 101.786H97.0748L100.782 92.7306H102.359V103.64H101.123V95.3513H101.017L97.6074 103.64H96.4142L93.0051 95.3513H92.8986V103.64H91.6628V92.7306ZM104.837 103.64V95.4578H106.094V103.64H104.837ZM105.476 94.0942C105.231 94.0942 105.02 94.0107 104.842 93.8438C104.668 93.6769 104.581 93.4763 104.581 93.2419C104.581 93.0075 104.668 92.8069 104.842 92.64C105.02 92.4731 105.231 92.3896 105.476 92.3896C105.721 92.3896 105.931 92.4731 106.105 92.64C106.282 92.8069 106.371 93.0075 106.371 93.2419C106.371 93.4763 106.282 93.6769 106.105 93.8438C105.931 94.0107 105.721 94.0942 105.476 94.0942ZM109.654 98.7178V103.64H108.397V95.4578H109.611V96.7362H109.718C109.909 96.3208 110.201 95.9869 110.591 95.7348C110.982 95.4791 111.486 95.3513 112.104 95.3513C112.658 95.3513 113.143 95.4649 113.558 95.6922C113.974 95.9159 114.297 96.2568 114.528 96.7149C114.759 97.1695 114.874 97.7448 114.874 98.4408V103.64H113.617V98.526C113.617 97.8833 113.45 97.3825 113.116 97.0239C112.782 96.6617 112.324 96.4806 111.742 96.4806C111.341 96.4806 110.982 96.5676 110.666 96.7416C110.353 96.9156 110.107 97.1695 109.925 97.5033C109.744 97.8371 109.654 98.2419 109.654 98.7178ZM117.171 103.64V95.4578H118.428V103.64H117.171ZM117.81 94.0942C117.565 94.0942 117.354 94.0107 117.176 93.8438C117.002 93.6769 116.915 93.4763 116.915 93.2419C116.915 93.0075 117.002 92.8069 117.176 92.64C117.354 92.4731 117.565 92.3896 117.81 92.3896C118.055 92.3896 118.265 92.4731 118.439 92.64C118.616 92.8069 118.705 93.0075 118.705 93.2419C118.705 93.4763 118.616 93.6769 118.439 93.8438C118.265 94.0107 118.055 94.0942 117.81 94.0942Z" fill="#787878"/>
<path d="M92.5916 55.932H87.3062C85.8622 55.932 84.6275 56.9541 84.3205 58.3295C84.0478 58.3346 83.7717 58.4049 83.5265 58.5576L83.3636 58.6588V55.4844C83.3636 53.7935 81.9899 52.4198 80.2989 52.4198H75.0135C73.3226 52.4198 71.9489 53.7935 71.9489 55.4844V58.6622L71.7911 58.561C71.5459 58.4067 71.2732 58.3329 70.9971 58.3329C70.6884 56.9421 69.464 55.932 68.0063 55.932H62.7209C61.0299 55.932 59.6562 57.3056 59.6562 58.9966V67.7858C59.6562 68.374 59.8843 68.9228 60.3011 69.3396C60.6132 69.6465 60.9939 69.8541 61.4123 69.9364V77.4445C61.4123 78.657 62.395 79.6396 63.6075 79.6396H67.1197C68.3321 79.6396 69.3148 78.657 69.3148 77.4445V76.2064L69.903 76.7946C70.4072 77.2987 71.1806 77.3879 71.786 77.0089L73.1288 76.1652C73.314 76.0503 73.5421 76.0331 73.7256 76.1206C73.9846 76.2441 74.2521 76.3572 74.5282 76.455C74.722 76.5253 74.8712 76.6968 74.9192 76.9077L75.2742 78.458C75.4388 79.156 76.0493 79.6396 76.761 79.6396H78.5514C79.2631 79.6396 79.8736 79.156 80.0348 78.458L80.3898 76.9129C80.4378 76.7019 80.587 76.5304 80.7808 76.4601C81.0535 76.3641 81.3211 76.2492 81.58 76.1257C81.7686 76.0383 81.9933 76.0503 82.1768 76.1703L83.5247 77.0141C84.1301 77.3914 84.9035 77.3039 85.4078 76.7997L85.9977 76.2063V77.4445C85.9977 78.6569 86.9804 79.6396 88.1928 79.6396H91.705C92.9175 79.6396 93.9002 78.6569 93.9002 77.4445V69.9363C94.9017 69.734 95.6563 68.8473 95.6563 67.7858V58.9966C95.6563 57.3056 94.2826 55.932 92.5916 55.932ZM72.8267 55.4844C72.8267 54.2823 73.806 53.2979 75.0133 53.2979H80.304C81.5062 53.2979 82.4905 54.2771 82.4905 55.4844V59.2076L82.1836 59.4014C81.9984 59.5163 81.7754 59.5334 81.5868 59.446C81.3278 59.3225 81.0551 59.2127 80.7876 59.1115C80.5938 59.0412 80.4446 58.8697 80.3966 58.6588L80.0416 57.1137C79.8735 56.4157 79.263 55.9321 78.5513 55.9321H76.761C76.0493 55.9321 75.4388 56.4157 75.2775 57.1137L74.9225 58.6588C74.8745 58.8698 74.7253 59.0412 74.5315 59.1115C74.2589 59.2076 73.9913 59.3225 73.729 59.446C73.5437 59.5334 73.3157 59.5163 73.1322 59.4014L72.8269 59.211L72.8267 55.4844ZM68.4365 77.4444C68.4365 78.168 67.8431 78.7614 67.1194 78.7614H63.6072C62.8835 78.7614 62.2902 78.168 62.2902 77.4444V69.542C62.2902 69.3001 62.0929 69.1029 61.8511 69.1029C61.4996 69.1029 61.1703 68.9674 60.9199 68.7171C60.6695 68.4701 60.5341 68.1374 60.5341 67.7859V58.9966C60.5341 57.7893 61.5133 56.8101 62.7206 56.8101H68.006C69.0642 56.8101 69.9474 57.5612 70.1446 58.5799C70.0605 58.6364 69.9782 58.6982 69.9079 58.7736L68.6474 60.0341C68.1432 60.5383 68.054 61.3118 68.4331 61.9171L69.2768 63.2599C69.3917 63.4451 69.4089 63.6732 69.3214 63.8567C69.1979 64.1157 69.0847 64.3883 68.987 64.6593C68.9167 64.8531 68.7452 65.0023 68.5343 65.0503L66.984 65.4053C66.286 65.5682 65.8024 66.1787 65.8024 66.8904V68.6808C65.8024 69.3925 66.286 70.003 66.984 70.1642L68.5291 70.5192C68.7401 70.5672 68.9116 70.7164 68.9819 70.9102C69.0779 71.1829 69.1928 71.4504 69.3163 71.7094C69.4037 71.898 69.3917 72.1227 69.2717 72.3062L68.4279 73.6541C68.0815 74.2115 68.1329 74.9146 68.5428 75.4153C68.4811 75.4908 68.4365 75.5834 68.4365 75.688L68.4365 77.4444ZM84.7849 76.1805C84.5739 76.3948 84.2447 76.4308 83.9909 76.2731L82.6429 75.4293C82.2039 75.1532 81.6637 75.1223 81.2075 75.3367C80.9743 75.4465 80.7291 75.5476 80.4873 75.6351C80.0088 75.8066 79.6538 76.2096 79.5389 76.7155L79.1839 78.2606C79.1084 78.5556 78.8546 78.7614 78.5511 78.7614H76.7607C76.4572 78.7614 76.2034 78.5556 76.133 78.2606L75.778 76.7104C75.6597 76.2062 75.3082 75.8014 74.8297 75.63C74.5844 75.5425 74.3426 75.4413 74.1094 75.3316C73.907 75.2355 73.6927 75.1909 73.4766 75.1909C73.1953 75.1909 72.9193 75.2698 72.6689 75.4242L71.3261 76.2679C71.0723 76.4308 70.743 76.3914 70.5321 76.1753L69.2682 74.9148C69.0538 74.7005 69.0178 74.3746 69.1755 74.1208L70.0193 72.7729C70.2954 72.3339 70.3263 71.7937 70.1119 71.3375C70.0022 71.1043 69.901 70.8591 69.8135 70.6172C69.642 70.1388 69.239 69.7838 68.7331 69.6689L67.188 69.3139C66.8861 69.2384 66.6804 68.9846 66.6804 68.6811V66.8907C66.6804 66.5872 66.8862 66.3334 67.1811 66.263L68.7314 65.908C69.2356 65.7897 69.6403 65.4381 69.8118 64.9597C69.8993 64.7144 70.0004 64.4726 70.1102 64.2394C70.3297 63.7781 70.2954 63.2379 70.0176 62.7989L69.1738 61.4561C69.0161 61.2023 69.0504 60.873 69.2664 60.6621L70.5269 59.4016C70.7413 59.1872 71.0671 59.1512 71.3209 59.309L72.6637 60.1527C73.1079 60.4288 73.643 60.4649 74.1043 60.2453C74.3375 60.1356 74.5776 60.0344 74.8245 59.9469C75.303 59.7755 75.6546 59.3724 75.7729 58.8666L76.1279 57.3214C76.1931 57.0264 76.452 56.8207 76.7556 56.8207H78.546C78.8495 56.8207 79.1033 57.0265 79.1736 57.3214L79.5286 58.8666C79.647 59.3707 79.9985 59.7755 80.477 59.9469C80.7222 60.0344 80.9641 60.1356 81.1973 60.2453C81.6586 60.4597 82.1936 60.4306 82.6327 60.1527L83.9806 59.309C84.2344 59.1512 84.5637 59.1855 84.7746 59.4016L86.0385 60.6655C86.2529 60.8799 86.2889 61.2057 86.1311 61.4595L85.2874 62.8023C85.0113 63.2465 84.9752 63.7815 85.1948 64.2428C85.3045 64.4761 85.4057 64.7161 85.4932 64.9631C85.6647 65.4415 86.0677 65.7931 86.5736 65.9115L88.1187 66.2665C88.4137 66.3316 88.6195 66.5906 88.6195 66.8941V68.6845C88.6195 68.988 88.4137 69.2418 88.1187 69.3122L86.5736 69.6672C86.0694 69.7855 85.6646 70.137 85.4932 70.6155C85.4057 70.8608 85.3045 71.1026 85.1948 71.3358C84.9804 71.7971 85.0095 72.3322 85.2874 72.7712L86.1311 74.1191C86.2889 74.3729 86.2546 74.7022 86.0385 74.9131L84.7849 76.1805ZM94.778 67.7859C94.778 68.5096 94.1846 69.103 93.4609 69.103C93.2191 69.103 93.0219 69.3002 93.0219 69.542V77.4444C93.0219 78.1681 92.4285 78.7615 91.7048 78.7615H88.1926C87.4689 78.7615 86.8755 78.1681 86.8755 77.4444V75.6883C86.8755 75.5837 86.8309 75.4911 86.7709 75.4156C87.1791 74.9149 87.2322 74.2135 86.8858 73.6544L86.042 72.3082C85.9271 72.123 85.91 71.9 85.9975 71.7114C86.1209 71.4524 86.2307 71.1798 86.3319 70.9122C86.4022 70.7184 86.5737 70.5692 86.7846 70.5212L88.3297 70.1662C89.026 70.0033 89.5096 69.3928 89.5096 68.6811V66.8907C89.5096 66.179 89.026 65.5685 88.328 65.4073L86.7829 65.0523C86.5719 65.0043 86.4005 64.8551 86.3302 64.6613C86.2341 64.3887 86.1192 64.1211 85.9957 63.8587C85.9083 63.6735 85.9254 63.4454 86.0403 63.2619L86.8841 61.9191C87.2614 61.3138 87.1739 60.5404 86.6697 60.0361L85.4058 58.7722C85.3304 58.6968 85.2515 58.6368 85.1692 58.5784C85.3664 57.5683 86.2582 56.8087 87.3077 56.8087H92.5931C93.8004 56.8087 94.7797 57.7879 94.7797 58.9952L94.778 67.7859ZM77.656 62.9567C74.991 62.9567 72.8267 65.1209 72.8267 67.7859C72.8267 70.4509 74.991 72.6152 77.656 72.6152C80.321 72.6152 82.4853 70.4509 82.4853 67.7859C82.4853 65.1209 80.321 62.9567 77.656 62.9567ZM77.656 71.7371C75.4781 71.7371 73.7048 69.9639 73.7048 67.7859C73.7048 65.608 75.4781 63.8347 77.656 63.8347C79.834 63.8347 81.6072 65.608 81.6072 67.7859C81.6072 69.9639 79.834 71.7371 77.656 71.7371ZM65.42 55.0542C67.5979 55.0542 69.3712 53.281 69.3712 51.103C69.3712 48.9251 67.5979 47.1518 65.42 47.1518C63.242 47.1518 61.4687 48.9251 61.4687 51.103C61.4687 53.281 63.2385 55.0542 65.42 55.0542ZM65.42 48.0299C67.1143 48.0299 68.4931 49.4087 68.4931 51.103C68.4931 52.7974 67.1143 54.1762 65.42 54.1762C63.7256 54.1762 62.3468 52.7974 62.3468 51.103C62.3468 49.4087 63.7256 48.0299 65.42 48.0299ZM90.0053 55.0542C92.1833 55.0542 93.9565 53.281 93.9565 51.103C93.9565 48.9251 92.1833 47.1518 90.0053 47.1518C87.8274 47.1518 86.0541 48.9251 86.0541 51.103C86.0541 53.281 87.8239 55.0542 90.0053 55.0542ZM90.0053 48.0299C91.6997 48.0299 93.0785 49.4087 93.0785 51.103C93.0785 52.7974 91.6997 54.1762 90.0053 54.1762C88.311 54.1762 86.9322 52.7974 86.9322 51.103C86.9322 49.4087 88.311 48.0299 90.0053 48.0299ZM77.7126 51.5421C79.8906 51.5421 81.6639 49.7688 81.6639 47.5909C81.6639 45.4129 79.8906 43.6396 77.7126 43.6396C75.5347 43.6396 73.7614 45.4129 73.7614 47.5909C73.7614 49.7688 75.5312 51.5421 77.7126 51.5421ZM77.7126 44.5177C79.407 44.5177 80.7858 45.8965 80.7858 47.5909C80.7858 49.2852 79.407 50.664 77.7126 50.664C76.0183 50.664 74.6395 49.2852 74.6395 47.5909C74.6395 45.8965 76.0183 44.5177 77.7126 44.5177Z" fill="#787878"/>
</svg>
