<svg width="105" height="102" viewBox="0 0 105 102" fill="none" xmlns="http://www.w3.org/2000/svg">
<mask id="path-1-outside-1_627_240" maskUnits="userSpaceOnUse" x="-4.41485e-06" y="-4.54598e-06" width="105" height="102" fill="black">
<rect fill="white" x="-4.41485e-06" y="-4.54598e-06" width="105" height="102"/>
<path d="M104 93.621L104 8.35912C104 4.29998 100.709 1 96.661 1L51.1194 0.999998C47.4673 0.999998 44.4388 3.68957 43.8796 7.19294C41.5983 7.2376 39.312 7.45097 37.0703 7.85292C36.62 7.93231 36.3231 8.369 36.4023 8.81064C37.2782 13.6986 35.3878 18.1398 31.8248 19.6086C28.2618 21.0774 23.8081 19.2513 20.9972 15.1673C20.8735 14.9887 20.6805 14.8646 20.4677 14.8249C20.2549 14.7852 20.0323 14.8349 19.8541 14.9589C15.5637 17.9313 11.872 21.6134 8.88807 25.9057C8.6258 26.2829 8.71982 26.794 9.09097 27.057C13.1488 29.8955 14.9501 34.3714 13.4655 37.9343C11.9809 41.5022 7.54694 43.368 2.67758 42.4748C2.23221 42.3905 1.80168 42.6882 1.71756 43.1398C1.23755 45.7499 1.00001 48.3799 1.00001 51.0099C1.00001 53.5655 1.22765 56.1161 1.67302 58.6568C1.71261 58.8751 1.83633 59.0637 2.01447 59.1878C2.19261 59.3118 2.41531 59.3614 2.62811 59.3217C7.50253 58.4484 11.9315 60.339 13.3963 63.9119C14.861 67.4848 13.04 71.9508 8.96725 74.7744C8.78911 74.8984 8.66539 75.087 8.6258 75.3053C8.58621 75.5187 8.63569 75.742 8.75941 75.9256C11.7236 80.2279 15.3955 83.9298 19.676 86.917C20.0472 87.1751 20.5618 87.0857 20.8192 86.7136C23.6547 82.6445 28.1134 80.8432 31.6714 82.3269C35.2245 83.8157 37.0851 88.2619 36.1994 93.1447C36.1202 93.5814 36.4122 94.023 36.8625 94.1074C39.1685 94.5341 41.5241 94.7574 43.8747 94.8071C44.4339 98.3104 47.4624 101 51.1144 101L96.6612 100.98C100.709 100.98 104 97.6801 104 93.621ZM32.3093 80.7879C28.2416 79.0859 23.2682 80.8524 19.9675 85.0852C16.3451 82.4503 13.1928 79.2744 10.5799 75.6321C14.816 72.3421 16.6024 67.3649 14.9248 63.2759C13.2473 59.1869 8.48672 56.9093 3.167 57.5643C2.4643 53.133 2.47914 48.6521 3.20164 44.2206C8.51642 44.9004 13.2868 42.6475 14.9843 38.5636C16.6767 34.4896 14.9199 29.4976 10.6988 26.1877C13.3265 22.5552 16.4936 19.3942 20.1308 16.7741C23.4068 21.0219 28.3702 22.8132 32.4529 21.131C36.5306 19.4489 38.797 14.6801 38.1487 9.34071C40.0044 9.04793 41.8898 8.89906 43.7753 8.85936L43.7753 26.366C30.6521 26.8573 20.1005 37.7197 20.1005 50.9891C20.1005 64.2585 30.6509 75.1206 43.7753 75.6123L43.7753 93.1189C41.8255 93.0742 39.8709 92.9204 37.9507 92.6028C38.6237 87.2733 36.377 82.49 32.3093 80.7879ZM43.7752 28.0139L43.7752 73.9598C31.5572 73.4685 21.7486 63.3504 21.7486 50.9894C21.7486 38.6284 31.5568 28.5106 43.7752 28.0139ZM51.114 99.3324C47.9716 99.3324 45.4182 96.7719 45.4182 93.6208L45.4231 8.35899C45.4231 5.20789 47.9766 2.64738 51.119 2.64738L96.6607 2.64738C99.8031 2.64738 102.356 5.2079 102.356 8.35899L102.356 93.6208C102.356 96.7719 99.803 99.3324 96.6606 99.3324L51.114 99.3324ZM72.0866 22.3177L92.0786 22.3177C92.5339 22.3177 92.9001 21.9505 92.9001 21.4939C92.9001 21.0374 92.5339 20.6702 92.0786 20.6702L72.0917 20.6702C71.6859 17.8367 69.2758 15.6484 66.3463 15.6484C63.4118 15.6484 61.0017 17.8418 60.6009 20.6702L55.7067 20.6702C55.2514 20.6702 54.8852 21.0374 54.8852 21.4939C54.8852 21.9505 55.2514 22.3177 55.7067 22.3177L60.6009 22.3177C61.0067 25.1512 63.4167 27.3395 66.3463 27.3395C69.2709 27.3395 71.6858 25.1461 72.0866 22.3177ZM62.1548 21.489C62.1548 19.1766 64.0304 17.2909 66.3413 17.2909C68.6474 17.2909 70.5279 19.1716 70.5279 21.489C70.5279 23.8014 68.6523 25.6871 66.3413 25.6871C64.0353 25.6871 62.1548 23.8063 62.1548 21.489ZM72.0866 61.6484L92.0786 61.6484C92.5339 61.6484 92.9001 61.2812 92.9001 60.8247C92.9001 60.3682 92.5339 60.001 92.0786 60.001L72.0917 60.001C71.6859 57.1674 69.2758 54.9791 66.3463 54.9791C63.4118 54.9791 61.0017 57.1725 60.6009 60.001L55.7067 60.001C55.2514 60.001 54.8852 60.3682 54.8852 60.8247C54.8852 61.2812 55.2514 61.6484 55.7067 61.6484L60.6009 61.6484C61.0067 64.477 63.4167 66.6703 66.3463 66.6703C69.2709 66.6703 71.6858 64.4769 72.0866 61.6484ZM62.1548 60.8247C62.1548 58.5123 64.0304 56.6266 66.3413 56.6266C68.6474 56.6266 70.5279 58.5073 70.5279 60.8247C70.5279 63.1371 68.6523 65.0179 66.3413 65.0179C64.0353 65.0179 62.1548 63.1371 62.1548 60.8247ZM81.2714 41.9829L92.0742 41.9829C92.5294 41.9829 92.8956 41.6157 92.8956 41.1592C92.8956 40.7026 92.5294 40.3354 92.0742 40.3354L81.2714 40.3354C80.8657 37.5019 78.4556 35.3136 75.5261 35.3136C72.5915 35.3136 70.1815 37.507 69.7807 40.3354L55.7023 40.3354C55.247 40.3354 54.8808 40.7026 54.8808 41.1592C54.8808 41.6157 55.247 41.9829 55.7023 41.9829L69.7756 41.9829C70.1814 44.8164 72.5914 47.0047 75.521 47.0047C78.4555 47.0047 80.8706 44.8114 81.2714 41.9829ZM71.3397 41.1542C71.3397 38.8418 73.2152 36.9561 75.5262 36.9561C77.8322 36.9561 79.7127 38.8369 79.7127 41.1542C79.7127 43.4666 77.8372 45.3523 75.5262 45.3523C73.2202 45.3523 71.3397 43.4716 71.3397 41.1542ZM81.2714 81.3137L92.0742 81.3137C92.5294 81.3137 92.8956 80.9465 92.8956 80.4899C92.8956 80.0334 92.5294 79.6662 92.0742 79.6662L81.2714 79.6662C80.8657 76.8327 78.4556 74.6444 75.5261 74.6444C72.5915 74.6444 70.1815 76.8378 69.7807 79.6662L55.7023 79.6662C55.247 79.6662 54.8808 80.0334 54.8808 80.4899C54.8808 80.9465 55.247 81.3137 55.7023 81.3137L69.7756 81.3137C70.1814 84.1422 72.5914 86.3355 75.521 86.3355C78.4555 86.3355 80.8706 84.1471 81.2714 81.3137ZM71.3397 80.4899C71.3397 78.1775 73.2152 76.2918 75.5262 76.2918C77.8322 76.2918 79.7127 78.1726 79.7127 80.4899C79.7127 82.8024 77.8372 84.6831 75.5262 84.6831C73.2202 84.6831 71.3397 82.8024 71.3397 80.4899Z"/>
</mask>
<path d="M104 93.621L104 8.35912C104 4.29998 100.709 1 96.661 1L51.1194 0.999998C47.4673 0.999998 44.4388 3.68957 43.8796 7.19294C41.5983 7.2376 39.312 7.45097 37.0703 7.85292C36.62 7.93231 36.3231 8.369 36.4023 8.81064C37.2782 13.6986 35.3878 18.1398 31.8248 19.6086C28.2618 21.0774 23.8081 19.2513 20.9972 15.1673C20.8735 14.9887 20.6805 14.8646 20.4677 14.8249C20.2549 14.7852 20.0323 14.8349 19.8541 14.9589C15.5637 17.9313 11.872 21.6134 8.88807 25.9057C8.6258 26.2829 8.71982 26.794 9.09097 27.057C13.1488 29.8955 14.9501 34.3714 13.4655 37.9343C11.9809 41.5022 7.54694 43.368 2.67758 42.4748C2.23221 42.3905 1.80168 42.6882 1.71756 43.1398C1.23755 45.7499 1.00001 48.3799 1.00001 51.0099C1.00001 53.5655 1.22765 56.1161 1.67302 58.6568C1.71261 58.8751 1.83633 59.0637 2.01447 59.1878C2.19261 59.3118 2.41531 59.3614 2.62811 59.3217C7.50253 58.4484 11.9315 60.339 13.3963 63.9119C14.861 67.4848 13.04 71.9508 8.96725 74.7744C8.78911 74.8984 8.66539 75.087 8.6258 75.3053C8.58621 75.5187 8.63569 75.742 8.75941 75.9256C11.7236 80.2279 15.3955 83.9298 19.676 86.917C20.0472 87.1751 20.5618 87.0857 20.8192 86.7136C23.6547 82.6445 28.1134 80.8432 31.6714 82.3269C35.2245 83.8157 37.0851 88.2619 36.1994 93.1447C36.1202 93.5814 36.4122 94.023 36.8625 94.1074C39.1685 94.5341 41.5241 94.7574 43.8747 94.8071C44.4339 98.3104 47.4624 101 51.1144 101L96.6612 100.98C100.709 100.98 104 97.6801 104 93.621ZM32.3093 80.7879C28.2416 79.0859 23.2682 80.8524 19.9675 85.0852C16.3451 82.4503 13.1928 79.2744 10.5799 75.6321C14.816 72.3421 16.6024 67.3649 14.9248 63.2759C13.2473 59.1869 8.48672 56.9093 3.167 57.5643C2.4643 53.133 2.47914 48.6521 3.20164 44.2206C8.51642 44.9004 13.2868 42.6475 14.9843 38.5636C16.6767 34.4896 14.9199 29.4976 10.6988 26.1877C13.3265 22.5552 16.4936 19.3942 20.1308 16.7741C23.4068 21.0219 28.3702 22.8132 32.4529 21.131C36.5306 19.4489 38.797 14.6801 38.1487 9.34071C40.0044 9.04793 41.8898 8.89906 43.7753 8.85936L43.7753 26.366C30.6521 26.8573 20.1005 37.7197 20.1005 50.9891C20.1005 64.2585 30.6509 75.1206 43.7753 75.6123L43.7753 93.1189C41.8255 93.0742 39.8709 92.9204 37.9507 92.6028C38.6237 87.2733 36.377 82.49 32.3093 80.7879ZM43.7752 28.0139L43.7752 73.9598C31.5572 73.4685 21.7486 63.3504 21.7486 50.9894C21.7486 38.6284 31.5568 28.5106 43.7752 28.0139ZM51.114 99.3324C47.9716 99.3324 45.4182 96.7719 45.4182 93.6208L45.4231 8.35899C45.4231 5.20789 47.9766 2.64738 51.119 2.64738L96.6607 2.64738C99.8031 2.64738 102.356 5.2079 102.356 8.35899L102.356 93.6208C102.356 96.7719 99.803 99.3324 96.6606 99.3324L51.114 99.3324ZM72.0866 22.3177L92.0786 22.3177C92.5339 22.3177 92.9001 21.9505 92.9001 21.4939C92.9001 21.0374 92.5339 20.6702 92.0786 20.6702L72.0917 20.6702C71.6859 17.8367 69.2758 15.6484 66.3463 15.6484C63.4118 15.6484 61.0017 17.8418 60.6009 20.6702L55.7067 20.6702C55.2514 20.6702 54.8852 21.0374 54.8852 21.4939C54.8852 21.9505 55.2514 22.3177 55.7067 22.3177L60.6009 22.3177C61.0067 25.1512 63.4167 27.3395 66.3463 27.3395C69.2709 27.3395 71.6858 25.1461 72.0866 22.3177ZM62.1548 21.489C62.1548 19.1766 64.0304 17.2909 66.3413 17.2909C68.6474 17.2909 70.5279 19.1716 70.5279 21.489C70.5279 23.8014 68.6523 25.6871 66.3413 25.6871C64.0353 25.6871 62.1548 23.8063 62.1548 21.489ZM72.0866 61.6484L92.0786 61.6484C92.5339 61.6484 92.9001 61.2812 92.9001 60.8247C92.9001 60.3682 92.5339 60.001 92.0786 60.001L72.0917 60.001C71.6859 57.1674 69.2758 54.9791 66.3463 54.9791C63.4118 54.9791 61.0017 57.1725 60.6009 60.001L55.7067 60.001C55.2514 60.001 54.8852 60.3682 54.8852 60.8247C54.8852 61.2812 55.2514 61.6484 55.7067 61.6484L60.6009 61.6484C61.0067 64.477 63.4167 66.6703 66.3463 66.6703C69.2709 66.6703 71.6858 64.4769 72.0866 61.6484ZM62.1548 60.8247C62.1548 58.5123 64.0304 56.6266 66.3413 56.6266C68.6474 56.6266 70.5279 58.5073 70.5279 60.8247C70.5279 63.1371 68.6523 65.0179 66.3413 65.0179C64.0353 65.0179 62.1548 63.1371 62.1548 60.8247ZM81.2714 41.9829L92.0742 41.9829C92.5294 41.9829 92.8956 41.6157 92.8956 41.1592C92.8956 40.7026 92.5294 40.3354 92.0742 40.3354L81.2714 40.3354C80.8657 37.5019 78.4556 35.3136 75.5261 35.3136C72.5915 35.3136 70.1815 37.507 69.7807 40.3354L55.7023 40.3354C55.247 40.3354 54.8808 40.7026 54.8808 41.1592C54.8808 41.6157 55.247 41.9829 55.7023 41.9829L69.7756 41.9829C70.1814 44.8164 72.5914 47.0047 75.521 47.0047C78.4555 47.0047 80.8706 44.8114 81.2714 41.9829ZM71.3397 41.1542C71.3397 38.8418 73.2152 36.9561 75.5262 36.9561C77.8322 36.9561 79.7127 38.8369 79.7127 41.1542C79.7127 43.4666 77.8372 45.3523 75.5262 45.3523C73.2202 45.3523 71.3397 43.4716 71.3397 41.1542ZM81.2714 81.3137L92.0742 81.3137C92.5294 81.3137 92.8956 80.9465 92.8956 80.4899C92.8956 80.0334 92.5294 79.6662 92.0742 79.6662L81.2714 79.6662C80.8657 76.8327 78.4556 74.6444 75.5261 74.6444C72.5915 74.6444 70.1815 76.8378 69.7807 79.6662L55.7023 79.6662C55.247 79.6662 54.8808 80.0334 54.8808 80.4899C54.8808 80.9465 55.247 81.3137 55.7023 81.3137L69.7756 81.3137C70.1814 84.1422 72.5914 86.3355 75.521 86.3355C78.4555 86.3355 80.8706 84.1471 81.2714 81.3137ZM71.3397 80.4899C71.3397 78.1775 73.2152 76.2918 75.5262 76.2918C77.8322 76.2918 79.7127 78.1726 79.7127 80.4899C79.7127 82.8024 77.8372 84.6831 75.5262 84.6831C73.2202 84.6831 71.3397 82.8024 71.3397 80.4899Z" fill="#6524EB"/>
<path d="M104 93.621L104 8.35912C104 4.29998 100.709 1 96.661 1L51.1194 0.999998C47.4673 0.999998 44.4388 3.68957 43.8796 7.19294C41.5983 7.2376 39.312 7.45097 37.0703 7.85292C36.62 7.93231 36.3231 8.369 36.4023 8.81064C37.2782 13.6986 35.3878 18.1398 31.8248 19.6086C28.2618 21.0774 23.8081 19.2513 20.9972 15.1673C20.8735 14.9887 20.6805 14.8646 20.4677 14.8249C20.2549 14.7852 20.0323 14.8349 19.8541 14.9589C15.5637 17.9313 11.872 21.6134 8.88807 25.9057C8.6258 26.2829 8.71982 26.794 9.09097 27.057C13.1488 29.8955 14.9501 34.3714 13.4655 37.9343C11.9809 41.5022 7.54694 43.368 2.67758 42.4748C2.23221 42.3905 1.80168 42.6882 1.71756 43.1398C1.23755 45.7499 1.00001 48.3799 1.00001 51.0099C1.00001 53.5655 1.22765 56.1161 1.67302 58.6568C1.71261 58.8751 1.83633 59.0637 2.01447 59.1878C2.19261 59.3118 2.41531 59.3614 2.62811 59.3217C7.50253 58.4484 11.9315 60.339 13.3963 63.9119C14.861 67.4848 13.04 71.9508 8.96725 74.7744C8.78911 74.8984 8.66539 75.087 8.6258 75.3053C8.58621 75.5187 8.63569 75.742 8.75941 75.9256C11.7236 80.2279 15.3955 83.9298 19.676 86.917C20.0472 87.1751 20.5618 87.0857 20.8192 86.7136C23.6547 82.6445 28.1134 80.8432 31.6714 82.3269C35.2245 83.8157 37.0851 88.2619 36.1994 93.1447C36.1202 93.5814 36.4122 94.023 36.8625 94.1074C39.1685 94.5341 41.5241 94.7574 43.8747 94.8071C44.4339 98.3104 47.4624 101 51.1144 101L96.6612 100.98C100.709 100.98 104 97.6801 104 93.621ZM32.3093 80.7879C28.2416 79.0859 23.2682 80.8524 19.9675 85.0852C16.3451 82.4503 13.1928 79.2744 10.5799 75.6321C14.816 72.3421 16.6024 67.3649 14.9248 63.2759C13.2473 59.1869 8.48672 56.9093 3.167 57.5643C2.4643 53.133 2.47914 48.6521 3.20164 44.2206C8.51642 44.9004 13.2868 42.6475 14.9843 38.5636C16.6767 34.4896 14.9199 29.4976 10.6988 26.1877C13.3265 22.5552 16.4936 19.3942 20.1308 16.7741C23.4068 21.0219 28.3702 22.8132 32.4529 21.131C36.5306 19.4489 38.797 14.6801 38.1487 9.34071C40.0044 9.04793 41.8898 8.89906 43.7753 8.85936L43.7753 26.366C30.6521 26.8573 20.1005 37.7197 20.1005 50.9891C20.1005 64.2585 30.6509 75.1206 43.7753 75.6123L43.7753 93.1189C41.8255 93.0742 39.8709 92.9204 37.9507 92.6028C38.6237 87.2733 36.377 82.49 32.3093 80.7879ZM43.7752 28.0139L43.7752 73.9598C31.5572 73.4685 21.7486 63.3504 21.7486 50.9894C21.7486 38.6284 31.5568 28.5106 43.7752 28.0139ZM51.114 99.3324C47.9716 99.3324 45.4182 96.7719 45.4182 93.6208L45.4231 8.35899C45.4231 5.20789 47.9766 2.64738 51.119 2.64738L96.6607 2.64738C99.8031 2.64738 102.356 5.2079 102.356 8.35899L102.356 93.6208C102.356 96.7719 99.803 99.3324 96.6606 99.3324L51.114 99.3324ZM72.0866 22.3177L92.0786 22.3177C92.5339 22.3177 92.9001 21.9505 92.9001 21.4939C92.9001 21.0374 92.5339 20.6702 92.0786 20.6702L72.0917 20.6702C71.6859 17.8367 69.2758 15.6484 66.3463 15.6484C63.4118 15.6484 61.0017 17.8418 60.6009 20.6702L55.7067 20.6702C55.2514 20.6702 54.8852 21.0374 54.8852 21.4939C54.8852 21.9505 55.2514 22.3177 55.7067 22.3177L60.6009 22.3177C61.0067 25.1512 63.4167 27.3395 66.3463 27.3395C69.2709 27.3395 71.6858 25.1461 72.0866 22.3177ZM62.1548 21.489C62.1548 19.1766 64.0304 17.2909 66.3413 17.2909C68.6474 17.2909 70.5279 19.1716 70.5279 21.489C70.5279 23.8014 68.6523 25.6871 66.3413 25.6871C64.0353 25.6871 62.1548 23.8063 62.1548 21.489ZM72.0866 61.6484L92.0786 61.6484C92.5339 61.6484 92.9001 61.2812 92.9001 60.8247C92.9001 60.3682 92.5339 60.001 92.0786 60.001L72.0917 60.001C71.6859 57.1674 69.2758 54.9791 66.3463 54.9791C63.4118 54.9791 61.0017 57.1725 60.6009 60.001L55.7067 60.001C55.2514 60.001 54.8852 60.3682 54.8852 60.8247C54.8852 61.2812 55.2514 61.6484 55.7067 61.6484L60.6009 61.6484C61.0067 64.477 63.4167 66.6703 66.3463 66.6703C69.2709 66.6703 71.6858 64.4769 72.0866 61.6484ZM62.1548 60.8247C62.1548 58.5123 64.0304 56.6266 66.3413 56.6266C68.6474 56.6266 70.5279 58.5073 70.5279 60.8247C70.5279 63.1371 68.6523 65.0179 66.3413 65.0179C64.0353 65.0179 62.1548 63.1371 62.1548 60.8247ZM81.2714 41.9829L92.0742 41.9829C92.5294 41.9829 92.8956 41.6157 92.8956 41.1592C92.8956 40.7026 92.5294 40.3354 92.0742 40.3354L81.2714 40.3354C80.8657 37.5019 78.4556 35.3136 75.5261 35.3136C72.5915 35.3136 70.1815 37.507 69.7807 40.3354L55.7023 40.3354C55.247 40.3354 54.8808 40.7026 54.8808 41.1592C54.8808 41.6157 55.247 41.9829 55.7023 41.9829L69.7756 41.9829C70.1814 44.8164 72.5914 47.0047 75.521 47.0047C78.4555 47.0047 80.8706 44.8114 81.2714 41.9829ZM71.3397 41.1542C71.3397 38.8418 73.2152 36.9561 75.5262 36.9561C77.8322 36.9561 79.7127 38.8369 79.7127 41.1542C79.7127 43.4666 77.8372 45.3523 75.5262 45.3523C73.2202 45.3523 71.3397 43.4716 71.3397 41.1542ZM81.2714 81.3137L92.0742 81.3137C92.5294 81.3137 92.8956 80.9465 92.8956 80.4899C92.8956 80.0334 92.5294 79.6662 92.0742 79.6662L81.2714 79.6662C80.8657 76.8327 78.4556 74.6444 75.5261 74.6444C72.5915 74.6444 70.1815 76.8378 69.7807 79.6662L55.7023 79.6662C55.247 79.6662 54.8808 80.0334 54.8808 80.4899C54.8808 80.9465 55.247 81.3137 55.7023 81.3137L69.7756 81.3137C70.1814 84.1422 72.5914 86.3355 75.521 86.3355C78.4555 86.3355 80.8706 84.1471 81.2714 81.3137ZM71.3397 80.4899C71.3397 78.1775 73.2152 76.2918 75.5262 76.2918C77.8322 76.2918 79.7127 78.1726 79.7127 80.4899C79.7127 82.8024 77.8372 84.6831 75.5262 84.6831C73.2202 84.6831 71.3397 82.8024 71.3397 80.4899Z" stroke="#6524EB" stroke-width="0.6" mask="url(#path-1-outside-1_627_240)"/>
</svg>
