<svg width="39" height="28" viewBox="0 0 39 28" fill="none" xmlns="http://www.w3.org/2000/svg">
<path d="M37.6924 0H31.3951C30.9078 0 30.4865 0.295398 30.2656 0.727572L15.7039 1.58916C14.3003 1.67395 12.9754 2.3878 12.0718 3.55027L8.26441 8.45163C7.49786 9.43904 7.07654 10.6917 7.07654 11.98V14.7889C4.6906 16.3234 3.08648 19.1241 3.08648 22.33C3.08648 23.8563 3.44437 25.3195 4.12717 26.6215H0V28H22.4838V26.6215H18.3567C18.8567 25.6696 19.1816 24.6248 19.3187 23.5335L24.2123 18.2683C26.2581 17.5408 27.9283 16.1951 29.3065 14.1711H30.1187V14.5294C30.1187 15.3007 30.6975 15.9216 31.4107 15.9216H37.708C38.4238 15.9216 39 15.298 39 14.5294V1.39235C39 0.621016 38.4213 0.000153584 37.708 0.000153584L37.6924 0ZM16.8331 26.6291H11.8759V26.5388C12.6095 26.2516 13.1425 25.5022 13.1425 24.6133V23.3961C13.1425 22.4306 12.414 21.6539 11.5256 21.6539H10.9545C10.7667 21.6539 10.6093 21.487 10.6093 21.2819V20.0702C10.6093 19.6982 10.8885 19.3919 11.2388 19.3919C11.5891 19.3919 11.8683 19.6927 11.8683 20.0702V20.155H13.1476V20.0702C13.1476 19.1813 12.6145 18.4319 11.881 18.1447V16.6814H10.6017V18.1447C9.86817 18.4318 9.33516 19.1813 9.33516 20.0702V21.2819C9.33516 22.2474 10.0636 23.0242 10.952 23.0242H11.5231C11.7109 23.0242 11.8683 23.191 11.8683 23.3961V24.6133C11.8683 24.9853 11.5891 25.2916 11.2388 25.2916C10.8886 25.2916 10.6094 24.9907 10.6094 24.6133V24.5285H9.33006V24.6133C9.33006 25.5022 9.86309 26.2599 10.5966 26.5388V26.6291H5.63948C4.80698 25.3764 4.36018 23.8995 4.36018 22.3377C4.36018 18.2569 7.44666 14.931 11.2336 14.931C15.0205 14.931 18.107 18.2569 18.107 22.3377C18.107 23.8995 17.6654 25.3764 16.8277 26.6291H16.8331ZM13.5334 13.9136V13.8096L15.5335 12.0045L17.7113 12.4175L18.0819 15.3386L17.1656 16.326C16.1833 15.2046 14.9421 14.3649 13.541 13.9164L13.5334 13.9136ZM30.1029 12.8004H28.6282L28.4404 13.0958C27.1611 15.076 25.6001 16.3588 23.6711 17.0097L23.5213 17.059L19.3561 21.5391C19.2266 20.0047 18.7393 18.5906 17.9728 17.3871L19.4272 15.8199L18.8485 11.2276L15.1629 10.5356L12.2516 13.1695V13.6318C11.9191 13.5908 11.5815 13.5552 11.2312 13.5552C10.2109 13.5552 9.2438 13.7658 8.34021 14.135V11.9989C8.34021 11.0334 8.65749 10.0952 9.23113 9.35131L13.0461 4.44176C13.7213 3.56652 14.7162 3.03318 15.7696 2.97023L30.1032 2.12237L30.1029 12.8004ZM37.6872 14.5509L31.3772 14.5372V1.40016L31.3899 1.38648L37.6999 1.40016L37.6872 14.5509Z" fill="#6524EB"/>
</svg>
