<svg width="34" height="34" viewBox="0 0 34 34" fill="none" xmlns="http://www.w3.org/2000/svg">
<path d="M6.80957 2.02539C8.09288 2.02168 9.30601 2.61205 10.0918 3.62695L11.0176 4.7998C11.3259 5.19609 11.6294 5.59467 11.916 5.98438C12.9105 7.30305 13.0274 9.07314 12.2402 10.502L12.0703 10.7822C11.2047 12.1372 11.1848 13.7284 11.6875 15.2881C12.1904 16.8483 13.2155 18.3734 14.4316 19.5879C15.6478 20.8024 17.175 21.8251 18.7373 22.3271C20.2992 22.829 21.8922 22.8092 23.249 21.9453L23.5303 21.7764C24.9604 20.9908 26.7313 21.1074 28.0518 22.0996C28.8354 22.6737 29.6506 23.316 30.4141 23.9229L30.4902 23.9834L30.4854 23.9844C31.4413 24.7804 32.0029 25.9551 32.0156 27.2012C32.0298 28.4787 31.4669 29.6938 30.4834 30.5107C29.7213 31.1443 28.9244 31.747 28.1172 32.3008L28.1162 32.2998C27.4303 32.783 26.6137 33.0429 25.7754 33.0469V33.0498H25.7246L25.5742 33.0479H25.5723C20.2146 32.8761 14.1461 29.3976 9.37695 24.6348C4.75684 20.0206 1.34435 14.1889 0.979492 8.96387L0.954102 8.46094C0.916361 7.58496 1.16109 6.72246 1.64844 5.99609H1.64355L1.69727 5.91797C2.25178 5.1118 2.85417 4.31834 3.4873 3.55859L3.49414 3.55078L3.49902 3.54785C4.29405 2.56945 5.49632 2.00867 6.75781 2.02539H6.80957ZM3.91699 4.62695C3.42959 5.23349 2.96474 5.85854 2.53027 6.48926V6.49023L2.5293 6.48926C2.12774 7.05346 1.9281 7.73577 1.96094 8.42773V8.42871C2.11364 13.198 5.14793 18.9935 10.0869 23.9258C15.026 28.8581 20.8296 31.8886 25.6055 32.041L25.8652 32.042C26.4672 32.0202 27.0526 31.8235 27.5469 31.4727L27.5479 31.4717C28.2845 30.9661 29.0104 30.4176 29.708 29.8428L23.0488 23.1904C22.32 23.508 21.5332 23.6691 20.7383 23.6641V23.665C18.2381 23.665 15.6186 22.198 13.7168 20.2988C12.514 19.0977 11.4855 17.6096 10.8916 16.0469C10.3016 14.4944 10.139 12.8645 10.667 11.3682L3.91699 4.62695ZM27.4541 22.9121C26.4396 22.1493 25.0705 22.063 23.9707 22.6885L30.415 29.1221C31.403 27.7188 31.1316 25.7864 29.7852 24.7109C29.0282 24.1093 28.2228 23.4759 27.4551 22.9121H27.4541ZM20.416 2.0791C22.6825 0.770188 25.4283 0.58921 27.8477 1.58887C30.2669 2.58749 32.083 4.65302 32.7617 7.17773C33.4404 9.70253 32.9053 12.3999 31.3135 14.4746C29.7391 16.5245 27.3113 17.7347 24.7285 17.7656L24.7314 17.7686H24.6357C22.4004 17.7724 20.2565 16.8865 18.6777 15.3086C16.8271 13.4603 15.9397 10.8576 16.2803 8.26562C16.6212 5.6734 18.1496 3.38675 20.416 2.0791ZM24.6357 1.9541C22.6688 1.9541 20.782 2.73388 19.3906 4.12207V4.12305C17.9943 5.50891 17.209 7.39378 17.209 9.36035C17.2091 11.3258 17.9942 13.2111 19.3906 14.5967C20.782 15.9849 22.6688 16.7646 24.6357 16.7646C26.6026 16.7659 28.4888 15.986 29.8789 14.5967C31.2702 13.2085 32.0517 11.3244 32.0518 9.36035C32.0518 7.3961 31.2703 5.51159 29.8789 4.12207C28.4889 2.7328 26.6026 1.95412 24.6357 1.9541ZM24.6348 11.6064C25.4631 11.5985 26.1424 12.2634 26.1504 13.0908V13.0918C26.1502 13.6903 25.7921 14.2304 25.2393 14.4619C24.6877 14.6933 24.0497 14.5704 23.6221 14.1514C23.1946 13.7323 23.0597 13.0991 23.2822 12.543L23.3271 12.4414C23.57 11.9427 24.0731 11.618 24.6348 11.6064ZM24.8516 12.6514C24.6754 12.5769 24.4716 12.613 24.333 12.7441C24.1931 12.8769 24.1463 13.0784 24.2139 13.2588C24.2798 13.4366 24.4442 13.5584 24.6348 13.5693H24.6367C24.9085 13.5763 25.1337 13.363 25.1416 13.0918L25.1367 13.0205C25.1158 12.8815 25.0341 12.7577 24.9141 12.6836L24.8516 12.6514ZM25.1045 4.1416C25.3939 4.13755 25.6729 4.25351 25.873 4.46289C26.0743 4.67087 26.1799 4.9534 26.165 5.24219L25.9316 10.0039C25.9054 10.5436 25.4746 10.9702 24.9404 10.999V11.0029H24.8906L24.3486 11.0068H24.3408C23.7823 11.0082 23.3218 10.573 23.293 10.0176L23.291 10.0156L23.29 9.99707L23.1035 5.24121C23.0927 4.95772 23.1965 4.6818 23.3926 4.47656C23.5873 4.27143 23.8579 4.15413 24.1416 4.15137L25.1045 4.1416ZM6.60254 3.03418C5.85129 3.0597 5.13336 3.35576 4.58203 3.86816L11.123 10.3984C11.1543 10.3452 11.1861 10.292 11.2197 10.2393H11.2207C11.9583 9.11785 11.9113 7.65317 11.1016 6.58105L11.041 6.50098H11.043C10.4957 5.75958 9.88358 4.9836 9.30078 4.25391V4.25293C8.70144 3.47976 7.77611 3.02955 6.79785 3.0332H6.75684L6.60254 3.03418ZM25.1162 5.14941L24.1533 5.15918H24.1475C24.14 5.15853 24.1317 5.16184 24.126 5.16895L24.1211 5.1748C24.1143 5.1813 24.1117 5.18867 24.1113 5.19531L24.1123 5.20508L24.2988 9.96094V9.96191C24.2994 9.98372 24.3176 10.0019 24.3418 10.002L24.8818 9.99512H24.8828C24.9056 9.99506 24.9231 9.97746 24.9238 9.95703V9.95508L25.1582 5.19336L25.1592 5.18848C25.1603 5.18071 25.1573 5.17117 25.1504 5.16504L25.1416 5.1582L25.1426 5.15723C25.1373 5.15038 25.1293 5.1475 25.123 5.14844L25.1162 5.14941Z" fill="#6524EB" stroke="#6524EB" stroke-width="0.1"/>
</svg>
