<svg width="34" height="36" viewBox="0 0 34 36" fill="none" xmlns="http://www.w3.org/2000/svg">
<path d="M32.2937 18.809V9.18925C32.2937 7.41116 31.6007 5.70603 30.3668 4.4491C29.1329 3.19233 27.4589 2.48639 25.7131 2.48639H24.9819V0.624525C24.9819 0.460061 24.9179 0.301802 24.8037 0.185423C24.6894 0.0690443 24.5341 0.00389213 24.3726 0.00389213C24.205 -0.016278 24.039 0.0426808 23.9202 0.1637C23.8014 0.284723 23.7435 0.453841 23.7633 0.624529V2.48639H9.13995V0.624529C9.13995 0.460065 9.07597 0.301806 8.96172 0.185427C8.84748 0.0690483 8.69211 0.0038961 8.53063 0.0038961C8.36307 -0.016274 8.19703 0.0426848 8.0782 0.163704C7.95939 0.284727 7.90151 0.453845 7.92131 0.624533V2.4864H6.51989C4.78034 2.4864 3.11234 3.19388 1.88761 4.45375C0.664435 5.71207 -0.0164656 7.4172 0.000302529 9.18914V29.2973C-0.0164535 31.0691 0.664435 32.7743 1.88761 34.0326C3.1123 35.2925 4.7803 36 6.51989 36H23.0322C25.9416 36 28.7306 34.8224 30.7872 32.7278C32.8436 30.6332 33.9998 27.7922 33.9998 24.8287C34.0135 22.6969 33.4209 20.6055 32.2937 18.809ZM6.52002 3.72779H7.92144V5.58965C7.90164 5.76032 7.95952 5.92944 8.07834 6.05048C8.19715 6.1715 8.36319 6.23046 8.53076 6.21029C8.69223 6.21029 8.8476 6.14512 8.96186 6.02876C9.07611 5.91239 9.14008 5.75413 9.14008 5.58965V3.72779H23.7634V5.58965C23.7436 5.76033 23.8015 5.92944 23.9203 6.05048C24.0391 6.1715 24.2051 6.23046 24.3727 6.21029C24.5342 6.21029 24.6896 6.14513 24.8038 6.02876C24.9181 5.91239 24.982 5.75413 24.982 5.58966V3.7278H25.7132C28.6745 3.7278 31.0751 6.17302 31.0751 9.18926V10.5546H1.21933V9.18926C1.20258 7.74632 1.754 6.35768 2.75022 5.33057C3.74644 4.305 5.10339 3.72779 6.52002 3.72779ZM6.52002 34.7588C5.10339 34.7588 3.74615 34.1817 2.74993 33.1561C1.75371 32.1289 1.20228 30.7403 1.21905 29.2974V11.7961H31.0748V17.1956C28.863 14.7922 25.7234 13.5075 22.4942 13.6813C19.265 13.855 16.2764 15.4718 14.3266 18.0985C12.3753 20.7253 11.664 24.0954 12.3784 27.3071C13.0928 30.5188 15.1644 33.2464 18.0358 34.7593L6.52002 34.7588ZM23.0323 34.7588C20.4473 34.7588 17.9675 33.7131 16.1394 31.8497C14.31 29.9878 13.2833 27.4618 13.2833 24.8288C13.2833 22.1958 14.31 19.67 16.1394 17.808C17.9674 15.9445 20.4473 14.8988 23.0323 14.8988C25.6173 14.8988 28.097 15.9445 29.9251 17.808C31.7546 19.6698 32.7812 22.1958 32.7812 24.8288C32.7812 27.4618 31.7546 29.9876 29.9251 31.8497C28.0972 33.7131 25.6173 34.7588 23.0323 34.7588ZM23.6416 18.809V24.8289C23.6614 24.9996 23.6035 25.1687 23.4847 25.2897C23.3659 25.4107 23.1998 25.4697 23.0323 25.4495H19.2546C18.9179 25.4495 18.6453 25.1718 18.6453 24.8289C18.6453 24.486 18.9179 24.2083 19.2546 24.2083H22.423V18.8088C22.4519 18.4783 22.7078 18.2176 23.0323 18.1882C23.3689 18.1882 23.6416 18.4661 23.6416 18.809Z" fill="#6524EB"/>
</svg>
