<svg width="96" height="124" viewBox="0 0 96 124" fill="none" xmlns="http://www.w3.org/2000/svg">
<path d="M60.7729 123.676H3.46944C1.56122 123.676 0 122.134 0 120.225V26.8779C0 24.9891 1.56122 23.4277 3.46944 23.4277H42.828C43.3484 23.4277 43.7725 23.8518 43.7725 24.3722C43.7725 24.8926 43.3484 25.3166 42.828 25.3166H3.46944C2.60209 25.3166 1.88898 26.0105 1.88898 26.8586V120.226C1.88898 121.074 2.60214 121.768 3.46944 121.768H60.7729C61.6402 121.768 62.3148 121.093 62.3148 120.226V52.1667C62.3148 51.6463 62.7389 51.2223 63.2593 51.2223C63.7797 51.2223 64.2037 51.6463 64.2037 52.1667V120.245C64.223 122.134 62.6617 123.676 60.7729 123.676Z" fill="#6524EB"/>
<path d="M68.4064 53.6331C53.7194 53.6331 41.75 41.6828 41.75 26.9767C41.75 12.2706 53.7195 0.320312 68.4064 0.320312C83.1131 0.320312 95.0628 12.2706 95.0628 26.9767C95.0628 41.6828 83.1125 53.6331 68.4064 53.6331ZM68.4064 2.20769C54.7606 2.20769 43.6583 13.3099 43.6583 26.9557C43.6583 40.6016 54.7606 51.7038 68.4064 51.7038C82.0523 51.7038 93.1545 40.6016 93.1545 26.9557C93.1545 13.3099 82.0523 2.20769 68.4064 2.20769Z" fill="#6524EB"/>
<path d="M45.373 39.3518H0.944453C0.424031 39.3518 0 38.9278 0 38.4073C0 37.8869 0.424043 37.4629 0.944453 37.4629H45.373C45.8934 37.4629 46.3175 37.8869 46.3175 38.4073C46.3175 38.9278 45.9127 39.3518 45.373 39.3518Z" fill="#6524EB"/>
<path d="M63.2599 108.934H0.944453C0.424031 108.934 0 108.51 0 107.989C0 107.469 0.424043 107.045 0.944453 107.045H63.2599C63.7803 107.045 64.2044 107.469 64.2044 107.989C64.2236 108.51 63.7996 108.934 63.2599 108.934Z" fill="#6524EB"/>
<path d="M80.4928 42.492H56.322C54.4524 42.492 52.9297 40.9693 52.9297 39.0997V28.9034C52.9297 28.383 53.3537 27.959 53.8741 27.959C54.3946 27.959 54.8186 28.383 54.8186 28.9034V39.0997C54.8186 39.9285 55.4932 40.5838 56.3027 40.5838H80.492C81.3015 40.5838 81.9761 39.9092 81.9761 39.0997V28.9034C81.9761 28.383 82.4001 27.959 82.9205 27.959C83.4409 27.959 83.865 28.383 83.865 28.9034V39.0997C83.865 40.9693 82.3431 42.492 80.4928 42.492Z" fill="#6524EB"/>
<path d="M65.6492 32.7765C65.5721 32.7765 65.495 32.7765 65.4179 32.7573L54.4314 30.0781C52.4461 29.5962 51.0391 27.8422 51.0391 25.799V19.5926C51.0391 17.4531 52.7545 15.6992 54.8748 15.6992H81.937C84.0573 15.6992 85.7727 17.4339 85.7727 19.5926V25.7798C85.7727 27.8036 84.3849 29.5576 82.3996 30.0588L71.4131 32.738C70.8927 32.8537 70.3915 32.5453 70.2566 32.0441C70.141 31.543 70.4494 31.0226 70.9505 30.8877L81.937 28.2084C83.0742 27.9193 83.8645 26.9364 83.8645 25.7798V19.5926C83.8645 18.494 82.9971 17.6073 81.937 17.6073H54.8748C53.8146 17.6073 52.9473 18.494 52.9473 19.5926V25.7798C52.9473 26.9363 53.7375 27.9385 54.8748 28.2084L65.8613 30.8877C66.3624 31.0033 66.6901 31.5237 66.5551 32.0441C66.4588 32.4875 66.0733 32.7765 65.6492 32.7765Z" fill="#6524EB"/>
<path d="M70.119 36.5765H66.6882C65.5895 36.5765 64.6836 35.6706 64.6836 34.5719V30.3893C64.6836 29.2907 65.5895 28.3848 66.6882 28.3848H70.119C71.2176 28.3848 72.1236 29.2907 72.1236 30.3893V34.5719C72.1236 35.6898 71.2176 36.5765 70.119 36.5765ZM66.6882 30.2929L66.5918 34.5911L70.1191 34.6875C70.1769 34.6875 70.2155 34.649 70.2155 34.5911V30.3893L66.6882 30.2929Z" fill="#6524EB"/>
<path d="M73.3212 17.6095C72.8008 17.6095 72.3768 17.1855 72.3768 16.6651V13.5426C72.3768 13.427 72.3189 13.3692 72.2997 13.3499H64.4741C64.4741 13.3499 64.4163 13.427 64.4163 13.5234V16.6458C64.4163 17.1662 63.9922 17.5902 63.4718 17.5902C62.9514 17.5902 62.5273 17.1662 62.5273 16.6458V13.5426C62.5273 12.4054 63.3947 11.4609 64.4741 11.4609H72.3189C73.3983 11.4609 74.2656 12.3861 74.2656 13.5426V16.665C74.2849 17.1855 73.8609 17.6095 73.3212 17.6095Z" fill="#6524EB"/>
<path d="M32.1119 73.8925C25.4235 73.8925 19.9688 68.4378 19.9688 61.7494V57.856C19.9688 51.1677 25.4041 45.7129 32.1119 45.7129C38.8002 45.7129 44.255 51.1483 44.255 57.856V61.7494C44.255 68.4378 38.8002 73.8925 32.1119 73.8925ZM32.1119 47.621C26.4644 47.621 21.877 52.2084 21.877 57.8559V61.7493C21.877 67.3967 26.4644 71.9842 32.1119 71.9842C37.7593 71.9842 42.3467 67.3967 42.3467 61.7493V57.8559C42.3467 52.2084 37.7593 47.621 32.1119 47.621Z" fill="#6524EB"/>
<path d="M32.1119 82.1596C28.8159 82.1596 26.1367 79.4804 26.1367 76.1844V71.7512C26.1367 71.2307 26.5608 70.8067 27.0812 70.8067C27.6016 70.8067 28.0256 71.2307 28.0256 71.7512V76.1844C28.0256 78.4395 29.8567 80.2706 32.1119 80.2706C33.4804 80.2706 34.4441 79.6153 35.0224 79.0756C35.7741 78.3046 36.1981 77.2831 36.1981 76.1843V71.7511C36.1981 71.2307 36.6221 70.8066 37.1426 70.8066C37.663 70.8066 38.087 71.2307 38.087 71.7511V76.1843C38.087 77.7648 37.4702 79.2683 36.3524 80.4248C35.1766 81.562 33.6731 82.1596 32.1119 82.1596Z" fill="#6524EB"/>
<path d="M55.3951 101.397H8.80773C8.28731 101.397 7.86328 100.973 7.86328 100.452V90.2752C7.86328 84.8976 11.3135 80.1946 16.4405 78.5563L26.7909 75.2796C27.2921 75.1254 27.8318 75.3953 27.986 75.8964C28.1402 76.3975 27.8703 76.9372 27.3692 77.0914L17.0187 80.3681C12.6819 81.7366 9.77144 85.7265 9.77144 90.2752V99.5078H54.4504V90.2752C54.4504 85.7264 51.5399 81.7558 47.2032 80.3681L36.8527 77.0914C36.3516 76.9372 36.0817 76.3975 36.2359 75.8964C36.3901 75.3953 36.9298 75.1254 37.4309 75.2796L47.7814 78.5563C52.9084 80.1753 56.3586 84.8783 56.3586 90.2752V100.452C56.3586 100.973 55.9155 101.397 55.3951 101.397Z" fill="#6524EB"/>
<path d="M18.6788 101.396C18.1584 101.396 17.7344 100.972 17.7344 100.452V95.4015C17.7344 94.8811 18.1584 94.457 18.6788 94.457C19.1992 94.457 19.6233 94.8811 19.6233 95.4015V100.452C19.6233 100.972 19.1992 101.396 18.6788 101.396Z" fill="#6524EB"/>
<path d="M45.5265 101.396C45.0061 101.396 44.582 100.972 44.582 100.452V95.4015C44.582 94.8811 45.0061 94.457 45.5265 94.457C46.0469 94.457 46.4709 94.8811 46.4709 95.4015V100.452C46.4902 100.972 46.0662 101.396 45.5265 101.396Z" fill="#6524EB"/>
</svg>
