<svg width="41" height="42" viewBox="0 0 41 42" fill="none" xmlns="http://www.w3.org/2000/svg">
<rect x="0.5" y="0.5" width="40" height="41" rx="11.5" fill="white"/>
<rect x="0.5" y="0.5" width="40" height="41" rx="11.5" stroke="#E6E6E6"/>
<path fill-rule="evenodd" clip-rule="evenodd" d="M12.6375 7H28.3624C31.4651 7 34 9.62885 34 12.8463V29.1537C34 32.3712 31.4639 35 28.3624 35H12.6375C9.53488 35 7 32.3711 7 29.1537V12.8463C7 9.62876 9.53496 7 12.6375 7ZM28.9027 10.9735C27.2364 10.9735 27.2364 13.5988 28.9027 13.5988C30.569 13.5988 30.569 10.9735 28.9027 10.9735ZM20.5 12.323C15.8788 12.323 12.1327 16.2087 12.1327 21.0001C12.1327 28.705 21.158 32.5898 26.4168 27.136C31.6755 21.6825 27.9297 12.323 20.5 12.323ZM25.2232 16.102C21.0265 11.7499 13.8197 14.8475 13.8197 21.0001C13.8197 27.1527 21.0265 30.2503 25.2232 25.8982C27.8325 23.1934 27.8325 18.8068 25.2232 16.102ZM28.3624 8.74959H12.6375C10.4665 8.74959 8.68699 10.5951 8.68699 12.8465V29.1538C8.68699 31.4052 10.4666 33.2507 12.6375 33.2507H28.3624C30.5335 33.2507 32.313 31.4051 32.313 29.1538V12.8465C32.313 10.595 30.5334 8.74959 28.3624 8.74959Z" fill="black"/>
</svg>
