<svg width="225" height="64" viewBox="0 0 225 64" fill="none" xmlns="http://www.w3.org/2000/svg">
<path d="M0 10.7907C0 6.14581 3.4157 2.33997 7.76815 2.19509C26.9795 1.55562 77.7048 -0.0124192 112.84 7.42217e-05C147.666 0.0124578 198.083 1.56358 217.229 2.19686C221.583 2.34084 225 6.14715 225 10.7929V53.207C225 57.8528 221.583 61.6591 217.229 61.8031C198.083 62.4364 147.666 63.9875 112.84 63.9999C77.7047 64.0124 26.9795 62.4443 7.76814 61.8048C3.4157 61.6599 0 57.8541 0 53.2092V10.7907Z" fill="#6524EB"/>
<path d="M46.2578 41.7317L47.8439 28.4403H49.0105C49.5348 28.4403 49.7969 28.7025 49.7969 29.2268L49.6003 31.796C50.3081 30.625 51.1034 29.7424 51.9859 29.1482C52.8773 28.5539 53.7992 28.2568 54.7517 28.2568C55.7392 28.2568 56.5038 28.5889 57.0456 29.253C57.5961 29.9172 57.8714 30.8871 57.8714 32.163C57.8714 32.3377 57.867 32.5169 57.8583 32.7004C57.8495 32.8839 57.832 33.0762 57.8058 33.2771L56.8096 41.7317H54.4764L55.4726 33.2771C55.4901 33.1024 55.5032 32.9363 55.512 32.779C55.5294 32.613 55.5382 32.4557 55.5382 32.3072C55.5382 31.5906 55.4027 31.0619 55.1318 30.7211C54.8697 30.3716 54.4546 30.1968 53.8866 30.1968C53.4671 30.1968 53.0389 30.3104 52.602 30.5376C52.1738 30.7648 51.7587 31.0881 51.3568 31.5076C50.9548 31.9183 50.579 32.4208 50.2295 33.015C49.8887 33.6005 49.5959 34.2559 49.3513 34.9812L48.591 41.7317H46.2578Z" fill="white"/>
<path d="M44.0923 28.4545L42.4931 41.7328H40.1992L41.7984 28.4545H44.0923ZM44.9705 24.2862C44.9705 24.5134 44.9224 24.7275 44.8263 24.9285C44.7389 25.1207 44.6166 25.2955 44.4593 25.4528C44.3107 25.6014 44.1403 25.7193 43.9481 25.8067C43.7558 25.8941 43.5548 25.9378 43.3451 25.9378C43.1441 25.9378 42.9475 25.8941 42.7553 25.8067C42.563 25.7193 42.3926 25.6014 42.244 25.4528C42.1042 25.2955 41.9906 25.1207 41.9032 24.9285C41.8159 24.7275 41.7722 24.5134 41.7722 24.2862C41.7722 24.059 41.8159 23.8449 41.9032 23.6439C41.9906 23.4429 42.1086 23.2682 42.2572 23.1196C42.4057 22.9623 42.5761 22.84 42.7684 22.7526C42.9606 22.6565 43.1572 22.6084 43.3582 22.6084C43.5679 22.6084 43.7689 22.6521 43.9612 22.7395C44.1534 22.8269 44.3238 22.9492 44.4724 23.1065C44.6297 23.2551 44.752 23.4342 44.8394 23.6439C44.9268 23.8449 44.9705 24.059 44.9705 24.2862Z" fill="white"/>
<path d="M31.6397 40.0936C32.2776 40.0936 32.8587 39.9189 33.383 39.5693C33.9073 39.2198 34.353 38.7566 34.72 38.1799C35.087 37.5944 35.371 36.9215 35.572 36.1613C35.773 35.401 35.8735 34.6058 35.8735 33.7757C35.8735 32.5523 35.6332 31.6303 35.1526 31.0099C34.672 30.3895 33.9772 30.0792 33.0684 30.0792C32.4218 30.0792 31.8363 30.254 31.312 30.6036C30.7964 30.9444 30.3551 31.4075 29.9881 31.993C29.6211 32.5697 29.3371 33.2382 29.1361 33.9985C28.9351 34.7587 28.8346 35.554 28.8346 36.3841C28.8346 37.6075 29.0705 38.5338 29.5424 39.163C30.023 39.7834 30.7221 40.0936 31.6397 40.0936ZM31.4299 41.9156C30.7046 41.9156 30.0405 41.7933 29.4375 41.5486C28.8346 41.2952 28.3146 40.9325 27.8777 40.4607C27.4408 39.9888 27.1 39.412 26.8553 38.7304C26.6106 38.0488 26.4883 37.2711 26.4883 36.3972C26.4883 35.2787 26.6631 34.2257 27.0126 33.2382C27.3621 32.2508 27.8384 31.3857 28.4414 30.6429C29.0531 29.9001 29.7696 29.3146 30.591 28.8864C31.4212 28.4582 32.3169 28.2441 33.2781 28.2441C34.0035 28.2441 34.6676 28.3709 35.2705 28.6243C35.8735 28.8689 36.3935 29.2272 36.8304 29.6991C37.2673 30.171 37.6081 30.7521 37.8528 31.4425C38.0975 32.1241 38.2198 32.8974 38.2198 33.7625C38.2198 34.8723 38.045 35.921 37.6955 36.9084C37.346 37.8959 36.8653 38.761 36.2536 39.5038C35.6507 40.2466 34.9341 40.8364 34.1039 41.2733C33.2738 41.7015 32.3824 41.9156 31.4299 41.9156Z" fill="white"/>
<path d="M23.6774 35.5056C23.424 37.5853 22.773 39.1801 21.7243 40.2899C20.6844 41.391 19.2994 41.9415 17.5691 41.9415C17.0973 41.9415 16.656 41.9109 16.2452 41.8498C15.8345 41.7886 15.4195 41.6968 15 41.5745L15.1835 40.1457C15.201 40.0147 15.249 39.9011 15.3277 39.8049C15.4151 39.7088 15.5462 39.6608 15.7209 39.6608C15.8083 39.6608 15.9088 39.6739 16.0224 39.7001C16.136 39.7176 16.2627 39.7438 16.4025 39.7787C16.5511 39.8049 16.7171 39.8312 16.9006 39.8574C17.0929 39.8749 17.3114 39.8836 17.556 39.8836C18.0104 39.8836 18.4386 39.8093 18.8406 39.6608C19.2426 39.5122 19.6052 39.2675 19.9286 38.9267C20.2519 38.5859 20.5228 38.1402 20.7412 37.5897C20.9684 37.0392 21.1301 36.3619 21.2262 35.558L22.7599 22.9482H25.211L23.6774 35.5056Z" fill="white"/>
<path d="M171.048 35.325C171.048 36.0013 171.284 36.5746 171.754 37.045C172.254 37.5154 172.842 37.7506 173.518 37.7506H177.796V42.8662H173.518C172.371 42.8662 171.284 42.6604 170.255 42.2488C169.255 41.8078 168.373 41.2198 167.609 40.4848C166.874 39.7204 166.286 38.8384 165.845 37.8388C165.404 36.8392 165.183 35.766 165.183 34.6194V28.0043H162.008V23.1092H165.183V15.127H171.048V35.325Z" fill="white"/>
<path d="M148.226 20.4619C149.814 20.4619 151.313 20.7706 152.724 21.388C154.136 21.976 155.356 22.7992 156.385 23.8577C157.443 24.8867 158.266 26.0921 158.854 27.4739C159.472 28.8557 159.781 30.3405 159.781 31.9281C159.781 33.5451 159.472 35.0592 158.854 36.4704C158.266 37.8817 157.443 39.1165 156.385 40.1749C155.356 41.2039 154.136 42.0271 152.724 42.6445C151.313 43.2325 149.814 43.5265 148.226 43.5265C146.051 43.5265 144.242 42.9385 142.802 41.7625V41.7184L145.007 37.6612L145.051 37.7053C145.845 38.0581 146.653 38.2345 147.476 38.2345C148.329 38.2345 149.138 38.0728 149.902 37.7494C150.666 37.426 151.328 36.985 151.887 36.4263C152.475 35.8383 152.93 35.1621 153.254 34.3977C153.577 33.6333 153.739 32.8101 153.739 31.9281C153.739 31.0755 153.577 30.2817 153.254 29.5466C152.93 28.7822 152.475 28.1207 151.887 27.5621C151.328 27.0035 150.666 26.5625 149.902 26.2391C149.138 25.9157 148.329 25.754 147.476 25.754C146.594 25.754 145.771 25.9157 145.007 26.2391C144.272 26.5625 143.625 27.0035 143.066 27.5621C142.508 28.1207 142.067 28.7822 141.743 29.5466C141.42 30.2817 141.258 31.0755 141.258 31.9281V51.6852H135.305V20.8147H141.258V23.8136C142.846 21.5791 145.169 20.4619 148.226 20.4619Z" fill="white"/>
<path d="M109.738 42.8657L115.648 34.8394L121.028 37.3091L116.927 42.8657H109.738ZM124.997 31.9288L133.112 42.8657H125.879V42.8216L117.853 31.9729L109.782 20.8154H116.927L121.381 28.3125L125.879 20.8154H133.112L133.023 20.8595L124.997 31.9288Z" fill="white"/>
<path d="M99.974 20.4619C101.532 20.4619 103.002 20.7706 104.384 21.388C105.766 21.976 106.971 22.7845 108 23.8136C109.029 24.8426 109.838 26.048 110.426 27.4298C111.043 28.8116 111.352 30.2964 111.352 31.884C111.352 32.7366 111.264 33.5598 111.087 34.3536L111.043 34.4418H99.8417L97.0192 29.9435H105.398C104.987 28.7087 104.296 27.6944 103.326 26.9006C102.385 26.1068 101.268 25.7099 99.974 25.7099C99.1802 25.7099 98.4305 25.8716 97.7248 26.195C97.0192 26.5184 96.4018 26.9594 95.8726 27.518C95.3728 28.0472 94.9759 28.694 94.6819 29.4584C94.3879 30.1935 94.2409 31.002 94.2409 31.884C94.2409 32.5602 94.3732 33.2658 94.6378 34.0008C94.9024 34.7064 95.2846 35.3532 95.7844 35.9412C96.2842 36.5292 96.8869 37.029 97.5925 37.4407C98.2982 37.8229 99.092 38.014 99.974 38.014C100.768 38.014 101.488 37.9111 102.135 37.7053C102.811 37.4701 103.443 36.9702 104.031 36.2058L104.075 36.1617L104.164 36.2058L109.279 38.455L109.191 38.5432C108.133 40.0132 106.78 41.1598 105.134 41.983C103.517 42.8062 101.797 43.2178 99.974 43.2178C98.3864 43.2178 96.8869 42.9238 95.4757 42.3358C94.0939 41.7478 92.8885 40.9393 91.8595 39.9103C90.8304 38.8813 90.0072 37.6759 89.3898 36.294C88.8018 34.9122 88.5078 33.4422 88.5078 31.884C88.5078 30.2964 88.8018 28.8116 89.3898 27.4298C90.0072 26.048 90.8304 24.8426 91.8595 23.8136C92.8885 22.7845 94.0939 21.976 95.4757 21.388C96.8869 20.7706 98.3864 20.4619 99.974 20.4619Z" fill="white"/>
<path d="M89.8759 21.6967L89.3467 22.5787L87.0975 26.5919L87.0534 26.5478C86.0832 25.9892 85.0395 25.7099 83.9223 25.7099C83.1579 25.7099 82.4376 25.8422 81.7614 26.1068C81.0851 26.342 80.4824 26.6948 79.9532 27.1652C79.424 27.6062 78.9683 28.1354 78.5861 28.7528C78.2333 29.3702 77.9981 30.0317 77.8805 30.7374V42.865H71.8828V20.8147H77.8805V23.6813C79.4387 21.535 81.7173 20.4619 84.7161 20.4619C86.4801 20.4619 88.1853 20.8735 89.8318 21.6967H89.8759Z" fill="white"/>
<path d="M171.332 23.0645H176.734V28.0258L171.332 23.0645Z" fill="white"/>
<path d="M132.218 48.4586L132.679 48.5156C132.606 48.7847 132.472 48.9935 132.275 49.1421C132.079 49.2907 131.828 49.365 131.523 49.365C131.138 49.365 130.832 49.2469 130.606 49.0108C130.382 48.7731 130.27 48.4405 130.27 48.0129C130.27 47.5704 130.383 47.227 130.611 46.9827C130.839 46.7384 131.135 46.6162 131.498 46.6162C131.849 46.6162 132.137 46.7359 132.36 46.9753C132.582 47.2147 132.694 47.5514 132.694 47.9856C132.694 48.012 132.693 48.0517 132.691 48.1045H130.73C130.747 48.3934 130.828 48.6146 130.975 48.7682C131.122 48.9217 131.305 48.9985 131.525 48.9985C131.688 48.9985 131.828 48.9555 131.944 48.8697C132.059 48.7838 132.151 48.6468 132.218 48.4586ZM130.755 47.738H132.223C132.204 47.5168 132.147 47.3509 132.055 47.2403C131.913 47.0686 131.729 46.9827 131.503 46.9827C131.298 46.9827 131.126 47.0512 130.985 47.1882C130.847 47.3253 130.77 47.5085 130.755 47.738Z" fill="white"/>
<path d="M129.653 48.3422L130.091 48.3992C130.044 48.7013 129.921 48.9382 129.722 49.1099C129.526 49.2799 129.284 49.365 128.997 49.365C128.637 49.365 128.347 49.2477 128.128 49.0133C127.91 48.7772 127.801 48.4396 127.801 48.0005C127.801 47.7165 127.848 47.4681 127.942 47.2551C128.036 47.0421 128.179 46.8828 128.37 46.7772C128.563 46.6699 128.773 46.6162 128.999 46.6162C129.285 46.6162 129.519 46.6889 129.7 46.8341C129.882 46.9778 129.998 47.1825 130.049 47.4483L129.616 47.5151C129.575 47.3385 129.501 47.2056 129.396 47.1164C129.292 47.0273 129.165 46.9827 129.017 46.9827C128.792 46.9827 128.61 47.0636 128.469 47.2254C128.329 47.3855 128.259 47.6398 128.259 47.9881C128.259 48.3414 128.327 48.5981 128.462 48.7583C128.597 48.9184 128.774 48.9985 128.992 48.9985C129.167 48.9985 129.313 48.9448 129.43 48.8375C129.547 48.7302 129.622 48.5651 129.653 48.3422Z" fill="white"/>
<path d="M126.855 46.1874V45.6748H127.301V46.1874H126.855ZM126.855 49.3051V46.6753H127.301V49.3051H126.855Z" fill="white"/>
<path d="M125.098 49.3047L124.098 46.6748H124.568L125.133 48.2498C125.194 48.4198 125.25 48.5965 125.301 48.7797C125.341 48.641 125.396 48.4743 125.467 48.2795L126.051 46.6748H126.51L125.514 49.3047H125.098Z" fill="white"/>
<path d="M122.727 49.3055V46.6756H123.128V47.0743C123.23 46.8878 123.324 46.7648 123.41 46.7054C123.498 46.6459 123.593 46.6162 123.697 46.6162C123.848 46.6162 124 46.6641 124.155 46.7598L124.002 47.1734C123.893 47.109 123.784 47.0768 123.675 47.0768C123.578 47.0768 123.49 47.1065 123.413 47.166C123.335 47.2237 123.28 47.3046 123.247 47.4086C123.197 47.5671 123.172 47.7405 123.172 47.9287V49.3055H122.727Z" fill="white"/>
<path d="M121.761 48.4586L122.222 48.5156C122.149 48.7847 122.015 48.9935 121.818 49.1421C121.622 49.2907 121.371 49.365 121.066 49.365C120.681 49.365 120.375 49.2469 120.149 49.0108C119.925 48.7731 119.812 48.4405 119.812 48.0129C119.812 47.5704 119.926 47.227 120.154 46.9827C120.382 46.7384 120.678 46.6162 121.041 46.6162C121.392 46.6162 121.68 46.7359 121.903 46.9753C122.125 47.2147 122.237 47.5514 122.237 47.9856C122.237 48.012 122.236 48.0517 122.234 48.1045H120.273C120.29 48.3934 120.371 48.6146 120.518 48.7682C120.665 48.9217 120.848 48.9985 121.068 48.9985C121.231 48.9985 121.371 48.9555 121.487 48.8697C121.602 48.7838 121.694 48.6468 121.761 48.4586ZM120.298 47.738H121.766C121.747 47.5168 121.69 47.3509 121.598 47.2403C121.456 47.0686 121.272 46.9827 121.046 46.9827C120.841 46.9827 120.668 47.0512 120.528 47.1882C120.389 47.3253 120.313 47.5085 120.298 47.738Z" fill="white"/>
<path d="M116.523 48.1382L116.977 48.0986C116.998 48.2802 117.048 48.4296 117.125 48.5468C117.204 48.6623 117.327 48.7564 117.492 48.8291C117.657 48.9001 117.843 48.9356 118.049 48.9356C118.232 48.9356 118.394 48.9083 118.534 48.8539C118.675 48.7994 118.779 48.7251 118.846 48.631C118.916 48.5352 118.95 48.4312 118.95 48.319C118.95 48.205 118.917 48.106 118.851 48.0218C118.785 47.9359 118.676 47.8641 118.524 47.8064C118.427 47.7684 118.211 47.7098 117.878 47.6305C117.545 47.5496 117.311 47.4737 117.177 47.4027C117.004 47.3119 116.874 47.1996 116.788 47.0659C116.704 46.9306 116.662 46.7795 116.662 46.6128C116.662 46.4295 116.714 46.2586 116.818 46.1001C116.922 45.94 117.074 45.8187 117.274 45.7361C117.474 45.6536 117.696 45.6123 117.94 45.6123C118.209 45.6123 118.446 45.6561 118.651 45.7436C118.857 45.8294 119.015 45.9565 119.126 46.1249C119.237 46.2933 119.296 46.484 119.304 46.6969L118.844 46.7316C118.819 46.5021 118.735 46.3288 118.591 46.2116C118.449 46.0944 118.239 46.0358 117.96 46.0358C117.669 46.0358 117.457 46.0894 117.323 46.1967C117.191 46.3024 117.125 46.4303 117.125 46.5806C117.125 46.711 117.172 46.8183 117.266 46.9025C117.359 46.9867 117.6 47.0734 117.989 47.1625C118.381 47.25 118.649 47.3268 118.794 47.3928C119.006 47.4902 119.162 47.614 119.262 47.7643C119.363 47.9128 119.413 48.0845 119.413 48.2793C119.413 48.4725 119.358 48.6549 119.247 48.8266C119.137 48.9967 118.978 49.1296 118.769 49.2253C118.563 49.3194 118.33 49.3665 118.071 49.3665C117.743 49.3665 117.467 49.3186 117.244 49.2228C117.023 49.1271 116.849 48.9834 116.722 48.7919C116.596 48.5988 116.53 48.3809 116.523 48.1382Z" fill="white"/>
<path d="M114.879 48.9058L114.943 49.2995C114.817 49.3259 114.705 49.3391 114.606 49.3391C114.444 49.3391 114.319 49.3136 114.23 49.2624C114.141 49.2112 114.078 49.1443 114.042 49.0618C114.005 48.9776 113.987 48.8018 113.987 48.5343V47.0213H113.66V46.6746H113.987V46.0233L114.43 45.7559V46.6746H114.879V47.0213H114.43V48.5591C114.43 48.6862 114.438 48.7679 114.453 48.8043C114.469 48.8406 114.495 48.8695 114.529 48.8909C114.566 48.9124 114.617 48.9231 114.683 48.9231C114.732 48.9231 114.798 48.9173 114.879 48.9058Z" fill="white"/>
<path d="M111.242 48.5205L111.683 48.4512C111.708 48.6278 111.776 48.7632 111.889 48.8573C112.002 48.9514 112.161 48.9985 112.364 48.9985C112.569 48.9985 112.721 48.9572 112.82 48.8746C112.919 48.7904 112.968 48.6922 112.968 48.58C112.968 48.4793 112.924 48.4 112.837 48.3422C112.776 48.3026 112.624 48.2523 112.381 48.1912C112.054 48.1086 111.827 48.0376 111.7 47.9782C111.575 47.9171 111.479 47.8338 111.413 47.7281C111.349 47.6208 111.316 47.5027 111.316 47.374C111.316 47.2568 111.343 47.1486 111.396 47.0496C111.45 46.9489 111.524 46.8655 111.616 46.7995C111.685 46.7483 111.78 46.7054 111.898 46.6707C112.019 46.6344 112.148 46.6162 112.285 46.6162C112.491 46.6162 112.672 46.6459 112.827 46.7054C112.984 46.7648 113.099 46.8457 113.174 46.948C113.248 47.0487 113.299 47.1841 113.327 47.3542L112.891 47.4136C112.872 47.2782 112.814 47.1726 112.718 47.0966C112.624 47.0207 112.49 46.9827 112.317 46.9827C112.112 46.9827 111.966 47.0166 111.879 47.0842C111.791 47.1519 111.747 47.2312 111.747 47.322C111.747 47.3798 111.766 47.4318 111.802 47.478C111.838 47.5259 111.895 47.5655 111.973 47.5968C112.017 47.6134 112.149 47.6513 112.366 47.7108C112.682 47.795 112.901 47.8643 113.025 47.9188C113.151 47.9716 113.249 48.0492 113.32 48.1516C113.391 48.2539 113.426 48.381 113.426 48.5329C113.426 48.6815 113.383 48.8218 113.295 48.9539C113.209 49.0843 113.085 49.1858 112.921 49.2585C112.758 49.3295 112.573 49.365 112.366 49.365C112.025 49.365 111.764 49.294 111.584 49.152C111.406 49.01 111.292 48.7995 111.242 48.5205Z" fill="white"/>
<path d="M110.344 46.1874V45.6748H110.789V46.1874H110.344ZM110.344 49.3051V46.6753H110.789V49.3051H110.344Z" fill="white"/>
<path d="M107.57 49.3055V46.6756H107.971V47.0496C108.165 46.7607 108.444 46.6162 108.808 46.6162C108.967 46.6162 109.112 46.6451 109.244 46.7029C109.378 46.759 109.478 46.8333 109.544 46.9258C109.61 47.0182 109.656 47.128 109.683 47.2551C109.699 47.3377 109.707 47.4821 109.707 47.6885V49.3055H109.262V47.7058C109.262 47.5242 109.244 47.3888 109.21 47.2997C109.175 47.2089 109.113 47.1371 109.024 47.0842C108.936 47.0298 108.833 47.0025 108.714 47.0025C108.525 47.0025 108.36 47.0628 108.222 47.1833C108.085 47.3038 108.016 47.5325 108.016 47.8692V49.3055H107.57Z" fill="white"/>
<path d="M104.633 47.9906C104.633 47.5036 104.768 47.1428 105.039 46.9084C105.265 46.7136 105.541 46.6162 105.866 46.6162C106.228 46.6162 106.523 46.7351 106.753 46.9728C106.982 47.2089 107.097 47.5358 107.097 47.9534C107.097 48.2919 107.046 48.5585 106.943 48.7533C106.843 48.9465 106.695 49.0967 106.5 49.204C106.307 49.3113 106.096 49.365 105.866 49.365C105.498 49.365 105.2 49.2469 104.972 49.0108C104.746 48.7748 104.633 48.4347 104.633 47.9906ZM105.091 47.9906C105.091 48.3274 105.164 48.58 105.311 48.7484C105.458 48.9151 105.643 48.9985 105.866 48.9985C106.087 48.9985 106.271 48.9143 106.418 48.7459C106.565 48.5775 106.639 48.3208 106.639 47.9757C106.639 47.6505 106.564 47.4045 106.416 47.2378C106.269 47.0694 106.086 46.9852 105.866 46.9852C105.643 46.9852 105.458 47.0686 105.311 47.2353C105.164 47.402 105.091 47.6538 105.091 47.9906Z" fill="white"/>
<path d="M103.719 46.1874V45.6748H104.164V46.1874H103.719ZM103.719 49.3051V46.6753H104.164V49.3051H103.719Z" fill="white"/>
<path d="M103.332 48.9058L103.396 49.2995C103.271 49.3259 103.158 49.3391 103.059 49.3391C102.897 49.3391 102.772 49.3136 102.683 49.2624C102.594 49.2112 102.531 49.1443 102.495 49.0618C102.458 48.9776 102.44 48.8018 102.44 48.5343V47.0213H102.113V46.6746H102.44V46.0233L102.883 45.7559V46.6746H103.332V47.0213H102.883V48.5591C102.883 48.6862 102.891 48.7679 102.906 48.8043C102.922 48.8406 102.948 48.8695 102.982 48.8909C103.019 48.9124 103.07 48.9231 103.136 48.9231C103.186 48.9231 103.251 48.9173 103.332 48.9058Z" fill="white"/>
<path d="M99.5859 50.3134V46.6756H99.9921V47.0174C100.088 46.8837 100.196 46.7838 100.316 46.7177C100.437 46.6501 100.583 46.6162 100.755 46.6162C100.979 46.6162 101.177 46.674 101.349 46.7896C101.521 46.9051 101.65 47.0686 101.738 47.2799C101.825 47.4895 101.869 47.7198 101.869 47.9708C101.869 48.2399 101.82 48.4826 101.723 48.6988C101.627 48.9134 101.487 49.0785 101.302 49.1941C101.119 49.308 100.926 49.365 100.723 49.365C100.574 49.365 100.44 49.3336 100.321 49.2709C100.204 49.2081 100.108 49.1289 100.032 49.0331V50.3134H99.5859ZM99.9896 48.0054C99.9896 48.3439 100.058 48.594 100.195 48.7558C100.332 48.9176 100.498 48.9985 100.693 48.9985C100.891 48.9985 101.06 48.9151 101.201 48.7484C101.342 48.58 101.413 48.3199 101.413 47.9683C101.413 47.6332 101.344 47.3822 101.205 47.2155C101.068 47.0487 100.904 46.9654 100.713 46.9654C100.523 46.9654 100.354 47.0545 100.208 47.2328C100.062 47.4095 99.9896 47.667 99.9896 48.0054Z" fill="white"/>
<path d="M98.613 48.4586L99.0736 48.5156C99.0009 48.7847 98.8664 48.9935 98.6699 49.1421C98.4735 49.2907 98.2225 49.365 97.9171 49.365C97.5324 49.365 97.227 49.2469 97.0008 49.0108C96.7763 48.7731 96.6641 48.4405 96.6641 48.0129C96.6641 47.5704 96.778 47.227 97.0058 46.9827C97.2336 46.7384 97.5291 46.6162 97.8923 46.6162C98.244 46.6162 98.5312 46.7359 98.7541 46.9753C98.977 47.2147 99.0884 47.5514 99.0884 47.9856C99.0884 48.012 99.0876 48.0517 99.0859 48.1045H97.1247C97.1412 48.3934 97.2229 48.6146 97.3698 48.7682C97.5168 48.9217 97.7 48.9985 97.9196 48.9985C98.083 48.9985 98.2225 48.9555 98.3381 48.8697C98.4536 48.7838 98.5453 48.6468 98.613 48.4586ZM97.1494 47.738H98.6179C98.5981 47.5168 98.542 47.3509 98.4495 47.2403C98.3075 47.0686 98.1235 46.9827 97.8973 46.9827C97.6926 46.9827 97.5201 47.0512 97.3797 47.1882C97.2411 47.3253 97.1643 47.5085 97.1494 47.738Z" fill="white"/>
<path d="M96.0476 48.3422L96.4859 48.3992C96.4381 48.7013 96.3151 48.9382 96.117 49.1099C95.9205 49.2799 95.6786 49.365 95.3914 49.365C95.0315 49.365 94.7418 49.2477 94.5222 49.0133C94.3043 48.7772 94.1953 48.4396 94.1953 48.0005C94.1953 47.7165 94.2424 47.4681 94.3365 47.2551C94.4306 47.0421 94.5734 46.8828 94.7649 46.7772C94.958 46.6699 95.1677 46.6162 95.3939 46.6162C95.6795 46.6162 95.9131 46.6889 96.0947 46.8341C96.2763 46.9778 96.3927 47.1825 96.4438 47.4483L96.0105 47.5151C95.9692 47.3385 95.8957 47.2056 95.7901 47.1164C95.6861 47.0273 95.5598 46.9827 95.4112 46.9827C95.1867 46.9827 95.0043 47.0636 94.8639 47.2254C94.7236 47.3855 94.6534 47.6398 94.6534 47.9881C94.6534 48.3414 94.7211 48.5981 94.8565 48.7583C94.9919 48.9184 95.1685 48.9985 95.3864 48.9985C95.5614 48.9985 95.7075 48.9448 95.8248 48.8375C95.942 48.7302 96.0163 48.5651 96.0476 48.3422Z" fill="white"/>
<path d="M93.359 48.4586L93.8196 48.5156C93.747 48.7847 93.6125 48.9935 93.416 49.1421C93.2195 49.2907 92.9686 49.365 92.6632 49.365C92.2785 49.365 91.9731 49.2469 91.7469 49.0108C91.5224 48.7731 91.4102 48.4405 91.4102 48.0129C91.4102 47.5704 91.5241 47.227 91.7519 46.9827C91.9797 46.7384 92.2752 46.6162 92.6384 46.6162C92.9901 46.6162 93.2773 46.7359 93.5002 46.9753C93.7231 47.2147 93.8345 47.5514 93.8345 47.9856C93.8345 48.012 93.8337 48.0517 93.832 48.1045H91.8708C91.8873 48.3934 91.969 48.6146 92.1159 48.7682C92.2628 48.9217 92.4461 48.9985 92.6657 48.9985C92.8291 48.9985 92.9686 48.9555 93.0842 48.8697C93.1997 48.7838 93.2914 48.6468 93.359 48.4586ZM91.8955 47.738H93.364C93.3442 47.5168 93.2881 47.3509 93.1956 47.2403C93.0536 47.0686 92.8696 46.9827 92.6434 46.9827C92.4387 46.9827 92.2661 47.0512 92.1258 47.1882C91.9871 47.3253 91.9104 47.5085 91.8955 47.738Z" fill="white"/>
<path d="M88.0039 49.3051V45.6748H89.6135C89.9371 45.6748 90.1831 45.7078 90.3515 45.7739C90.5199 45.8382 90.6544 45.953 90.7551 46.1181C90.8558 46.2832 90.9062 46.4656 90.9062 46.6653C90.9062 46.9229 90.8228 47.14 90.6561 47.3166C90.4893 47.4933 90.2318 47.6055 89.8835 47.6534C90.0106 47.7145 90.1072 47.7748 90.1732 47.8342C90.3135 47.963 90.4464 48.1239 90.5719 48.3171L91.2034 49.3051H90.5991L90.1187 48.5499C89.9784 48.3319 89.8628 48.1652 89.772 48.0496C89.6812 47.9341 89.5995 47.8532 89.5269 47.8069C89.4559 47.7607 89.3832 47.7285 89.3089 47.7104C89.2545 47.6988 89.1653 47.693 89.0415 47.693H88.4843V49.3051H88.0039ZM88.4843 47.277H89.517C89.7365 47.277 89.9082 47.2547 90.032 47.2101C90.1559 47.1639 90.25 47.0913 90.3143 46.9922C90.3787 46.8915 90.4109 46.7826 90.4109 46.6653C90.4109 46.4937 90.3482 46.3525 90.2227 46.2419C90.0989 46.1313 89.9024 46.076 89.6333 46.076H88.4843V47.277Z" fill="white"/>
<path d="M85.3594 49.3051V45.6748H85.8398V49.3051H85.3594Z" fill="white"/>
<path d="M81.5469 49.3051L82.9411 45.6748H83.4586L84.9444 49.3051H84.3972L83.9737 48.2056H82.4557L82.057 49.3051H81.5469ZM82.5944 47.8144H83.8251L83.4462 46.809C83.3307 46.5036 83.2448 46.2526 83.1887 46.0562C83.1425 46.2889 83.0773 46.5201 82.9931 46.7495L82.5944 47.8144Z" fill="white"/>
<path d="M79.8395 48.4586L80.3001 48.5156C80.2275 48.7847 80.0929 48.9935 79.8965 49.1421C79.7 49.2907 79.4491 49.365 79.1437 49.365C78.759 49.365 78.4536 49.2469 78.2274 49.0108C78.0029 48.7731 77.8906 48.4405 77.8906 48.0129C77.8906 47.5704 78.0045 47.227 78.2324 46.9827C78.4602 46.7384 78.7557 46.6162 79.1189 46.6162C79.4705 46.6162 79.7578 46.7359 79.9807 46.9753C80.2035 47.2147 80.315 47.5514 80.315 47.9856C80.315 48.012 80.3142 48.0517 80.3125 48.1045H78.3512C78.3677 48.3934 78.4495 48.6146 78.5964 48.7682C78.7433 48.9217 78.9266 48.9985 79.1461 48.9985C79.3096 48.9985 79.4491 48.9555 79.5646 48.8697C79.6802 48.7838 79.7718 48.6468 79.8395 48.4586ZM78.376 47.738H79.8445C79.8247 47.5168 79.7685 47.3509 79.6761 47.2403C79.5341 47.0686 79.35 46.9827 79.1238 46.9827C78.9191 46.9827 78.7466 47.0512 78.6063 47.1882C78.4676 47.3253 78.3908 47.5085 78.376 47.738Z" fill="white"/>
<path d="M75.2656 49.3051V45.6748H75.7114V46.9774C75.9194 46.7363 76.1819 46.6158 76.4988 46.6158C76.6937 46.6158 76.8629 46.6546 77.0065 46.7322C77.1501 46.8081 77.2525 46.9138 77.3136 47.0492C77.3763 47.1846 77.4077 47.381 77.4077 47.6386V49.3051H76.9619V47.6386C76.9619 47.4157 76.9132 47.2539 76.8158 47.1532C76.7201 47.0508 76.5839 46.9997 76.4072 46.9997C76.2752 46.9997 76.1505 47.0343 76.0333 47.1037C75.9177 47.1713 75.8352 47.2638 75.7857 47.381C75.7361 47.4982 75.7114 47.66 75.7114 47.8664V49.3051H75.2656Z" fill="white"/>
<path d="M73.1961 49.3051V46.1032H72V45.6748H74.8775V46.1032H73.6765V49.3051H73.1961Z" fill="white"/>
<rect x="180.078" y="14.7871" width="33.0423" height="30.521" rx="15.2605" fill="#6524EB"/>
<path d="M208.176 29.5387C208.176 29.962 208.243 30.6012 208.176 31.0096C205.781 42.4376 194.202 44.4856 193.014 43.852C192.901 43.7917 194.202 41.0287 193.806 40.2312C189.789 40.2312 184.867 33.8383 184.867 30.2176C184.867 25.0424 189.689 20.334 196.128 20.334C202.567 20.334 208.176 24.3635 208.176 29.5387Z" fill="white"/>
<path d="M207.9 29.9308C207.9 24.7556 202.906 20.5602 196.467 20.5602C190.027 20.5602 184.807 24.7556 184.807 29.9308L184.808 30.0519C184.876 34.3235 189.404 38.9247 194.314 39.9942C194.541 40.0434 193.689 43.2862 193.689 43.2862L195.217 42.8902C195.217 42.8902 205.344 41.3627 207.663 31.818C207.803 31.245 207.89 30.6561 207.899 30.0519L207.9 29.9308ZM209.258 29.9308C209.258 30.6334 209.152 31.3099 209.022 31.9713C206.725 43.6256 191.938 45.2663 191.938 45.2663C191.938 45.2663 193.062 40.9537 192.787 40.8535C187.975 39.0997 183.676 35.0269 183.676 29.9308C183.676 23.9123 189.646 19.4287 196.467 19.4287C203.288 19.4287 209.258 23.9123 209.258 29.9308Z" fill="#6524EB"/>
<path d="M190.804 43.7823C194.326 43.6461 197.922 43.0894 200.366 41.8656C206.263 38.9132 207.887 35.392 208.424 31.4174L193.115 37.8644L190.804 43.7823Z" fill="white"/>
<ellipse cx="199.462" cy="31.1798" rx="8.71245" ry="9.90051" fill="white"/>
<ellipse cx="196.599" cy="30.8429" rx="11.744" ry="10.2179" fill="white"/>
<rect x="187.473" y="25.7695" width="14.4492" height="7.43921" rx="3.71961" fill="#6524EB"/>
<rect x="189.332" y="27.6299" width="1.8598" height="3.71961" rx="0.929902" fill="white"/>
<rect x="192.336" y="27.6299" width="1.8598" height="3.71961" rx="0.929902" fill="white"/>
<path d="M198.218 14.7721C198.218 15.8657 197.357 16.7522 196.295 16.7522C195.232 16.7522 194.371 15.8657 194.371 14.7721C194.371 13.6785 195.232 12.792 196.295 12.792C197.357 12.792 198.218 13.6785 198.218 14.7721Z" fill="white"/>
<path d="M198.192 14.8288C198.192 13.7968 197.368 12.9571 196.343 12.9311L196.294 12.9305C195.245 12.9305 194.395 13.7804 194.395 14.8288L194.396 14.8777C194.422 15.8872 195.235 16.7007 196.245 16.7263L196.294 16.7269C197.326 16.7269 198.165 15.9034 198.191 14.8777L198.192 14.8288ZM199.122 14.8288C199.122 16.391 197.856 17.6574 196.294 17.6574C194.731 17.6574 193.465 16.391 193.465 14.8288C193.465 13.2665 194.731 12 196.294 12C197.856 12 199.122 13.2665 199.122 14.8288Z" fill="#6524EB"/>
<path d="M197.093 16.7529L197.54 20.6H194.824L195.446 16.7529H197.093ZM196.043 17.3768L195.623 19.9761H196.773L196.471 17.3768H196.043Z" fill="#6524EB"/>
<path d="M196.068 17.0908H196.505L196.975 20.7116H195.391L196.068 17.0908Z" fill="white"/>
</svg>
