<svg width="390" height="104" viewBox="0 0 390 104" fill="none" xmlns="http://www.w3.org/2000/svg">
<path d="M0 17.5349C0 9.98694 5.92055 3.80244 13.4648 3.56702C46.7645 2.52788 134.688 -0.0201811 195.589 0.00012061C255.955 0.020244 343.343 2.54082 376.531 3.56989C384.077 3.80387 390 9.98911 390 17.5385V86.4614C390 94.0107 384.077 100.196 376.531 100.43C343.343 101.459 255.955 103.98 195.589 104C134.688 104.02 46.7644 101.472 13.4648 100.433C5.92055 100.197 0 94.0129 0 86.465V17.5349Z" fill="white"/>
<path d="M41.4321 55.4545C40.9681 59.2625 39.7761 62.1825 37.8561 64.2145C35.9521 66.2305 33.4161 67.2385 30.2481 67.2385C29.3841 67.2385 28.5761 67.1825 27.8241 67.0705C27.0721 66.9585 26.3121 66.7905 25.5441 66.5665L25.8801 63.9505C25.9121 63.7105 26.0001 63.5025 26.1441 63.3265C26.3041 63.1505 26.5441 63.0625 26.8641 63.0625C27.0241 63.0625 27.2081 63.0865 27.4161 63.1345C27.6241 63.1665 27.8561 63.2145 28.1121 63.2785C28.3841 63.3265 28.6881 63.3745 29.0241 63.4225C29.3761 63.4545 29.7761 63.4705 30.2241 63.4705C31.0561 63.4705 31.8401 63.3345 32.5761 63.0625C33.3121 62.7905 33.9761 62.3425 34.5681 61.7185C35.1601 61.0945 35.6561 60.2785 36.0561 59.2705C36.4721 58.2625 36.7681 57.0225 36.9441 55.5505L39.7521 32.4625H44.2401L41.4321 55.4545ZM56.0098 63.8545C57.1778 63.8545 58.2418 63.5345 59.2018 62.8945C60.1618 62.2545 60.9778 61.4065 61.6498 60.3505C62.3218 59.2785 62.8418 58.0465 63.2098 56.6545C63.5778 55.2625 63.7618 53.8065 63.7618 52.2865C63.7618 50.0465 63.3218 48.3585 62.4418 47.2225C61.5618 46.0865 60.2898 45.5185 58.6258 45.5185C57.4418 45.5185 56.3698 45.8385 55.4098 46.4785C54.4658 47.1025 53.6578 47.9505 52.9858 49.0225C52.3138 50.0785 51.7938 51.3025 51.4258 52.6945C51.0578 54.0865 50.8738 55.5425 50.8738 57.0625C50.8738 59.3025 51.3058 60.9985 52.1698 62.1505C53.0498 63.2865 54.3298 63.8545 56.0098 63.8545ZM55.6258 67.1905C54.2978 67.1905 53.0818 66.9665 51.9778 66.5185C50.8738 66.0545 49.9218 65.3905 49.1218 64.5265C48.3218 63.6625 47.6978 62.6065 47.2498 61.3585C46.8018 60.1105 46.5778 58.6865 46.5778 57.0865C46.5778 55.0385 46.8978 53.1105 47.5378 51.3025C48.1778 49.4945 49.0498 47.9105 50.1538 46.5505C51.2738 45.1905 52.5858 44.1185 54.0898 43.3345C55.6098 42.5505 57.2498 42.1585 59.0098 42.1585C60.3378 42.1585 61.5538 42.3905 62.6578 42.8545C63.7618 43.3025 64.7138 43.9585 65.5138 44.8225C66.3138 45.6865 66.9378 46.7505 67.3858 48.0145C67.8338 49.2625 68.0578 50.6785 68.0578 52.2625C68.0578 54.2945 67.7378 56.2145 67.0978 58.0225C66.4578 59.8305 65.5778 61.4145 64.4578 62.7745C63.3538 64.1345 62.0418 65.2145 60.5218 66.0145C59.0018 66.7985 57.3698 67.1905 55.6258 67.1905ZM78.8064 42.5425L75.8784 66.8545H71.6784L74.6064 42.5425H78.8064ZM80.4144 34.9105C80.4144 35.3265 80.3264 35.7185 80.1504 36.0865C79.9904 36.4385 79.7664 36.7585 79.4784 37.0465C79.2064 37.3185 78.8944 37.5345 78.5424 37.6945C78.1904 37.8545 77.8224 37.9345 77.4384 37.9345C77.0704 37.9345 76.7104 37.8545 76.3584 37.6945C76.0064 37.5345 75.6944 37.3185 75.4224 37.0465C75.1664 36.7585 74.9584 36.4385 74.7984 36.0865C74.6384 35.7185 74.5584 35.3265 74.5584 34.9105C74.5584 34.4945 74.6384 34.1025 74.7984 33.7345C74.9584 33.3665 75.1744 33.0465 75.4464 32.7745C75.7184 32.4865 76.0304 32.2625 76.3824 32.1025C76.7344 31.9265 77.0944 31.8385 77.4624 31.8385C77.8464 31.8385 78.2144 31.9185 78.5664 32.0785C78.9184 32.2385 79.2304 32.4625 79.5024 32.7505C79.7904 33.0225 80.0144 33.3505 80.1744 33.7345C80.3344 34.1025 80.4144 34.4945 80.4144 34.9105ZM82.7743 66.8545L85.6783 42.5185H87.8143C88.7743 42.5185 89.2543 42.9985 89.2543 43.9585L88.8943 48.6625C90.1903 46.5185 91.6463 44.9025 93.2623 43.8145C94.8943 42.7265 96.5823 42.1825 98.3263 42.1825C100.134 42.1825 101.534 42.7905 102.526 44.0065C103.534 45.2225 104.038 46.9985 104.038 49.3345C104.038 49.6545 104.03 49.9825 104.014 50.3185C103.998 50.6545 103.966 51.0065 103.918 51.3745L102.094 66.8545H97.8223L99.6463 51.3745C99.6783 51.0545 99.7023 50.7505 99.7183 50.4625C99.7503 50.1585 99.7663 49.8705 99.7663 49.5985C99.7663 48.2865 99.5183 47.3185 99.0223 46.6945C98.5423 46.0545 97.7823 45.7345 96.7423 45.7345C95.9743 45.7345 95.1903 45.9425 94.3903 46.3585C93.6063 46.7745 92.8463 47.3665 92.1103 48.1345C91.3743 48.8865 90.6863 49.8065 90.0463 50.8945C89.4223 51.9665 88.8863 53.1665 88.4383 54.4945L87.0463 66.8545H82.7743Z" fill="#24252C"/>
<path d="M291.651 57.7046C291.651 58.8556 292.052 59.8316 292.852 60.6323C293.703 61.4331 294.704 61.8334 295.855 61.8334H303.137V70.5416H295.855C293.903 70.5416 292.052 70.1913 290.3 69.4906C288.598 68.7399 287.097 67.739 285.796 66.4878C284.544 65.1866 283.544 63.6852 282.793 61.9836C282.042 60.282 281.667 58.4553 281.667 56.5034V45.2428H276.262V36.91H281.667V23.3223H291.651V57.7046Z" fill="black"/>
<path d="M252.796 32.4043C255.499 32.4043 258.051 32.9298 260.454 33.9808C262.856 34.9817 264.933 36.383 266.684 38.1847C268.486 39.9364 269.887 41.9883 270.888 44.3405C271.939 46.6927 272.465 49.2201 272.465 51.9226C272.465 54.6752 271.939 57.2526 270.888 59.6549C269.887 62.0571 268.486 64.1591 266.684 65.9608C264.933 67.7125 262.856 69.1138 260.454 70.1648C258.051 71.1657 255.499 71.6662 252.796 71.6662C249.093 71.6662 246.015 70.6652 243.563 68.6633V68.5883L247.316 61.6818L247.391 61.7569C248.743 62.3574 250.119 62.6577 251.52 62.6577C252.972 62.6577 254.348 62.3825 255.649 61.8319C256.95 61.2814 258.076 60.5307 259.027 59.5798C260.028 58.5789 260.804 57.4278 261.354 56.1266C261.905 54.8254 262.18 53.424 262.18 51.9226C262.18 50.4713 261.905 49.12 261.354 47.8688C260.804 46.5676 260.028 45.4415 259.027 44.4906C258.076 43.5398 256.95 42.789 255.649 42.2385C254.348 41.688 252.972 41.4128 251.52 41.4128C250.019 41.4128 248.618 41.688 247.316 42.2385C246.065 42.789 244.964 43.5398 244.013 44.4906C243.062 45.4415 242.312 46.5676 241.761 47.8688C241.211 49.12 240.935 50.4713 240.935 51.9226V85.5542H230.801V33.0049H240.935V38.1097C243.638 34.3061 247.592 32.4043 252.796 32.4043Z" fill="black"/>
<path d="M187.277 70.5421L197.337 56.8792L206.495 61.0832L199.514 70.5421H187.277ZM213.252 51.9246L227.065 70.5421H214.753V70.467L201.09 51.9997L187.352 33.0068H199.514L207.096 45.7688L214.753 33.0068H227.065L226.915 33.0819L213.252 51.9246Z" fill="black"/>
<path d="M170.659 32.4043C173.311 32.4043 175.814 32.9298 178.166 33.9808C180.518 34.9817 182.57 36.358 184.322 38.1097C186.073 39.8613 187.45 41.9132 188.451 44.2654C189.502 46.6176 190.027 49.145 190.027 51.8476C190.027 53.2989 189.877 54.7002 189.577 56.0515L189.502 56.2016H170.434L165.629 48.5445H179.893C179.192 46.4425 178.016 44.7159 176.364 43.3646C174.763 42.0133 172.861 41.3377 170.659 41.3377C169.308 41.3377 168.031 41.6129 166.83 42.1635C165.629 42.714 164.578 43.4647 163.677 44.4156C162.827 45.3164 162.151 46.4175 161.65 47.7187C161.15 48.9699 160.9 50.3461 160.9 51.8476C160.9 52.9986 161.125 54.1998 161.575 55.4509C162.026 56.6521 162.676 57.7531 163.527 58.754C164.378 59.755 165.404 60.6058 166.605 61.3064C167.806 61.957 169.158 62.2824 170.659 62.2824C172.01 62.2824 173.236 62.1072 174.337 61.7569C175.488 61.3565 176.565 60.5057 177.565 59.2045L177.641 59.1294L177.791 59.2045L186.499 63.0331L186.349 63.1832C184.547 65.6855 182.245 67.6374 179.442 69.0387C176.69 70.44 173.762 71.1407 170.659 71.1407C167.956 71.1407 165.404 70.6402 163.002 69.6393C160.65 68.6383 158.598 67.262 156.846 65.5104C155.094 63.7587 153.693 61.7068 152.642 59.3546C151.641 57.0024 151.141 54.5 151.141 51.8476C151.141 49.145 151.641 46.6176 152.642 44.2654C153.693 41.9132 155.094 39.8613 156.846 38.1097C158.598 36.358 160.65 34.9817 163.002 33.9808C165.404 32.9298 167.956 32.4043 170.659 32.4043Z" fill="black"/>
<path d="M153.469 34.5063L152.568 36.0077L148.739 42.8391L148.664 42.764C147.013 41.8131 145.236 41.3377 143.334 41.3377C142.033 41.3377 140.807 41.5629 139.656 42.0133C138.505 42.4137 137.479 43.0143 136.578 43.815C135.677 44.5657 134.901 45.4666 134.251 46.5175C133.65 47.5685 133.25 48.6946 133.049 49.8957V70.5401H122.84V33.0049H133.049V37.8844C135.702 34.231 139.581 32.4043 144.685 32.4043C147.688 32.4043 150.591 33.105 153.394 34.5063H153.469Z" fill="black"/>
<path d="M292.129 36.835H301.325V45.2804L292.129 36.835Z" fill="black"/>
<path d="M225.548 80.0611L226.332 80.158C226.208 80.6161 225.979 80.9716 225.645 81.2245C225.311 81.4774 224.883 81.6039 224.363 81.6039C223.709 81.6039 223.189 81.4029 222.804 81.0011C222.422 80.5964 222.23 80.0301 222.23 79.3023C222.23 78.5491 222.424 77.9646 222.812 77.5487C223.2 77.1328 223.703 76.9248 224.321 76.9248C224.92 76.9248 225.409 77.1285 225.788 77.536C226.168 77.9435 226.357 78.5168 226.357 79.2559C226.357 79.3009 226.356 79.3683 226.353 79.4583H223.015C223.043 79.95 223.182 80.3266 223.432 80.588C223.682 80.8493 223.994 80.98 224.368 80.98C224.646 80.98 224.883 80.9069 225.08 80.7608C225.277 80.6147 225.433 80.3814 225.548 80.0611ZM223.057 78.8344H225.556C225.523 78.4578 225.427 78.1754 225.27 77.9871C225.028 77.6948 224.715 77.5487 224.33 77.5487C223.981 77.5487 223.688 77.6653 223.449 77.8986C223.213 78.1318 223.082 78.4437 223.057 78.8344Z" fill="black"/>
<path d="M221.18 79.8629L221.927 79.9599C221.845 80.4742 221.636 80.8774 221.298 81.1697C220.964 81.4592 220.552 81.6039 220.063 81.6039C219.451 81.6039 218.958 81.4044 218.584 81.0053C218.213 80.6034 218.027 80.0287 218.027 79.2812C218.027 78.7978 218.107 78.3749 218.268 78.0124C218.428 77.6499 218.671 77.3787 218.997 77.1988C219.326 77.0161 219.683 76.9248 220.068 76.9248C220.554 76.9248 220.951 77.0485 221.261 77.2958C221.57 77.5403 221.768 77.8887 221.855 78.3412L221.117 78.455C221.047 78.1543 220.922 77.9281 220.742 77.7763C220.565 77.6246 220.35 77.5487 220.097 77.5487C219.715 77.5487 219.404 77.6864 219.165 77.9618C218.927 78.2344 218.807 78.6672 218.807 79.2601C218.807 79.8615 218.922 80.2985 219.153 80.5711C219.383 80.8437 219.684 80.98 220.055 80.98C220.353 80.98 220.602 80.8887 220.801 80.706C221.001 80.5233 221.127 80.2423 221.18 79.8629Z" fill="black"/>
<path d="M216.422 76.1958V75.3232H217.181V76.1958H216.422ZM216.422 81.503V77.0263H217.181V81.503H216.422Z" fill="black"/>
<path d="M213.43 81.5021L211.727 77.0254H212.527L213.489 79.7064C213.593 79.9958 213.688 80.2965 213.775 80.6085C213.843 80.3724 213.937 80.0886 214.058 79.757L215.053 77.0254H215.832L214.138 81.5021H213.43Z" fill="black"/>
<path d="M209.391 81.5027V77.026H210.074V77.7047C210.248 77.3871 210.408 77.1777 210.554 77.0766C210.703 76.9754 210.866 76.9248 211.043 76.9248C211.299 76.9248 211.559 77.0063 211.823 77.1693L211.562 77.8733C211.376 77.7637 211.191 77.7089 211.005 77.7089C210.839 77.7089 210.69 77.7595 210.558 77.8606C210.426 77.959 210.332 78.0967 210.276 78.2737C210.192 78.5435 210.149 78.8386 210.149 79.159V81.5027H209.391Z" fill="black"/>
<path d="M207.743 80.0611L208.527 80.158C208.404 80.6161 208.175 80.9716 207.84 81.2245C207.506 81.4774 207.079 81.6039 206.559 81.6039C205.904 81.6039 205.384 81.4029 204.999 81.0011C204.617 80.5964 204.426 80.0301 204.426 79.3023C204.426 78.5491 204.62 77.9646 205.008 77.5487C205.395 77.1328 205.898 76.9248 206.517 76.9248C207.115 76.9248 207.604 77.1285 207.984 77.536C208.363 77.9435 208.553 78.5168 208.553 79.2559C208.553 79.3009 208.551 79.3683 208.548 79.4583H205.21C205.238 79.95 205.377 80.3266 205.627 80.588C205.877 80.8493 206.189 80.98 206.563 80.98C206.841 80.98 207.079 80.9069 207.275 80.7608C207.472 80.6147 207.628 80.3814 207.743 80.0611ZM205.252 78.8344H207.752C207.718 78.4578 207.622 78.1754 207.465 77.9871C207.223 77.6948 206.91 77.5487 206.525 77.5487C206.177 77.5487 205.883 77.6653 205.644 77.8986C205.408 78.1318 205.277 78.4437 205.252 78.8344Z" fill="black"/>
<path d="M198.828 79.5165L199.6 79.449C199.636 79.7582 199.72 80.0125 199.852 80.212C199.987 80.4087 200.195 80.5689 200.476 80.6926C200.757 80.8134 201.074 80.8738 201.425 80.8738C201.737 80.8738 202.012 80.8275 202.251 80.7347C202.49 80.642 202.667 80.5155 202.782 80.3553C202.9 80.1924 202.959 80.0153 202.959 79.8242C202.959 79.6303 202.903 79.4617 202.791 79.3184C202.678 79.1722 202.493 79.05 202.234 78.9516C202.068 78.887 201.702 78.7872 201.134 78.6523C200.566 78.5146 200.169 78.3854 199.941 78.2645C199.646 78.11 199.425 77.9189 199.279 77.6912C199.136 77.4608 199.064 77.2036 199.064 76.9198C199.064 76.6079 199.153 76.317 199.33 76.0472C199.507 75.7746 199.765 75.5681 200.105 75.4276C200.445 75.2871 200.823 75.2168 201.239 75.2168C201.697 75.2168 202.101 75.2913 202.449 75.4402C202.8 75.5863 203.07 75.8027 203.258 76.0894C203.447 76.376 203.548 76.7006 203.562 77.0631L202.778 77.1222C202.736 76.7315 202.592 76.4364 202.348 76.2369C202.106 76.0374 201.748 75.9376 201.273 75.9376C200.778 75.9376 200.417 76.029 200.19 76.2116C199.965 76.3915 199.852 76.6093 199.852 76.865C199.852 77.087 199.933 77.2697 200.093 77.413C200.25 77.5563 200.66 77.7039 201.324 77.8556C201.99 78.0046 202.446 78.1352 202.694 78.2477C203.053 78.4135 203.319 78.6242 203.49 78.88C203.662 79.1329 203.747 79.4252 203.747 79.7568C203.747 80.0856 203.653 80.3961 203.465 80.6884C203.277 80.9778 203.006 81.204 202.651 81.367C202.3 81.5272 201.904 81.6073 201.463 81.6073C200.903 81.6073 200.434 81.5258 200.055 81.3628C199.678 81.1998 199.382 80.9553 199.165 80.6293C198.952 80.3005 198.839 79.9296 198.828 79.5165Z" fill="black"/>
<path d="M196.031 80.8239L196.141 81.4941C195.927 81.5391 195.736 81.5616 195.567 81.5616C195.292 81.5616 195.078 81.518 194.927 81.4309C194.775 81.3438 194.668 81.23 194.606 81.0895C194.544 80.9461 194.513 80.6468 194.513 80.1916V77.616H193.957V77.0258H194.513V75.9172L195.268 75.4619V77.0258H196.031V77.616H195.268V80.2337C195.268 80.4501 195.281 80.5892 195.306 80.6511C195.334 80.7129 195.378 80.7621 195.437 80.7986C195.498 80.8351 195.586 80.8534 195.698 80.8534C195.782 80.8534 195.893 80.8436 196.031 80.8239Z" fill="black"/>
<path d="M189.844 80.1664L190.594 80.0484C190.636 80.3491 190.753 80.5795 190.944 80.7397C191.138 80.8999 191.408 80.98 191.753 80.98C192.102 80.98 192.36 80.9097 192.529 80.7692C192.698 80.6259 192.782 80.4587 192.782 80.2676C192.782 80.0962 192.707 79.9613 192.558 79.8629C192.454 79.7955 192.196 79.7098 191.783 79.6058C191.226 79.4653 190.84 79.3444 190.624 79.2433C190.41 79.1393 190.247 78.9974 190.135 78.8175C190.025 78.6348 189.97 78.4339 189.97 78.2147C189.97 78.0152 190.015 77.8311 190.105 77.6625C190.198 77.4911 190.323 77.3492 190.48 77.2367C190.598 77.1496 190.758 77.0766 190.961 77.0175C191.166 76.9557 191.385 76.9248 191.618 76.9248C191.97 76.9248 192.277 76.9754 192.542 77.0766C192.809 77.1777 193.005 77.3154 193.132 77.4897C193.258 77.6611 193.345 77.8915 193.393 78.181L192.651 78.2822C192.617 78.0517 192.519 77.8719 192.356 77.7426C192.196 77.6133 191.968 77.5487 191.673 77.5487C191.325 77.5487 191.076 77.6063 190.927 77.7215C190.778 77.8367 190.704 77.9716 190.704 78.1262C190.704 78.2245 190.735 78.3131 190.796 78.3918C190.858 78.4733 190.955 78.5407 191.087 78.5941C191.163 78.6222 191.387 78.6868 191.758 78.788C192.294 78.9313 192.668 79.0494 192.879 79.1421C193.092 79.232 193.26 79.3641 193.38 79.5383C193.501 79.7126 193.562 79.929 193.562 80.1875C193.562 80.4404 193.487 80.6793 193.338 80.9041C193.192 81.1261 192.98 81.299 192.702 81.4226C192.424 81.5435 192.109 81.6039 191.758 81.6039C191.176 81.6039 190.732 81.483 190.425 81.2414C190.122 80.9997 189.928 80.6414 189.844 80.1664Z" fill="black"/>
<path d="M188.312 76.1958V75.3232H189.071V76.1958H188.312ZM188.312 81.503V77.0263H189.071V81.503H188.312Z" fill="black"/>
<path d="M183.586 81.5027V77.026H184.269V77.6625C184.598 77.1707 185.073 76.9248 185.694 76.9248C185.963 76.9248 186.211 76.974 186.436 77.0723C186.663 77.1679 186.833 77.2944 186.946 77.4517C187.058 77.6091 187.137 77.796 187.182 78.0124C187.21 78.1529 187.224 78.3988 187.224 78.7501V81.5027H186.465V78.7796C186.465 78.4704 186.436 78.24 186.377 78.0883C186.318 77.9337 186.212 77.8114 186.06 77.7215C185.911 77.6288 185.736 77.5824 185.533 77.5824C185.21 77.5824 184.931 77.685 184.695 77.8901C184.461 78.0953 184.345 78.4845 184.345 79.0578V81.5027H183.586Z" fill="black"/>
<path d="M178.59 79.2643C178.59 78.4353 178.82 77.8213 179.281 77.4222C179.666 77.0906 180.135 76.9248 180.689 76.9248C181.305 76.9248 181.808 77.1271 182.198 77.5318C182.589 77.9337 182.784 78.4901 182.784 79.2011C182.784 79.7772 182.697 80.2311 182.523 80.5627C182.351 80.8915 182.1 81.1472 181.768 81.3299C181.439 81.5125 181.08 81.6039 180.689 81.6039C180.062 81.6039 179.555 81.4029 179.167 81.0011C178.782 80.5992 178.59 80.0203 178.59 79.2643ZM179.37 79.2643C179.37 79.8376 179.495 80.2676 179.745 80.5543C179.995 80.8381 180.31 80.98 180.689 80.98C181.066 80.98 181.379 80.8367 181.629 80.55C181.879 80.2634 182.004 79.8264 182.004 79.2391C182.004 78.6854 181.878 78.2667 181.625 77.9829C181.375 77.6962 181.063 77.5529 180.689 77.5529C180.31 77.5529 179.995 77.6948 179.745 77.9787C179.495 78.2625 179.37 78.6911 179.37 79.2643Z" fill="black"/>
<path d="M177.035 76.1958V75.3232H177.794V76.1958H177.035ZM177.035 81.503V77.0263H177.794V81.503H177.035Z" fill="black"/>
<path d="M176.375 80.8239L176.484 81.4941C176.271 81.5391 176.08 81.5616 175.911 81.5616C175.636 81.5616 175.422 81.518 175.27 81.4309C175.119 81.3438 175.012 81.23 174.95 81.0895C174.888 80.9461 174.857 80.6468 174.857 80.1916V77.616H174.301V77.0258H174.857V75.9172L175.612 75.4619V77.0258H176.375V77.616H175.612V80.2337C175.612 80.4501 175.624 80.5892 175.65 80.6511C175.678 80.7129 175.721 80.7621 175.78 80.7986C175.842 80.8351 175.929 80.8534 176.042 80.8534C176.126 80.8534 176.237 80.8436 176.375 80.8239Z" fill="black"/>
<path d="M169.996 83.2184V77.026H170.687V77.6077C170.85 77.3801 171.034 77.21 171.24 77.0976C171.445 76.9824 171.693 76.9248 171.986 76.9248C172.368 76.9248 172.705 77.0232 172.997 77.2199C173.29 77.4166 173.51 77.6948 173.659 78.0545C173.808 78.4114 173.883 78.8035 173.883 79.2306C173.883 79.6887 173.8 80.1018 173.634 80.4699C173.471 80.8353 173.232 81.1163 172.917 81.313C172.605 81.5069 172.277 81.6039 171.931 81.6039C171.678 81.6039 171.45 81.5505 171.248 81.4437C171.049 81.3369 170.884 81.202 170.755 81.039V83.2184H169.996ZM170.683 79.2896C170.683 79.8657 170.8 80.2915 171.033 80.5669C171.266 80.8423 171.549 80.98 171.88 80.98C172.218 80.98 172.506 80.8381 172.745 80.5542C172.986 80.2676 173.107 79.825 173.107 79.2264C173.107 78.6559 172.989 78.2288 172.753 77.9449C172.52 77.6611 172.24 77.5192 171.914 77.5192C171.591 77.5192 171.304 77.6709 171.054 77.9744C170.807 78.2751 170.683 78.7135 170.683 79.2896Z" fill="black"/>
<path d="M168.345 80.0611L169.129 80.158C169.005 80.6161 168.776 80.9716 168.442 81.2245C168.107 81.4774 167.68 81.6039 167.16 81.6039C166.506 81.6039 165.986 81.4029 165.601 81.0011C165.218 80.5964 165.027 80.0301 165.027 79.3023C165.027 78.5491 165.221 77.9646 165.609 77.5487C165.997 77.1328 166.5 76.9248 167.118 76.9248C167.717 76.9248 168.206 77.1285 168.585 77.536C168.965 77.9435 169.154 78.5168 169.154 79.2559C169.154 79.3009 169.153 79.3683 169.15 79.4583H165.811C165.84 79.95 165.979 80.3266 166.229 80.588C166.479 80.8493 166.791 80.98 167.165 80.98C167.443 80.98 167.68 80.9069 167.877 80.7608C168.074 80.6147 168.23 80.3814 168.345 80.0611ZM165.854 78.8344H168.353C168.32 78.4578 168.224 78.1754 168.067 77.9871C167.825 77.6948 167.512 77.5487 167.127 77.5487C166.778 77.5487 166.484 77.6653 166.246 77.8986C166.01 78.1318 165.879 78.4437 165.854 78.8344Z" fill="black"/>
<path d="M163.973 79.8629L164.72 79.9599C164.638 80.4742 164.429 80.8774 164.091 81.1697C163.757 81.4592 163.345 81.6039 162.856 81.6039C162.244 81.6039 161.751 81.4044 161.377 81.0053C161.006 80.6034 160.82 80.0287 160.82 79.2812C160.82 78.7978 160.9 78.3749 161.061 78.0124C161.221 77.6499 161.464 77.3787 161.79 77.1988C162.119 77.0161 162.476 76.9248 162.861 76.9248C163.347 76.9248 163.744 77.0485 164.054 77.2958C164.363 77.5403 164.561 77.8887 164.648 78.3412L163.91 78.455C163.84 78.1543 163.715 77.9281 163.535 77.7763C163.358 77.6246 163.143 77.5487 162.89 77.5487C162.508 77.5487 162.197 77.6864 161.958 77.9618C161.72 78.2344 161.6 78.6672 161.6 79.2601C161.6 79.8615 161.715 80.2985 161.946 80.5711C162.176 80.8437 162.477 80.98 162.848 80.98C163.146 80.98 163.395 80.8887 163.594 80.706C163.794 80.5233 163.92 80.2423 163.973 79.8629Z" fill="black"/>
<path d="M159.396 80.0611L160.18 80.158C160.056 80.6161 159.827 80.9716 159.493 81.2245C159.158 81.4774 158.731 81.6039 158.211 81.6039C157.556 81.6039 157.036 81.4029 156.651 81.0011C156.269 80.5964 156.078 80.0301 156.078 79.3023C156.078 78.5491 156.272 77.9646 156.66 77.5487C157.048 77.1328 157.551 76.9248 158.169 76.9248C158.768 76.9248 159.257 77.1285 159.636 77.536C160.015 77.9435 160.205 78.5168 160.205 79.2559C160.205 79.3009 160.204 79.3683 160.201 79.4583H156.862C156.89 79.95 157.029 80.3266 157.28 80.588C157.53 80.8493 157.842 80.98 158.215 80.98C158.494 80.98 158.731 80.9069 158.928 80.7608C159.124 80.6147 159.28 80.3814 159.396 80.0611ZM156.904 78.8344H159.404C159.37 78.4578 159.275 78.1754 159.117 77.9871C158.876 77.6948 158.562 77.5487 158.177 77.5487C157.829 77.5487 157.535 77.6653 157.296 77.8986C157.06 78.1318 156.93 78.4437 156.904 78.8344Z" fill="black"/>
<path d="M150.281 81.503V75.3232H153.021C153.572 75.3232 153.991 75.3794 154.277 75.4919C154.564 75.6015 154.793 75.7968 154.965 76.0778C155.136 76.3588 155.222 76.6694 155.222 77.0094C155.222 77.4478 155.08 77.8173 154.796 78.118C154.512 78.4187 154.074 78.6098 153.481 78.6913C153.697 78.7953 153.862 78.8979 153.974 78.9991C154.213 79.2183 154.439 79.4923 154.653 79.8211L155.728 81.503H154.699L153.881 80.2173C153.642 79.8463 153.446 79.5625 153.291 79.3658C153.136 79.1691 152.997 79.0314 152.874 78.9527C152.753 78.874 152.629 78.8192 152.503 78.7883C152.41 78.7686 152.258 78.7588 152.047 78.7588H151.099V81.503H150.281ZM151.099 78.0506H152.857C153.231 78.0506 153.523 78.0127 153.734 77.9368C153.944 77.8581 154.105 77.7344 154.214 77.5658C154.324 77.3944 154.379 77.2089 154.379 77.0094C154.379 76.7171 154.272 76.4769 154.058 76.2886C153.847 76.1003 153.513 76.0061 153.055 76.0061H151.099V78.0506Z" fill="black"/>
<path d="M145.777 81.503V75.3232H146.595V81.503H145.777Z" fill="black"/>
<path d="M139.293 81.503L141.666 75.3232H142.547L145.076 81.503H144.145L143.424 79.6314H140.84L140.161 81.503H139.293ZM141.076 78.9653H143.171L142.526 77.2539C142.329 76.734 142.183 76.3068 142.088 75.9724C142.009 76.3687 141.898 76.7621 141.755 77.1527L141.076 78.9653Z" fill="black"/>
<path d="M136.384 80.0611L137.168 80.158C137.044 80.6161 136.815 80.9716 136.481 81.2245C136.146 81.4774 135.719 81.6039 135.199 81.6039C134.545 81.6039 134.025 81.4029 133.64 81.0011C133.258 80.5964 133.066 80.0301 133.066 79.3023C133.066 78.5491 133.26 77.9646 133.648 77.5487C134.036 77.1328 134.539 76.9248 135.157 76.9248C135.756 76.9248 136.245 77.1285 136.624 77.536C137.004 77.9435 137.193 78.5168 137.193 79.2559C137.193 79.3009 137.192 79.3683 137.189 79.4583H133.85C133.879 79.95 134.018 80.3266 134.268 80.588C134.518 80.8493 134.83 80.98 135.204 80.98C135.482 80.98 135.719 80.9069 135.916 80.7608C136.113 80.6147 136.269 80.3814 136.384 80.0611ZM133.893 78.8344H136.392C136.359 78.4578 136.263 78.1754 136.106 77.9871C135.864 77.6948 135.551 77.5487 135.166 77.5487C134.817 77.5487 134.524 77.6653 134.285 77.8986C134.049 78.1318 133.918 78.4437 133.893 78.8344Z" fill="black"/>
<path d="M128.602 81.503V75.3232H129.36V77.5405C129.714 77.1302 130.161 76.9251 130.701 76.9251C131.032 76.9251 131.32 76.9911 131.565 77.1232C131.809 77.2525 131.984 77.4323 132.088 77.6628C132.194 77.8932 132.248 78.2276 132.248 78.666V81.503H131.489V78.666C131.489 78.2867 131.406 78.0113 131.24 77.8398C131.077 77.6656 130.846 77.5785 130.545 77.5785C130.32 77.5785 130.108 77.6375 129.908 77.7555C129.712 77.8707 129.571 78.0281 129.487 78.2276C129.402 78.4272 129.36 78.7026 129.36 79.0539V81.503H128.602Z" fill="black"/>
<path d="M125.075 81.503V76.0525H123.039V75.3232H127.937V76.0525H125.893V81.503H125.075Z" fill="black"/>
<rect x="307.016" y="22.7432" width="56.2464" height="51.9546" rx="11" fill="#6524EB"/>
<path d="M354.849 47.8563C354.849 48.5769 354.964 49.6649 354.849 50.3602C350.773 69.8136 331.062 73.2998 329.04 72.2212C328.847 72.1184 331.062 67.4152 330.388 66.0577C323.55 66.0577 315.172 55.1754 315.172 49.0119C315.172 40.2024 323.379 32.1875 334.341 32.1875C345.302 32.1875 354.849 39.0467 354.849 47.8563Z" fill="white"/>
<path d="M354.377 48.5227C354.377 39.7132 345.876 32.5716 334.914 32.5716C323.953 32.5716 315.067 39.7132 315.067 48.5227L315.068 48.7288C315.183 56.0002 322.892 63.8326 331.25 65.6531C331.635 65.737 330.186 71.257 330.186 71.257L332.787 70.5829C332.787 70.5829 350.025 67.9827 353.974 51.7353C354.211 50.7599 354.359 49.7574 354.375 48.7288L354.377 48.5227ZM356.688 48.5227C356.688 49.7188 356.508 50.8704 356.286 51.9962C352.376 71.8348 327.206 74.6276 327.206 74.6276C327.206 74.6276 329.118 67.2865 328.65 67.1159C320.46 64.1305 313.141 57.1975 313.141 48.5227C313.141 38.2778 323.303 30.6455 334.914 30.6455C346.525 30.6455 356.688 38.2777 356.688 48.5227Z" fill="#6524EB"/>
<path d="M325.275 72.1019C331.27 71.8702 337.392 70.9225 341.552 68.8393C351.59 63.8135 354.354 57.8196 355.269 51.0539L329.209 62.0283L325.275 72.1019Z" fill="white"/>
<ellipse cx="340.014" cy="50.6491" rx="14.8308" ry="16.8532" fill="white"/>
<ellipse cx="335.14" cy="50.0761" rx="19.9912" ry="17.3935" fill="white"/>
<rect x="319.609" y="41.4395" width="24.5963" height="12.6634" rx="6.33172" fill="#6524EB"/>
<rect x="322.77" y="44.6064" width="3.16586" height="6.33172" rx="1.58293" fill="white"/>
<rect x="327.883" y="44.6064" width="3.16586" height="6.33172" rx="1.58293" fill="white"/>
<path d="M337.896 22.7183C337.896 24.5798 336.43 26.0889 334.622 26.0889C332.814 26.0889 331.348 24.5798 331.348 22.7183C331.348 20.8567 332.814 19.3477 334.622 19.3477C336.43 19.3477 337.896 20.8567 337.896 22.7183Z" fill="white"/>
<path d="M337.851 22.8153C337.851 21.0586 336.449 19.6293 334.703 19.585L334.62 19.584C332.835 19.584 331.389 21.0307 331.389 22.8153L331.39 22.8986C331.433 24.6169 332.818 26.0018 334.536 26.0454L334.62 26.0464C336.377 26.0464 337.806 24.6446 337.85 22.8986L337.851 22.8153ZM339.435 22.8153C339.435 25.4746 337.279 27.6304 334.62 27.6304C331.961 27.6304 329.805 25.4746 329.805 22.8153C329.805 20.1559 331.961 18 334.62 18C337.279 18 339.435 20.1559 339.435 22.8153Z" fill="#6524EB"/>
<path d="M335.983 26.0898L336.744 32.6385H332.121L333.18 26.0898H335.983ZM334.196 27.1518L333.48 31.5766H335.439L334.925 27.1518H334.196Z" fill="#6524EB"/>
<path d="M334.236 26.667H334.98L335.779 32.8304H333.082L334.236 26.667Z" fill="white"/>
</svg>
