<svg width="390" height="104" viewBox="0 0 390 104" fill="none" xmlns="http://www.w3.org/2000/svg">
<path d="M0 17.5349C0 9.98694 5.92055 3.80244 13.4648 3.56702C46.7645 2.52788 134.688 -0.0201811 195.589 0.00012061C255.955 0.020244 343.343 2.54082 376.531 3.56989C384.077 3.80387 390 9.98911 390 17.5385V86.4614C390 94.0107 384.077 100.196 376.531 100.43C343.343 101.459 255.955 103.98 195.589 104C134.688 104.02 46.7644 101.472 13.4648 100.433C5.92055 100.197 0 94.0129 0 86.465V17.5349Z" fill="#6524EB"/>
<path d="M41.4321 55.4546C40.9681 59.2626 39.7761 62.1826 37.8561 64.2146C35.9521 66.2306 33.4161 67.2386 30.2481 67.2386C29.3841 67.2386 28.5761 67.1826 27.8241 67.0706C27.0721 66.9586 26.3121 66.7906 25.5441 66.5666L25.8801 63.9506C25.9121 63.7106 26.0001 63.5026 26.1441 63.3266C26.3041 63.1506 26.5441 63.0626 26.8641 63.0626C27.0241 63.0626 27.2081 63.0866 27.4161 63.1346C27.6241 63.1666 27.8561 63.2146 28.1121 63.2786C28.3841 63.3266 28.6881 63.3746 29.0241 63.4226C29.3761 63.4546 29.7761 63.4706 30.2241 63.4706C31.0561 63.4706 31.8401 63.3346 32.5761 63.0626C33.3121 62.7906 33.9761 62.3426 34.5681 61.7186C35.1601 61.0946 35.6561 60.2786 36.0561 59.2706C36.4721 58.2626 36.7681 57.0226 36.9441 55.5506L39.7521 32.4626H44.2401L41.4321 55.4546ZM56.0098 63.8546C57.1778 63.8546 58.2418 63.5346 59.2018 62.8946C60.1618 62.2546 60.9778 61.4066 61.6498 60.3506C62.3218 59.2786 62.8418 58.0466 63.2098 56.6546C63.5778 55.2626 63.7618 53.8066 63.7618 52.2866C63.7618 50.0466 63.3218 48.3586 62.4418 47.2226C61.5618 46.0866 60.2898 45.5186 58.6258 45.5186C57.4418 45.5186 56.3698 45.8386 55.4098 46.4786C54.4658 47.1026 53.6578 47.9506 52.9858 49.0226C52.3138 50.0786 51.7938 51.3026 51.4258 52.6946C51.0578 54.0866 50.8738 55.5426 50.8738 57.0626C50.8738 59.3026 51.3058 60.9986 52.1698 62.1506C53.0498 63.2866 54.3298 63.8546 56.0098 63.8546ZM55.6258 67.1906C54.2978 67.1906 53.0818 66.9666 51.9778 66.5186C50.8738 66.0546 49.9218 65.3906 49.1218 64.5266C48.3218 63.6626 47.6978 62.6066 47.2498 61.3586C46.8018 60.1106 46.5778 58.6866 46.5778 57.0866C46.5778 55.0386 46.8978 53.1106 47.5378 51.3026C48.1778 49.4946 49.0498 47.9106 50.1538 46.5506C51.2738 45.1906 52.5858 44.1186 54.0898 43.3346C55.6098 42.5506 57.2498 42.1586 59.0098 42.1586C60.3378 42.1586 61.5538 42.3906 62.6578 42.8546C63.7618 43.3026 64.7138 43.9586 65.5138 44.8226C66.3138 45.6866 66.9378 46.7506 67.3858 48.0146C67.8338 49.2626 68.0578 50.6786 68.0578 52.2626C68.0578 54.2946 67.7378 56.2146 67.0978 58.0226C66.4578 59.8306 65.5778 61.4146 64.4578 62.7746C63.3538 64.1346 62.0418 65.2146 60.5218 66.0146C59.0018 66.7986 57.3698 67.1906 55.6258 67.1906ZM78.8064 42.5426L75.8784 66.8546H71.6784L74.6064 42.5426H78.8064ZM80.4144 34.9106C80.4144 35.3266 80.3264 35.7186 80.1504 36.0866C79.9904 36.4386 79.7664 36.7586 79.4784 37.0466C79.2064 37.3186 78.8944 37.5346 78.5424 37.6946C78.1904 37.8546 77.8224 37.9346 77.4384 37.9346C77.0704 37.9346 76.7104 37.8546 76.3584 37.6946C76.0064 37.5346 75.6944 37.3186 75.4224 37.0466C75.1664 36.7586 74.9584 36.4386 74.7984 36.0866C74.6384 35.7186 74.5584 35.3266 74.5584 34.9106C74.5584 34.4946 74.6384 34.1026 74.7984 33.7346C74.9584 33.3666 75.1744 33.0466 75.4464 32.7746C75.7184 32.4866 76.0304 32.2626 76.3824 32.1026C76.7344 31.9266 77.0944 31.8386 77.4624 31.8386C77.8464 31.8386 78.2144 31.9186 78.5664 32.0786C78.9184 32.2386 79.2304 32.4626 79.5024 32.7506C79.7904 33.0226 80.0144 33.3506 80.1744 33.7346C80.3344 34.1026 80.4144 34.4946 80.4144 34.9106ZM82.7743 66.8546L85.6783 42.5186H87.8143C88.7743 42.5186 89.2543 42.9986 89.2543 43.9586L88.8943 48.6626C90.1903 46.5186 91.6463 44.9026 93.2623 43.8146C94.8943 42.7266 96.5823 42.1826 98.3263 42.1826C100.134 42.1826 101.534 42.7906 102.526 44.0066C103.534 45.2226 104.038 46.9986 104.038 49.3346C104.038 49.6546 104.03 49.9826 104.014 50.3186C103.998 50.6546 103.966 51.0066 103.918 51.3746L102.094 66.8546H97.8223L99.6463 51.3746C99.6783 51.0546 99.7023 50.7506 99.7183 50.4626C99.7503 50.1586 99.7663 49.8706 99.7663 49.5986C99.7663 48.2866 99.5183 47.3186 99.0223 46.6946C98.5423 46.0546 97.7823 45.7346 96.7423 45.7346C95.9743 45.7346 95.1903 45.9426 94.3903 46.3586C93.6063 46.7746 92.8463 47.3666 92.1103 48.1346C91.3743 48.8866 90.6863 49.8066 90.0463 50.8946C89.4223 51.9666 88.8863 53.1666 88.4383 54.4946L87.0463 66.8546H82.7743Z" fill="white"/>
<path d="M291.651 57.7042C291.651 58.8553 292.052 59.8312 292.852 60.6319C293.703 61.4327 294.704 61.8331 295.855 61.8331H303.137V70.5412H295.855C293.903 70.5412 292.052 70.1909 290.3 69.4903C288.598 68.7395 287.097 67.7386 285.796 66.4874C284.544 65.1862 283.544 63.6848 282.793 61.9832C282.042 60.2816 281.667 58.4549 281.667 56.5031V45.2425H276.262V36.9097H281.667V23.3219H291.651V57.7042Z" fill="white"/>
<path d="M252.796 32.404C255.499 32.404 258.051 32.9295 260.454 33.9805C262.856 34.9814 264.933 36.3828 266.684 38.1845C268.486 39.9361 269.887 41.988 270.888 44.3402C271.939 46.6924 272.465 49.2198 272.465 51.9224C272.465 54.6749 271.939 57.2524 270.888 59.6546C269.887 62.0569 268.486 64.1588 266.684 65.9605C264.933 67.7122 262.856 69.1135 260.454 70.1645C258.051 71.1654 255.499 71.6659 252.796 71.6659C249.093 71.6659 246.015 70.665 243.563 68.6631V68.588L247.316 61.6815L247.391 61.7566C248.743 62.3572 250.119 62.6574 251.52 62.6574C252.972 62.6574 254.348 62.3822 255.649 61.8317C256.95 61.2811 258.076 60.5304 259.027 59.5795C260.028 58.5786 260.804 57.4275 261.354 56.1263C261.905 54.8251 262.18 53.4238 262.18 51.9224C262.18 50.471 261.905 49.1197 261.354 47.8685C260.804 46.5673 260.028 45.4413 259.027 44.4904C258.076 43.5395 256.95 42.7888 255.649 42.2383C254.348 41.6877 252.972 41.4125 251.52 41.4125C250.019 41.4125 248.618 41.6877 247.316 42.2383C246.065 42.7888 244.964 43.5395 244.013 44.4904C243.062 45.4413 242.312 46.5673 241.761 47.8685C241.211 49.1197 240.935 50.471 240.935 51.9224V85.5539H230.801V33.0046H240.935V38.1094C243.638 34.3058 247.592 32.404 252.796 32.404Z" fill="white"/>
<path d="M187.277 70.5418L197.337 56.879L206.495 61.0829L199.514 70.5418H187.277ZM213.252 51.9243L227.065 70.5418H214.753V70.4667L201.09 51.9994L187.352 33.0066H199.514L207.096 45.7685L214.753 33.0066H227.065L226.915 33.0816L213.252 51.9243Z" fill="white"/>
<path d="M170.659 32.404C173.311 32.404 175.814 32.9295 178.166 33.9805C180.518 34.9814 182.57 36.3577 184.322 38.1094C186.073 39.861 187.45 41.9129 188.451 44.2652C189.502 46.6174 190.027 49.1447 190.027 51.8473C190.027 53.2986 189.877 54.7 189.577 56.0512L189.502 56.2014H170.434L165.629 48.5442H179.893C179.192 46.4422 178.016 44.7156 176.364 43.3643C174.763 42.013 172.861 41.3374 170.659 41.3374C169.308 41.3374 168.031 41.6127 166.83 42.1632C165.629 42.7137 164.578 43.4644 163.677 44.4153C162.827 45.3161 162.151 46.4172 161.65 47.7184C161.15 48.9696 160.9 50.3459 160.9 51.8473C160.9 52.9984 161.125 54.1995 161.575 55.4507C162.026 56.6518 162.676 57.7528 163.527 58.7538C164.378 59.7547 165.404 60.6055 166.605 61.3062C167.806 61.9568 169.158 62.2821 170.659 62.2821C172.01 62.2821 173.236 62.1069 174.337 61.7566C175.488 61.3562 176.565 60.5054 177.565 59.2042L177.641 59.1291L177.791 59.2042L186.499 63.0328L186.349 63.1829C184.547 65.6853 182.245 67.6371 179.442 69.0384C176.69 70.4397 173.762 71.1404 170.659 71.1404C167.956 71.1404 165.404 70.6399 163.002 69.639C160.65 68.638 158.598 67.2618 156.846 65.5101C155.094 63.7585 153.693 61.7065 152.642 59.3543C151.641 57.0021 151.141 54.4998 151.141 51.8473C151.141 49.1447 151.641 46.6174 152.642 44.2652C153.693 41.9129 155.094 39.861 156.846 38.1094C158.598 36.3577 160.65 34.9814 163.002 33.9805C165.404 32.9295 167.956 32.404 170.659 32.404Z" fill="white"/>
<path d="M153.469 34.506L152.568 36.0074L148.739 42.8388L148.664 42.7637C147.013 41.8129 145.236 41.3374 143.334 41.3374C142.033 41.3374 140.807 41.5626 139.656 42.013C138.505 42.4134 137.479 43.014 136.578 43.8147C135.677 44.5654 134.901 45.4663 134.251 46.5173C133.65 47.5683 133.25 48.6943 133.049 49.8954V70.5398H122.84V33.0046H133.049V37.8842C135.702 34.2307 139.581 32.404 144.685 32.404C147.688 32.404 150.591 33.1047 153.394 34.506H153.469Z" fill="white"/>
<path d="M292.129 36.8347H301.325V45.2801L292.129 36.8347Z" fill="white"/>
<path d="M225.548 80.0609L226.332 80.1578C226.208 80.6159 225.979 80.9714 225.645 81.2243C225.311 81.4772 224.883 81.6037 224.363 81.6037C223.709 81.6037 223.189 81.4028 222.804 81.0009C222.422 80.5962 222.23 80.03 222.23 79.3021C222.23 78.5489 222.424 77.9644 222.812 77.5485C223.2 77.1326 223.703 76.9246 224.321 76.9246C224.92 76.9246 225.409 77.1284 225.788 77.5359C226.168 77.9433 226.357 78.5166 226.357 79.2557C226.357 79.3007 226.356 79.3681 226.353 79.4581H223.015C223.043 79.9499 223.182 80.3264 223.432 80.5878C223.682 80.8491 223.994 80.9798 224.368 80.9798C224.646 80.9798 224.883 80.9068 225.08 80.7606C225.277 80.6145 225.433 80.3812 225.548 80.0609ZM223.057 78.8342H225.556C225.523 78.4576 225.427 78.1752 225.27 77.9869C225.028 77.6946 224.715 77.5485 224.33 77.5485C223.981 77.5485 223.688 77.6651 223.449 77.8984C223.213 78.1316 223.082 78.4436 223.057 78.8342Z" fill="white"/>
<path d="M221.18 79.8627L221.927 79.9597C221.845 80.474 221.636 80.8772 221.298 81.1695C220.964 81.459 220.552 81.6037 220.063 81.6037C219.451 81.6037 218.958 81.4042 218.584 81.0051C218.213 80.6032 218.027 80.0285 218.027 79.281C218.027 78.7977 218.107 78.3747 218.268 78.0122C218.428 77.6497 218.671 77.3785 218.997 77.1986C219.326 77.016 219.683 76.9246 220.068 76.9246C220.554 76.9246 220.951 77.0483 221.261 77.2956C221.57 77.5401 221.768 77.8885 221.855 78.341L221.117 78.4548C221.047 78.1541 220.922 77.9279 220.742 77.7761C220.565 77.6244 220.35 77.5485 220.097 77.5485C219.715 77.5485 219.404 77.6862 219.165 77.9616C218.927 78.2342 218.807 78.667 218.807 79.2599C218.807 79.8613 218.922 80.2983 219.153 80.5709C219.383 80.8435 219.684 80.9798 220.055 80.9798C220.353 80.9798 220.602 80.8885 220.801 80.7058C221.001 80.5232 221.127 80.2421 221.18 79.8627Z" fill="white"/>
<path d="M216.422 76.1956V75.3231H217.181V76.1956H216.422ZM216.422 81.5028V77.0261H217.181V81.5028H216.422Z" fill="white"/>
<path d="M213.43 81.5021L211.727 77.0253H212.527L213.489 79.7063C213.593 79.9958 213.688 80.2965 213.775 80.6084C213.843 80.3723 213.937 80.0885 214.058 79.7569L215.053 77.0253H215.832L214.138 81.5021H213.43Z" fill="white"/>
<path d="M209.391 81.5025V77.0258H210.074V77.7045C210.248 77.3869 210.408 77.1775 210.554 77.0764C210.703 76.9752 210.866 76.9246 211.043 76.9246C211.299 76.9246 211.559 77.0061 211.823 77.1691L211.562 77.8731C211.376 77.7635 211.191 77.7087 211.005 77.7087C210.839 77.7087 210.69 77.7593 210.558 77.8604C210.426 77.9588 210.332 78.0965 210.276 78.2735C210.192 78.5433 210.149 78.8384 210.149 79.1588V81.5025H209.391Z" fill="white"/>
<path d="M207.743 80.0609L208.527 80.1578C208.404 80.6159 208.175 80.9714 207.84 81.2243C207.506 81.4772 207.079 81.6037 206.559 81.6037C205.904 81.6037 205.384 81.4028 204.999 81.0009C204.617 80.5962 204.426 80.03 204.426 79.3021C204.426 78.5489 204.62 77.9644 205.008 77.5485C205.395 77.1326 205.898 76.9246 206.517 76.9246C207.115 76.9246 207.604 77.1284 207.984 77.5359C208.363 77.9433 208.553 78.5166 208.553 79.2557C208.553 79.3007 208.551 79.3681 208.548 79.4581H205.21C205.238 79.9499 205.377 80.3264 205.627 80.5878C205.877 80.8491 206.189 80.9798 206.563 80.9798C206.841 80.9798 207.079 80.9068 207.275 80.7606C207.472 80.6145 207.628 80.3812 207.743 80.0609ZM205.252 78.8342H207.752C207.718 78.4576 207.622 78.1752 207.465 77.9869C207.223 77.6946 206.91 77.5485 206.525 77.5485C206.177 77.5485 205.883 77.6651 205.644 77.8984C205.408 78.1316 205.277 78.4436 205.252 78.8342Z" fill="white"/>
<path d="M198.828 79.5163L199.6 79.4489C199.636 79.758 199.72 80.0123 199.852 80.2118C199.987 80.4086 200.195 80.5687 200.476 80.6924C200.757 80.8132 201.074 80.8737 201.425 80.8737C201.737 80.8737 202.012 80.8273 202.251 80.7346C202.49 80.6418 202.667 80.5154 202.782 80.3552C202.9 80.1922 202.959 80.0151 202.959 79.824C202.959 79.6301 202.903 79.4615 202.791 79.3182C202.678 79.172 202.493 79.0498 202.234 78.9514C202.068 78.8868 201.702 78.787 201.134 78.6522C200.566 78.5144 200.169 78.3852 199.941 78.2643C199.646 78.1098 199.425 77.9187 199.279 77.691C199.136 77.4606 199.064 77.2035 199.064 76.9196C199.064 76.6077 199.153 76.3168 199.33 76.047C199.507 75.7744 199.765 75.5679 200.105 75.4274C200.445 75.2869 200.823 75.2166 201.239 75.2166C201.697 75.2166 202.101 75.2911 202.449 75.44C202.8 75.5862 203.07 75.8026 203.258 76.0892C203.447 76.3758 203.548 76.7004 203.562 77.063L202.778 77.122C202.736 76.7313 202.592 76.4363 202.348 76.2367C202.106 76.0372 201.748 75.9374 201.273 75.9374C200.778 75.9374 200.417 76.0288 200.19 76.2114C199.965 76.3913 199.852 76.6091 199.852 76.8648C199.852 77.0868 199.933 77.2695 200.093 77.4128C200.25 77.5562 200.66 77.7037 201.324 77.8554C201.99 78.0044 202.446 78.1351 202.694 78.2475C203.053 78.4133 203.319 78.624 203.49 78.8798C203.662 79.1327 203.747 79.425 203.747 79.7566C203.747 80.0854 203.653 80.3959 203.465 80.6882C203.277 80.9776 203.006 81.2039 202.651 81.3669C202.3 81.527 201.904 81.6071 201.463 81.6071C200.903 81.6071 200.434 81.5256 200.055 81.3626C199.678 81.1996 199.382 80.9552 199.165 80.6292C198.952 80.3004 198.839 79.9294 198.828 79.5163Z" fill="white"/>
<path d="M196.031 80.8237L196.141 81.4939C195.927 81.5389 195.736 81.5614 195.567 81.5614C195.292 81.5614 195.078 81.5178 194.927 81.4307C194.775 81.3436 194.668 81.2298 194.606 81.0893C194.544 80.9459 194.513 80.6467 194.513 80.1914V77.6158H193.957V77.0256H194.513V75.917L195.268 75.4617V77.0256H196.031V77.6158H195.268V80.2335C195.268 80.4499 195.281 80.589 195.306 80.6509C195.334 80.7127 195.378 80.7619 195.437 80.7984C195.498 80.8349 195.586 80.8532 195.698 80.8532C195.782 80.8532 195.893 80.8434 196.031 80.8237Z" fill="white"/>
<path d="M189.844 80.1663L190.594 80.0482C190.636 80.3489 190.753 80.5794 190.944 80.7395C191.138 80.8997 191.408 80.9798 191.753 80.9798C192.102 80.9798 192.36 80.9096 192.529 80.7691C192.698 80.6257 192.782 80.4585 192.782 80.2674C192.782 80.096 192.707 79.9611 192.558 79.8627C192.454 79.7953 192.196 79.7096 191.783 79.6056C191.226 79.4651 190.84 79.3443 190.624 79.2431C190.41 79.1391 190.247 78.9972 190.135 78.8173C190.025 78.6347 189.97 78.4337 189.97 78.2145C189.97 78.015 190.015 77.8309 190.105 77.6623C190.198 77.4909 190.323 77.349 190.48 77.2366C190.598 77.1494 190.758 77.0764 190.961 77.0174C191.166 76.9555 191.385 76.9246 191.618 76.9246C191.97 76.9246 192.277 76.9752 192.542 77.0764C192.809 77.1775 193.005 77.3152 193.132 77.4895C193.258 77.6609 193.345 77.8913 193.393 78.1808L192.651 78.282C192.617 78.0515 192.519 77.8717 192.356 77.7424C192.196 77.6131 191.968 77.5485 191.673 77.5485C191.325 77.5485 191.076 77.6061 190.927 77.7213C190.778 77.8365 190.704 77.9714 190.704 78.126C190.704 78.2244 190.735 78.3129 190.796 78.3916C190.858 78.4731 190.955 78.5405 191.087 78.5939C191.163 78.622 191.387 78.6867 191.758 78.7878C192.294 78.9311 192.668 79.0492 192.879 79.1419C193.092 79.2318 193.26 79.3639 193.38 79.5382C193.501 79.7124 193.562 79.9288 193.562 80.1873C193.562 80.4403 193.487 80.6791 193.338 80.9039C193.192 81.126 192.98 81.2988 192.702 81.4224C192.424 81.5433 192.109 81.6037 191.758 81.6037C191.176 81.6037 190.732 81.4829 190.425 81.2412C190.122 80.9995 189.928 80.6412 189.844 80.1663Z" fill="white"/>
<path d="M188.312 76.1956V75.3231H189.071V76.1956H188.312ZM188.312 81.5028V77.0261H189.071V81.5028H188.312Z" fill="white"/>
<path d="M183.586 81.5025V77.0258H184.269V77.6623C184.598 77.1705 185.073 76.9246 185.694 76.9246C185.963 76.9246 186.211 76.9738 186.436 77.0722C186.663 77.1677 186.833 77.2942 186.946 77.4515C187.058 77.6089 187.137 77.7958 187.182 78.0122C187.21 78.1527 187.224 78.3986 187.224 78.7499V81.5025H186.465V78.7794C186.465 78.4703 186.436 78.2398 186.377 78.0881C186.318 77.9335 186.212 77.8113 186.06 77.7213C185.911 77.6286 185.736 77.5822 185.533 77.5822C185.21 77.5822 184.931 77.6848 184.695 77.8899C184.461 78.0951 184.345 78.4843 184.345 79.0576V81.5025H183.586Z" fill="white"/>
<path d="M178.59 79.2642C178.59 78.4351 178.82 77.8211 179.281 77.422C179.666 77.0904 180.135 76.9246 180.689 76.9246C181.305 76.9246 181.808 77.127 182.198 77.5316C182.589 77.9335 182.784 78.4899 182.784 79.2009C182.784 79.777 182.697 80.2309 182.523 80.5625C182.351 80.8913 182.1 81.147 181.768 81.3297C181.439 81.5124 181.08 81.6037 180.689 81.6037C180.062 81.6037 179.555 81.4028 179.167 81.0009C178.782 80.599 178.59 80.0201 178.59 79.2642ZM179.37 79.2642C179.37 79.8375 179.495 80.2674 179.745 80.5541C179.995 80.8379 180.31 80.9798 180.689 80.9798C181.066 80.9798 181.379 80.8365 181.629 80.5499C181.879 80.2632 182.004 79.8262 182.004 79.2389C182.004 78.6852 181.878 78.2665 181.625 77.9827C181.375 77.696 181.063 77.5527 180.689 77.5527C180.31 77.5527 179.995 77.6946 179.745 77.9785C179.495 78.2623 179.37 78.6909 179.37 79.2642Z" fill="white"/>
<path d="M177.035 76.1956V75.3231H177.794V76.1956H177.035ZM177.035 81.5028V77.0261H177.794V81.5028H177.035Z" fill="white"/>
<path d="M176.375 80.8237L176.484 81.4939C176.271 81.5389 176.08 81.5614 175.911 81.5614C175.636 81.5614 175.422 81.5178 175.27 81.4307C175.119 81.3436 175.012 81.2298 174.95 81.0893C174.888 80.9459 174.857 80.6467 174.857 80.1914V77.6158H174.301V77.0256H174.857V75.917L175.612 75.4617V77.0256H176.375V77.6158H175.612V80.2335C175.612 80.4499 175.624 80.589 175.65 80.6509C175.678 80.7127 175.721 80.7619 175.78 80.7984C175.842 80.8349 175.929 80.8532 176.042 80.8532C176.126 80.8532 176.237 80.8434 176.375 80.8237Z" fill="white"/>
<path d="M169.996 83.2182V77.0258H170.687V77.6075C170.85 77.3799 171.034 77.2099 171.24 77.0975C171.445 76.9822 171.693 76.9246 171.986 76.9246C172.368 76.9246 172.705 77.023 172.997 77.2197C173.29 77.4164 173.51 77.6946 173.659 78.0543C173.808 78.4112 173.883 78.8033 173.883 79.2304C173.883 79.6885 173.8 80.1016 173.634 80.4698C173.471 80.8351 173.232 81.1161 172.917 81.3128C172.605 81.5067 172.277 81.6037 171.931 81.6037C171.678 81.6037 171.45 81.5503 171.248 81.4435C171.049 81.3367 170.884 81.2018 170.755 81.0388V83.2182H169.996ZM170.683 79.2895C170.683 79.8656 170.8 80.2913 171.033 80.5667C171.266 80.8421 171.549 80.9798 171.88 80.9798C172.218 80.9798 172.506 80.8379 172.745 80.5541C172.986 80.2674 173.107 79.8248 173.107 79.2262C173.107 78.6557 172.989 78.2286 172.753 77.9447C172.52 77.6609 172.24 77.519 171.914 77.519C171.591 77.519 171.304 77.6707 171.054 77.9743C170.807 78.2749 170.683 78.7133 170.683 79.2895Z" fill="white"/>
<path d="M168.345 80.0609L169.129 80.1578C169.005 80.6159 168.776 80.9714 168.442 81.2243C168.107 81.4772 167.68 81.6037 167.16 81.6037C166.506 81.6037 165.986 81.4028 165.601 81.0009C165.218 80.5962 165.027 80.03 165.027 79.3021C165.027 78.5489 165.221 77.9644 165.609 77.5485C165.997 77.1326 166.5 76.9246 167.118 76.9246C167.717 76.9246 168.206 77.1284 168.585 77.5359C168.965 77.9433 169.154 78.5166 169.154 79.2557C169.154 79.3007 169.153 79.3681 169.15 79.4581H165.811C165.84 79.9499 165.979 80.3264 166.229 80.5878C166.479 80.8491 166.791 80.9798 167.165 80.9798C167.443 80.9798 167.68 80.9068 167.877 80.7606C168.074 80.6145 168.23 80.3812 168.345 80.0609ZM165.854 78.8342H168.353C168.32 78.4576 168.224 78.1752 168.067 77.9869C167.825 77.6946 167.512 77.5485 167.127 77.5485C166.778 77.5485 166.484 77.6651 166.246 77.8984C166.01 78.1316 165.879 78.4436 165.854 78.8342Z" fill="white"/>
<path d="M163.973 79.8627L164.72 79.9597C164.638 80.474 164.429 80.8772 164.091 81.1695C163.757 81.459 163.345 81.6037 162.856 81.6037C162.244 81.6037 161.751 81.4042 161.377 81.0051C161.006 80.6032 160.82 80.0285 160.82 79.281C160.82 78.7977 160.9 78.3747 161.061 78.0122C161.221 77.6497 161.464 77.3785 161.79 77.1986C162.119 77.016 162.476 76.9246 162.861 76.9246C163.347 76.9246 163.744 77.0483 164.054 77.2956C164.363 77.5401 164.561 77.8885 164.648 78.341L163.91 78.4548C163.84 78.1541 163.715 77.9279 163.535 77.7761C163.358 77.6244 163.143 77.5485 162.89 77.5485C162.508 77.5485 162.197 77.6862 161.958 77.9616C161.72 78.2342 161.6 78.667 161.6 79.2599C161.6 79.8613 161.715 80.2983 161.946 80.5709C162.176 80.8435 162.477 80.9798 162.848 80.9798C163.146 80.9798 163.395 80.8885 163.594 80.7058C163.794 80.5232 163.92 80.2421 163.973 79.8627Z" fill="white"/>
<path d="M159.396 80.0609L160.18 80.1578C160.056 80.6159 159.827 80.9714 159.493 81.2243C159.158 81.4772 158.731 81.6037 158.211 81.6037C157.556 81.6037 157.036 81.4028 156.651 81.0009C156.269 80.5962 156.078 80.03 156.078 79.3021C156.078 78.5489 156.272 77.9644 156.66 77.5485C157.048 77.1326 157.551 76.9246 158.169 76.9246C158.768 76.9246 159.257 77.1284 159.636 77.5359C160.015 77.9433 160.205 78.5166 160.205 79.2557C160.205 79.3007 160.204 79.3681 160.201 79.4581H156.862C156.89 79.9499 157.029 80.3264 157.28 80.5878C157.53 80.8491 157.842 80.9798 158.215 80.9798C158.494 80.9798 158.731 80.9068 158.928 80.7606C159.124 80.6145 159.28 80.3812 159.396 80.0609ZM156.904 78.8342H159.404C159.37 78.4576 159.275 78.1752 159.117 77.9869C158.876 77.6946 158.562 77.5485 158.177 77.5485C157.829 77.5485 157.535 77.6651 157.296 77.8984C157.06 78.1316 156.93 78.4436 156.904 78.8342Z" fill="white"/>
<path d="M150.281 81.5028V75.3231H153.021C153.572 75.3231 153.991 75.3793 154.277 75.4917C154.564 75.6013 154.793 75.7966 154.965 76.0776C155.136 76.3586 155.222 76.6692 155.222 77.0092C155.222 77.4476 155.08 77.8172 154.796 78.1179C154.512 78.4186 154.074 78.6097 153.481 78.6912C153.697 78.7951 153.862 78.8977 153.974 78.9989C154.213 79.2181 154.439 79.4921 154.653 79.8209L155.728 81.5028H154.699L153.881 80.2171C153.642 79.8462 153.446 79.5623 153.291 79.3656C153.136 79.1689 152.997 79.0312 152.874 78.9525C152.753 78.8738 152.629 78.819 152.503 78.7881C152.41 78.7684 152.258 78.7586 152.047 78.7586H151.099V81.5028H150.281ZM151.099 78.0504H152.857C153.231 78.0504 153.523 78.0125 153.734 77.9366C153.944 77.8579 154.105 77.7343 154.214 77.5656C154.324 77.3942 154.379 77.2087 154.379 77.0092C154.379 76.7169 154.272 76.4767 154.058 76.2884C153.847 76.1001 153.513 76.006 153.055 76.006H151.099V78.0504Z" fill="white"/>
<path d="M145.777 81.5028V75.3231H146.595V81.5028H145.777Z" fill="white"/>
<path d="M139.293 81.5028L141.666 75.3231H142.547L145.076 81.5028H144.145L143.424 79.6312H140.84L140.161 81.5028H139.293ZM141.076 78.9652H143.171L142.526 77.2537C142.329 76.7338 142.183 76.3066 142.088 75.9722C142.009 76.3685 141.898 76.7619 141.755 77.1525L141.076 78.9652Z" fill="white"/>
<path d="M136.384 80.0609L137.168 80.1578C137.044 80.6159 136.815 80.9714 136.481 81.2243C136.146 81.4772 135.719 81.6037 135.199 81.6037C134.545 81.6037 134.025 81.4028 133.64 81.0009C133.258 80.5962 133.066 80.03 133.066 79.3021C133.066 78.5489 133.26 77.9644 133.648 77.5485C134.036 77.1326 134.539 76.9246 135.157 76.9246C135.756 76.9246 136.245 77.1284 136.624 77.5359C137.004 77.9433 137.193 78.5166 137.193 79.2557C137.193 79.3007 137.192 79.3681 137.189 79.4581H133.85C133.879 79.9499 134.018 80.3264 134.268 80.5878C134.518 80.8491 134.83 80.9798 135.204 80.9798C135.482 80.9798 135.719 80.9068 135.916 80.7606C136.113 80.6145 136.269 80.3812 136.384 80.0609ZM133.893 78.8342H136.392C136.359 78.4576 136.263 78.1752 136.106 77.9869C135.864 77.6946 135.551 77.5485 135.166 77.5485C134.817 77.5485 134.524 77.6651 134.285 77.8984C134.049 78.1316 133.918 78.4436 133.893 78.8342Z" fill="white"/>
<path d="M128.602 81.5028V75.3231H129.36V77.5404C129.714 77.1301 130.161 76.9249 130.701 76.9249C131.032 76.9249 131.32 76.9909 131.565 77.123C131.809 77.2523 131.984 77.4322 132.088 77.6626C132.194 77.893 132.248 78.2275 132.248 78.6659V81.5028H131.489V78.6659C131.489 78.2865 131.406 78.0111 131.24 77.8396C131.077 77.6654 130.846 77.5783 130.545 77.5783C130.32 77.5783 130.108 77.6373 129.908 77.7553C129.712 77.8706 129.571 78.0279 129.487 78.2275C129.402 78.427 129.36 78.7024 129.36 79.0537V81.5028H128.602Z" fill="white"/>
<path d="M125.075 81.5028V76.0523H123.039V75.3231H127.937V76.0523H125.893V81.5028H125.075Z" fill="white"/>
<rect x="307.016" y="22.7432" width="56.2464" height="51.9546" rx="25.9773" fill="#6524EB"/>
<path d="M354.849 47.8563C354.849 48.5769 354.964 49.6649 354.849 50.3602C350.773 69.8136 331.062 73.2998 329.04 72.2212C328.847 72.1184 331.062 67.4152 330.388 66.0577C323.55 66.0577 315.172 55.1754 315.172 49.0119C315.172 40.2024 323.379 32.1875 334.341 32.1875C345.302 32.1875 354.849 39.0467 354.849 47.8563Z" fill="white"/>
<path d="M354.377 48.5227C354.377 39.7132 345.876 32.5716 334.914 32.5716C323.953 32.5716 315.067 39.7132 315.067 48.5227L315.068 48.7288C315.183 56.0002 322.892 63.8326 331.25 65.6531C331.635 65.737 330.186 71.257 330.186 71.257L332.787 70.5829C332.787 70.5829 350.025 67.9827 353.974 51.7353C354.211 50.7599 354.359 49.7574 354.375 48.7288L354.377 48.5227ZM356.688 48.5227C356.688 49.7188 356.508 50.8704 356.286 51.9962C352.376 71.8348 327.206 74.6276 327.206 74.6276C327.206 74.6276 329.118 67.2865 328.65 67.1159C320.46 64.1305 313.141 57.1975 313.141 48.5227C313.141 38.2778 323.303 30.6455 334.914 30.6455C346.525 30.6455 356.688 38.2777 356.688 48.5227Z" fill="#6524EB"/>
<path d="M325.275 72.1019C331.27 71.8702 337.392 70.9225 341.552 68.8393C351.59 63.8135 354.354 57.8196 355.269 51.0539L329.209 62.0283L325.275 72.1019Z" fill="white"/>
<ellipse cx="340.014" cy="50.6491" rx="14.8308" ry="16.8532" fill="white"/>
<ellipse cx="335.14" cy="50.0761" rx="19.9912" ry="17.3935" fill="white"/>
<rect x="319.609" y="41.4395" width="24.5963" height="12.6634" rx="6.33172" fill="#6524EB"/>
<rect x="322.77" y="44.6064" width="3.16586" height="6.33172" rx="1.58293" fill="white"/>
<rect x="327.883" y="44.6064" width="3.16586" height="6.33172" rx="1.58293" fill="white"/>
<path d="M337.896 22.7183C337.896 24.5798 336.43 26.0889 334.622 26.0889C332.814 26.0889 331.348 24.5798 331.348 22.7183C331.348 20.8567 332.814 19.3477 334.622 19.3477C336.43 19.3477 337.896 20.8567 337.896 22.7183Z" fill="white"/>
<path d="M337.851 22.8153C337.851 21.0586 336.449 19.6293 334.703 19.585L334.62 19.584C332.835 19.584 331.389 21.0307 331.389 22.8153L331.39 22.8986C331.433 24.6169 332.818 26.0018 334.536 26.0454L334.62 26.0464C336.377 26.0464 337.806 24.6446 337.85 22.8986L337.851 22.8153ZM339.435 22.8153C339.435 25.4746 337.279 27.6304 334.62 27.6304C331.961 27.6304 329.805 25.4746 329.805 22.8153C329.805 20.1559 331.961 18 334.62 18C337.279 18 339.435 20.1559 339.435 22.8153Z" fill="#6524EB"/>
<path d="M335.983 26.0898L336.744 32.6385H332.121L333.18 26.0898H335.983ZM334.196 27.1518L333.48 31.5766H335.439L334.925 27.1518H334.196Z" fill="#6524EB"/>
<path d="M334.236 26.667H334.98L335.779 32.8304H333.082L334.236 26.667Z" fill="white"/>
</svg>
