<svg width="686" height="286" viewBox="0 0 686 286" fill="none" xmlns="http://www.w3.org/2000/svg">
<g clip-path="url(#clip0_661_1014)">
<path d="M410.004 150.667C410.185 197.814 440.06 241.651 484.668 257.79C507.335 266.04 532.177 266.947 555.388 260.419C577.783 254.072 597.684 240.79 612.508 222.883C642.972 186.072 646.372 132.171 621.711 91.4615C597.095 50.8881 548.271 29.264 501.668 38.6934C455.292 48.0774 418.98 86.0214 411.364 132.715C410.412 138.654 410.049 144.638 410.004 150.667C410.004 158.918 397.129 158.918 397.22 150.667C397.311 124.464 405.38 98.3521 420.793 77.0454C435.935 56.1014 456.788 40.144 481.041 31.304C530.591 13.1253 588.436 28.992 621.938 69.7468C638.666 90.1015 648.775 114.99 650.77 141.283C652.764 167.304 646.463 193.915 632.954 216.219C619.852 237.843 600.223 255.568 577.148 266.04C552.577 277.192 525.015 280.366 498.495 274.971C447.767 264.68 406.876 222.158 398.897 170.931C397.855 164.176 397.311 157.467 397.22 150.667C397.175 142.371 409.959 142.371 410.004 150.667Z" fill="#F9F9F9"/>
<path d="M403.608 157.058C391.096 157.058 378.675 157.058 366.162 157.058C336.242 157.058 306.232 157.058 276.312 157.058C240.045 157.058 203.869 157.058 167.602 157.058C136.322 157.058 104.951 157.058 73.6712 157.058C58.5299 157.058 43.2072 157.511 28.0658 157.058C27.8845 157.058 27.6125 157.058 27.4312 157.058C19.1805 157.058 19.1352 144.229 27.4312 144.274C39.9432 144.274 52.3646 144.274 64.8766 144.274C94.7966 144.274 124.807 144.274 154.727 144.274C190.994 144.274 227.17 144.274 263.437 144.274C294.717 144.274 326.088 144.274 357.368 144.274C372.509 144.274 387.832 143.821 402.973 144.274C403.155 144.274 403.427 144.274 403.608 144.274C411.859 144.183 411.859 157.058 403.608 157.058Z" fill="#F9F9F9"/>
<path d="M83.6459 150.623C83.6459 164.223 83.6459 177.732 83.6459 191.332C83.6459 213.001 83.6459 234.58 83.6459 256.249C83.6459 261.236 83.6459 266.223 83.6459 271.209C83.6459 279.46 70.8165 279.505 70.8619 271.209C70.8619 257.609 70.8619 244.1 70.8619 230.5C70.8619 208.831 70.8619 187.252 70.8619 165.583C70.8619 160.596 70.8619 155.609 70.8619 150.623C70.8619 142.372 83.6459 142.372 83.6459 150.623Z" fill="#F9F9F9"/>
<path d="M177.033 150.628C177.033 176.015 177.033 201.402 177.033 226.879C177.033 230.506 177.033 234.133 177.033 237.759C177.033 246.01 164.203 246.055 164.249 237.759C164.249 212.373 164.249 186.986 164.249 161.508C164.249 157.882 164.249 154.255 164.249 150.628C164.249 142.378 177.033 142.378 177.033 150.628Z" fill="#F9F9F9"/>
<circle cx="524.492" cy="151.51" r="27.5" fill="#F9F9F9"/>
<circle cx="524.496" cy="151.51" r="19.5" fill="white"/>
</g>
<defs>
<clipPath id="clip0_661_1014">
<rect width="686" height="286" fill="white"/>
</clipPath>
</defs>
</svg>
