<svg width="252" height="451" viewBox="0 0 252 451" fill="none" xmlns="http://www.w3.org/2000/svg">
<path d="M0 225.5C0 100.96 100.96 0 225.5 0H236.492C245.057 0 252 6.94303 252 15.5077V435.492C252 444.057 245.057 451 236.492 451H225.5C100.96 451 0 350.04 0 225.5V225.5Z" fill="#F3F1F8"/>
<g clip-path="url(#clip0_719_50)">
<ellipse cx="192.5" cy="225.5" rx="89.5" ry="89.5" transform="rotate(-90 192.5 225.5)" fill="#6524EB"/>
<path d="M236.047 228.849C236.047 249.905 216.56 266.974 192.523 266.974C168.486 266.974 149 249.905 149 228.849C149 207.794 168.486 190.725 192.523 190.725C216.56 190.725 236.047 207.794 236.047 228.849Z" fill="white"/>
<path d="M171.372 277.068C184.385 276.725 197.655 274.873 206.638 270.573C226.638 261.001 234.486 243.098 235.71 233.358L179.667 255.88L171.372 277.068Z" fill="white"/>
<path d="M199.583 169.287C199.583 173.346 196.387 176.636 192.444 176.636C188.501 176.636 185.305 173.346 185.305 169.287C185.305 165.228 188.501 161.938 192.444 161.938C196.387 161.938 199.583 165.228 199.583 169.287Z" fill="white"/>
<path d="M199.493 169.499C199.493 165.669 196.437 162.552 192.63 162.456L192.448 162.454C188.557 162.454 185.403 165.608 185.403 169.499L185.405 169.681C185.5 173.427 188.52 176.447 192.266 176.542L192.448 176.544C196.278 176.544 199.395 173.488 199.491 169.681L199.493 169.499ZM202.947 169.499C202.947 175.297 198.247 179.998 192.448 179.998C186.65 179.998 181.949 175.297 181.949 169.499C181.949 163.701 186.65 159 192.448 159C198.247 159 202.947 163.701 202.947 169.499Z" fill="white"/>
<path d="M191.606 177.898H193.227L194.969 191.337H189.09L191.606 177.898Z" fill="white"/>
<path d="M159.02 224.026C159.02 216.402 165.2 210.221 172.825 210.221H198.843C206.468 210.221 212.649 216.402 212.649 224.026V224.026C212.649 231.651 206.468 237.832 198.843 237.832H172.825C165.2 237.832 159.02 231.651 159.02 224.026V224.026Z" fill="#6524EB"/>
<path d="M165.918 220.575C165.918 218.669 167.463 217.124 169.369 217.124V217.124C171.275 217.124 172.821 218.669 172.821 220.575V227.478C172.821 229.384 171.275 230.93 169.369 230.93V230.93C167.463 230.93 165.918 229.384 165.918 227.478V220.575Z" fill="white"/>
<path d="M177.07 220.575C177.07 218.669 178.616 217.124 180.522 217.124V217.124C182.428 217.124 183.973 218.669 183.973 220.575V227.478C183.973 229.384 182.428 230.93 180.522 230.93V230.93C178.616 230.93 177.07 229.384 177.07 227.478V220.575Z" fill="white"/>
</g>
<defs>
<clipPath id="clip0_719_50">
<rect width="149" height="179" fill="white" transform="translate(103 136)"/>
</clipPath>
</defs>
</svg>
