<svg width="156" height="175" viewBox="0 0 156 175" fill="none" xmlns="http://www.w3.org/2000/svg">
<mask id="path-1-inside-1_632_764" fill="white">
<path d="M155.656 96.9675C155.656 139.951 120.811 174.796 77.828 174.796C34.8448 174.796 0 139.951 0 96.9675C0 53.9843 34.8448 19.1395 77.828 19.1395C120.811 19.1395 155.656 53.9843 155.656 96.9675ZM26.5097 96.9675C26.5097 125.31 49.4857 148.286 77.828 148.286C106.17 148.286 129.146 125.31 129.146 96.9675C129.146 68.6251 106.17 45.6491 77.828 45.6491C49.4857 45.6491 26.5097 68.6251 26.5097 96.9675Z"/>
</mask>
<path d="M155.656 96.9675C155.656 139.951 120.811 174.796 77.828 174.796C34.8448 174.796 0 139.951 0 96.9675C0 53.9843 34.8448 19.1395 77.828 19.1395C120.811 19.1395 155.656 53.9843 155.656 96.9675ZM26.5097 96.9675C26.5097 125.31 49.4857 148.286 77.828 148.286C106.17 148.286 129.146 125.31 129.146 96.9675C129.146 68.6251 106.17 45.6491 77.828 45.6491C49.4857 45.6491 26.5097 68.6251 26.5097 96.9675Z" fill="white" stroke="#787878" stroke-width="2" mask="url(#path-1-inside-1_632_764)"/>
<circle cx="77.8258" cy="96.9682" r="51.0992" fill="white"/>
<mask id="path-3-inside-2_632_764" fill="white">
<path d="M132.405 61.2056C140.905 74.1781 144.507 89.7542 142.564 105.141C140.621 120.529 133.26 134.721 121.802 145.173L121.141 144.448C132.426 134.153 139.676 120.174 141.59 105.018C143.503 89.8628 139.956 74.521 131.583 61.7437L132.405 61.2056Z"/>
</mask>
<path d="M132.405 61.2056C140.905 74.1781 144.507 89.7542 142.564 105.141C140.621 120.529 133.26 134.721 121.802 145.173L121.141 144.448C132.426 134.153 139.676 120.174 141.59 105.018C143.503 89.8628 139.956 74.521 131.583 61.7437L132.405 61.2056Z" stroke="#787878" stroke-width="6" stroke-dasharray="9 9" mask="url(#path-3-inside-2_632_764)"/>
<mask id="path-4-inside-3_632_764" fill="white">
<path d="M21.8574 63.4298C13.8857 76.7337 10.9136 92.4421 13.4738 107.739C16.034 123.035 23.9592 136.92 35.8285 146.903L36.4604 146.152C24.7697 136.319 16.9638 122.643 14.4421 107.577C11.9203 92.5102 14.8478 77.0382 22.6995 63.9344L21.8574 63.4298Z"/>
</mask>
<path d="M21.8574 63.4298C13.8857 76.7337 10.9136 92.4421 13.4738 107.739C16.034 123.035 23.9592 136.92 35.8285 146.903L36.4604 146.152C24.7697 136.319 16.9638 122.643 14.4421 107.577C11.9203 92.5102 14.8478 77.0382 22.6995 63.9344L21.8574 63.4298Z" stroke="#787878" stroke-width="6" stroke-dasharray="9 9" mask="url(#path-4-inside-3_632_764)"/>
<path d="M64.9748 117.258H61V115.251H64.9748V117.258Z" fill="#787878"/>
<path d="M66.9609 117.258H70.9357V115.251H66.9609V117.258Z" fill="#787878"/>
<path d="M76.9045 117.258H72.9297V115.251H76.9045V117.258Z" fill="#787878"/>
<path d="M78.8906 117.258H82.8679V115.251H78.8906V117.258Z" fill="#787878"/>
<path d="M86.8429 117.258H84.8555V115.251H86.8429V117.258Z" fill="#787878"/>
<path fill-rule="evenodd" clip-rule="evenodd" d="M61.5701 103.126C61.0156 103.126 60.5664 103.575 60.5664 104.13V110.152C60.5664 110.707 61.0156 111.156 61.5701 111.156H68.5966C69.1512 111.156 69.6004 110.707 69.6004 110.152V104.13C69.6004 103.575 69.1512 103.126 68.5966 103.126H61.5701ZM62.5739 106.137V105.133H64.0795V106.137H62.5739ZM62.5739 108.145H67.5926V109.148H62.5739V108.145ZM67.5926 106.137V105.133H66.0869V106.137H67.5926Z" fill="#787878"/>
<path fill-rule="evenodd" clip-rule="evenodd" d="M88.6719 105.133C88.6719 104.579 89.121 104.129 89.6756 104.129H99.713C100.268 104.129 100.717 104.579 100.717 105.133V108.144C100.717 108.699 100.268 109.148 99.713 109.148H89.6756C89.121 109.148 88.6719 108.699 88.6719 108.144V105.133ZM90.6794 106.137V107.141H98.7093V106.137H90.6794Z" fill="#787878"/>
<path fill-rule="evenodd" clip-rule="evenodd" d="M105.737 93.4335C105.737 90.8639 103.808 88.746 101.321 88.4499L93.2486 74.4702C91.8735 72.0863 88.8296 71.2707 86.4456 72.6459L52.0173 92.5247C49.6359 93.8998 48.8203 96.9437 50.1955 99.3251L56.0247 109.42V117.207C56.0247 119.977 58.2706 122.225 61.0434 122.225H100.719C103.492 122.225 105.737 119.977 105.737 117.207L105.737 93.4335ZM87.449 74.3853C88.8718 73.5647 90.6886 74.0515 91.5092 75.4743L92.8843 77.8557L74.8497 88.4153H63.1511L87.449 74.3853ZM78.8217 88.4151H82.799L94.8741 81.3013L93.8879 79.5924L78.8217 88.4151ZM95.8779 83.0401L86.754 88.4151H98.9819L95.8779 83.0401ZM56.1151 92.4775L53.0211 94.2616C51.6008 95.0821 51.1139 96.9014 51.9345 98.3217L56.0248 105.405V93.4331C56.0248 93.1044 56.0549 92.7861 56.1151 92.4775ZM58.0322 117.207V102.347H103.73V117.207C103.73 118.871 102.383 120.218 100.719 120.218H61.0435C59.3798 120.218 58.0322 118.871 58.0322 117.207ZM103.73 98.3721V100.339H58.0322V98.3721H103.73ZM103.73 96.3646H58.0322V93.4337C58.0322 91.77 59.3798 90.4224 61.0435 90.4224H100.719C102.383 90.4224 103.73 91.77 103.73 93.4337V96.3646Z" fill="#787878"/>
<path d="M27.4828 48.7249L35.6446 55.2549L34.8793 56.2114L24.9127 55.5318L24.8489 55.6115L31.2572 60.7386L30.4665 61.7269L22.3047 55.197L23.0699 54.2405L33.0652 54.9168L33.129 54.8371L26.7048 49.6973L27.4828 48.7249Z" fill="#787878"/>
<path d="M39.7922 44.589C40.523 45.4144 41.0055 46.2596 41.2398 47.1247C41.4741 47.9898 41.4757 48.8155 41.2448 49.6017C41.0138 50.3879 40.5646 51.0765 39.8972 51.6674C39.2297 52.2584 38.4918 52.6209 37.6834 52.755C36.875 52.889 36.0556 52.7874 35.2253 52.4501C34.3949 52.1128 33.6143 51.5315 32.8835 50.7061C32.1527 49.8807 31.6702 49.0355 31.4359 48.1704C31.2016 47.3053 31.2 46.4796 31.431 45.6934C31.6619 44.9072 32.1111 44.2186 32.7786 43.6277C33.446 43.0367 34.1839 42.6742 34.9923 42.5401C35.8007 42.4061 36.6201 42.5077 37.4504 42.845C38.2808 43.1823 39.0614 43.7636 39.7922 44.589ZM38.8751 45.401C38.2751 44.7234 37.6554 44.2518 37.0159 43.9864C36.379 43.7187 35.7621 43.6354 35.1655 43.7366C34.5713 43.8354 34.0373 44.0946 33.5635 44.5142C33.0897 44.9337 32.7664 45.4335 32.5938 46.0136C32.4237 46.5914 32.4317 47.2137 32.6177 47.8807C32.8063 48.5453 33.2006 49.2165 33.8006 49.8941C34.4006 50.5717 35.019 51.0444 35.656 51.3121C36.2955 51.5775 36.9123 51.6608 37.5064 51.5619C38.1031 51.4608 38.6384 51.2005 39.1122 50.7809C39.586 50.3614 39.908 49.8627 40.0781 49.2849C40.2507 48.7049 40.2428 48.0825 40.0542 47.4178C39.8681 46.7509 39.4751 46.0786 38.8751 45.401Z" fill="#787878"/>
<path d="M45.7635 34.5656C46.2457 34.3077 46.7389 34.1345 47.2417 34.0474L47.2408 34.0479C47.7464 33.9591 48.2465 33.9582 48.7398 34.0469L48.739 34.0473C49.2319 34.1332 49.6994 34.3093 50.1406 34.5746L50.3047 34.6784C50.6818 34.9298 51.0242 35.2509 51.3312 35.6411L51.4783 35.8293L50.0084 36.6155L49.9036 36.4899C49.6809 36.2223 49.4348 36.02 49.1659 35.8789L49.1641 35.8776C48.8935 35.7327 48.6102 35.642 48.313 35.6052L48.3095 35.6049C48.0118 35.5637 47.7104 35.5743 47.4051 35.6367C47.0981 35.6995 46.8 35.8076 46.5105 35.9623C45.9839 36.244 45.5821 36.6303 45.2994 37.1206L45.2981 37.1202C45.0206 37.6053 44.8901 38.1741 44.9153 38.8333L44.9166 38.8337C44.9446 39.4862 45.1608 40.2013 45.5777 40.9808C45.9946 41.7603 46.4693 42.3371 46.9965 42.7226C47.5308 43.1095 48.0756 43.3171 48.633 43.3557C49.1979 43.3929 49.743 43.2726 50.2697 42.9909C50.5591 42.8361 50.8145 42.6481 51.0371 42.4276C51.259 42.2079 51.4358 41.9639 51.5684 41.6961C51.7018 41.4248 51.7835 41.1369 51.8133 40.8308L51.8128 40.83C51.8434 40.5238 51.8115 40.2059 51.7141 39.875L51.6683 39.719L53.1391 38.9323L53.2131 39.1597C53.3876 39.6961 53.4638 40.2236 53.4396 40.7407C53.4154 41.255 53.3032 41.7439 53.1028 42.2044L53.1024 42.2057C52.9007 42.6619 52.6211 43.0746 52.267 43.4454L52.2683 43.4458C51.9167 43.8157 51.4989 44.1297 51.0167 44.3877C50.2005 44.8242 49.361 45.0165 48.5027 44.957C47.6451 44.8975 46.8366 44.5942 46.0798 44.0546C45.3199 43.5127 44.6759 42.7404 44.1447 41.7472C43.6136 40.7541 43.3286 39.7897 43.2998 38.8568C43.2712 37.9277 43.4677 37.0868 43.8943 36.3405C44.3213 35.5936 44.9473 35.0021 45.7635 34.5656Z" fill="#787878" stroke="#787878" stroke-width="0.4"/>
<path d="M55.3152 29.6658C56.1053 29.3896 56.8179 29.2916 57.4465 29.3883C58.0686 29.481 58.5988 29.7274 59.0281 30.1306C59.4516 30.5284 59.7682 31.0345 59.9807 31.6421C60.1931 32.2498 60.2591 32.8398 60.1732 33.4091C60.0861 33.9854 59.8255 34.5029 59.3989 34.9584L59.398 34.9587C59.3425 35.0174 59.2835 35.0744 59.2219 35.1299L62.7029 38.2663L62.9536 38.4921L61.1348 39.1279L61.0468 39.048L57.7058 35.9982C57.6603 36.0152 57.6142 36.0333 57.5675 36.0496L55.5985 36.738L56.9458 40.5923L55.3732 41.1421L51.7918 30.8975L55.3152 29.6658ZM55.0893 35.2815L57.0206 34.6063C57.5313 34.4277 57.8979 34.2149 58.1362 33.9773L58.2232 33.8859C58.4125 33.6707 58.5194 33.4394 58.5535 33.1911L58.5541 33.1899C58.5965 32.8905 58.5572 32.5567 58.4273 32.1852C58.2975 31.8138 58.1177 31.5227 57.8929 31.3044C57.6761 31.0939 57.4019 30.9654 57.0602 30.923L57.059 30.9224C56.7195 30.8776 56.2955 30.9369 55.7792 31.1174L53.8673 31.7858L55.0893 35.2815Z" fill="#787878" stroke="#787878" stroke-width="0.4"/>
<path d="M68.6363 26.6466L68.9339 28.1407L63.989 29.1257L64.6009 32.1972L69.2258 31.2759L69.5233 32.7691L64.8983 33.6903L65.5141 36.7819L70.5394 35.7809L70.8368 37.2741L64.1776 38.6005L62.0575 27.9571L68.6363 26.6466Z" fill="#787878" stroke="#787878" stroke-width="0.4"/>
<path d="M75.7765 26.1958C76.8163 26.1457 77.7293 26.3171 78.507 26.7193C79.2841 27.118 79.8937 27.717 80.3335 28.5094L80.3345 28.5094C80.7742 29.2986 81.0167 30.2493 81.0699 31.3533C81.1234 32.4641 80.972 33.4415 80.6076 34.2793C80.2879 35.0108 79.818 35.6082 79.1998 36.0669L78.9253 36.2551C78.1691 36.7312 77.2427 36.9903 76.1563 37.0426L72.7345 37.2074L72.2123 26.3675L75.7765 26.1958ZM74.3253 35.6066L76.0011 35.5258C76.8395 35.4855 77.51 35.2909 78.0238 34.9552C78.5397 34.6181 78.9135 34.1566 79.1477 33.5655C79.3839 32.9694 79.4866 32.2597 79.4468 31.4315C79.4072 30.61 79.2394 29.9202 78.9508 29.3563L78.9498 29.3553C78.6627 28.7917 78.2578 28.3735 77.7334 28.094L77.7324 28.0931C77.2091 27.8113 76.558 27.6834 75.7688 27.7213L73.9497 27.809L74.3253 35.6066Z" fill="#787878" stroke="#787878" stroke-width="0.4"/>
<path d="M85.2412 26.3241L84.554 37.1548L82.8913 37.0493L83.5785 26.2186L85.2412 26.3241Z" fill="#787878" stroke="#787878" stroke-width="0.4"/>
<path d="M95.7261 27.8342L95.4727 29.3365L92.2323 28.79L90.6811 37.9893L89.0382 37.7122L90.5895 28.513L87.3482 27.9664L87.6015 26.4642L95.7261 27.8342Z" fill="#787878" stroke="#787878" stroke-width="0.4"/>
<path d="M106.676 36.2054L105.503 35.7296C105.571 35.3641 105.57 35.0185 105.5 34.6928C105.433 34.3683 105.312 34.0695 105.136 33.7963C104.965 33.5213 104.749 33.2795 104.489 33.071C104.228 32.8625 103.937 32.693 103.616 32.5625C103.029 32.3246 102.438 32.2573 101.841 32.3606C101.248 32.4651 100.694 32.7489 100.18 33.2121C99.668 33.6765 99.2422 34.3281 98.902 35.1668C98.5617 36.0055 98.4133 36.7696 98.4567 37.4592C98.5033 38.15 98.7029 38.7395 99.0557 39.2277C99.4115 39.7173 99.8827 40.081 100.469 40.3189C100.791 40.4493 101.118 40.5305 101.45 40.5625C101.782 40.5944 102.105 40.5729 102.418 40.498C102.735 40.4212 103.031 40.2896 103.305 40.1033C103.583 39.9151 103.825 39.6679 104.03 39.3619L105.203 39.8377C104.914 40.2969 104.573 40.6746 104.181 40.9709C103.789 41.2673 103.364 41.4822 102.906 41.6159C102.449 41.7463 101.976 41.7949 101.487 41.7615C101 41.7295 100.513 41.6143 100.024 41.4161C99.198 41.081 98.5452 40.5812 98.0657 39.9167C97.5862 39.2522 97.3129 38.4731 97.2459 37.5793C97.1788 36.6856 97.3525 35.7279 97.7669 34.7064C98.1813 33.6848 98.7239 32.8768 99.3946 32.2823C100.065 31.6879 100.804 31.3193 101.611 31.1766C102.418 31.034 103.235 31.1302 104.061 31.4653C104.549 31.6635 104.979 31.9206 105.351 32.2364C105.725 32.5535 106.03 32.9196 106.265 33.3346C106.502 33.7464 106.658 34.1951 106.733 34.6807C106.809 35.1632 106.79 35.6714 106.676 36.2054Z" fill="#787878"/>
<path d="M104.868 43.5369L103.732 42.8517L112.416 35.8821L113.535 36.5567L111.424 47.4898L110.288 46.8046L112.156 37.6566L112.086 37.6145L104.868 43.5369ZM107.396 40.2932L111.977 43.055L111.397 44.0166L106.816 41.2548L107.396 40.2932Z" fill="#787878"/>
<path d="M112.023 48.1188L118.699 40.0759L121.417 42.3317C122.045 42.8532 122.472 43.3887 122.697 43.938C122.924 44.4848 122.98 45.0244 122.865 45.557C122.75 46.0896 122.496 46.5928 122.103 47.0667C121.71 47.5406 121.264 47.8804 120.766 48.0861C120.268 48.2918 119.732 48.3332 119.157 48.2101C118.585 48.0845 117.987 47.763 117.364 47.2458L115.165 45.4204L115.895 44.5407L118.063 46.34C118.493 46.6964 118.89 46.9205 119.256 47.0121C119.625 47.1059 119.964 47.0865 120.273 46.9539C120.587 46.8209 120.877 46.5934 121.145 46.2713C121.412 45.9493 121.585 45.6179 121.665 45.277C121.744 44.9362 121.706 44.5906 121.551 44.2402C121.397 43.8872 121.103 43.5303 120.668 43.1696L118.956 41.7483L112.997 48.9272L112.023 48.1188ZM118.808 47.6482L117.788 52.9041L116.657 51.9653L117.708 46.7354L118.808 47.6482Z" fill="#787878"/>
<path d="M120.382 55.9194L118.246 53.5024L126.078 46.5804L128.309 49.1045C128.98 49.8642 129.398 50.6529 129.562 51.4706C129.729 52.2859 129.648 53.0957 129.318 53.8998C128.992 54.7016 128.423 55.4608 127.612 56.1773C126.796 56.8984 125.966 57.3738 125.12 57.6037C124.277 57.8313 123.451 57.8069 122.644 57.5305C121.839 57.2519 121.085 56.7148 120.382 55.9194ZM119.926 53.7073L121.169 55.1146C121.742 55.7622 122.341 56.1884 122.967 56.3934C123.593 56.5983 124.229 56.6014 124.876 56.4026C125.522 56.2039 126.164 55.8228 126.801 55.2595C127.433 54.7007 127.886 54.1164 128.16 53.5065C128.437 52.8944 128.516 52.275 128.398 51.6482C128.282 51.0192 127.954 50.3987 127.413 49.7868L126.075 48.2724L119.926 53.7073Z" fill="#787878"/>
<path d="M62.0756 154.114L57.4658 163.495L56.3664 162.955L54.8739 153.077L54.7823 153.032L51.1629 160.398L50.0269 159.84L54.6367 150.458L55.7361 150.999L57.2379 160.904L57.3295 160.949L60.958 153.565L62.0756 154.114Z" fill="#787878"/>
<path d="M60.9385 164.823L63.5703 154.708L69.6753 156.296L69.3926 157.383L64.5126 156.113L63.6233 159.531L68.1872 160.718L67.9045 161.805L63.3406 160.618L62.4462 164.055L67.4053 165.346L67.1225 166.432L60.9385 164.823Z" fill="#787878"/>
<path d="M70.7584 167.149L71.5078 156.723L77.7998 157.176L77.7193 158.296L72.6898 157.934L72.4366 161.457L77.1403 161.795L77.0598 162.915L72.3561 162.577L72.1014 166.12L77.2124 166.487L77.1319 167.607L70.7584 167.149Z" fill="#787878"/>
<path d="M84.0668 167.316L80.8662 167.717L79.5664 157.345L82.9088 156.927C83.9148 156.8 84.8018 156.9 85.5695 157.226C86.3369 157.548 86.9598 158.072 87.4382 158.797C87.9161 159.519 88.2224 160.417 88.3569 161.49C88.4923 162.571 88.4165 163.525 88.1293 164.353C87.8418 165.178 87.3562 165.846 86.6727 166.356C85.9887 166.864 85.1201 167.184 84.0668 167.316ZM81.9825 166.445L83.8461 166.212C84.7036 166.104 85.3936 165.85 85.9159 165.448C86.4383 165.047 86.7996 164.523 86.9998 163.877C87.2001 163.232 87.2473 162.487 87.1415 161.643C87.0366 160.805 86.8095 160.102 86.4603 159.532C86.1107 158.958 85.6438 158.543 85.0596 158.288C84.475 158.028 83.7776 157.949 82.9674 158.051L80.9619 158.302L81.9825 166.445Z" fill="#787878"/>
<path d="M92.3286 165.966L89.0078 156.055L94.9892 154.051L95.346 155.115L90.5647 156.718L91.6868 160.066L96.1583 158.568L96.5151 159.633L92.0435 161.131L93.1721 164.499L98.0308 162.871L98.3875 163.936L92.3286 165.966Z" fill="#787878"/>
<path d="M104.645 161.001L101.848 162.606L96.6445 153.541L99.566 151.864C100.445 151.359 101.302 151.109 102.136 151.113C102.968 151.114 103.745 151.356 104.466 151.841C105.186 152.322 105.815 153.032 106.354 153.97C106.896 154.915 107.194 155.824 107.249 156.699C107.302 157.571 107.112 158.374 106.679 159.11C106.244 159.842 105.566 160.472 104.645 161.001ZM102.387 161.002L104.016 160.067C104.765 159.637 105.303 159.136 105.63 158.564C105.957 157.992 106.088 157.369 106.023 156.696C105.959 156.023 105.715 155.318 105.291 154.58C104.871 153.848 104.39 153.287 103.848 152.896C103.304 152.502 102.713 152.3 102.076 152.289C101.436 152.276 100.762 152.472 100.054 152.879L98.3012 153.885L102.387 161.002Z" fill="#787878"/>
</svg>
