<svg width="156" height="157" viewBox="0 0 156 157" fill="none" xmlns="http://www.w3.org/2000/svg">
<mask id="path-1-inside-1_627_609" fill="white">
<path d="M155.656 78.8122C155.656 121.795 120.811 156.64 77.828 156.64C34.8448 156.64 0 121.795 0 78.8122C0 35.829 34.8448 0.984192 77.828 0.984192C120.811 0.984192 155.656 35.829 155.656 78.8122ZM26.5097 78.8122C26.5097 107.155 49.4857 130.131 77.828 130.131C106.17 130.131 129.146 107.155 129.146 78.8122C129.146 50.4699 106.17 27.4939 77.828 27.4939C49.4857 27.4939 26.5097 50.4699 26.5097 78.8122Z"/>
</mask>
<path d="M155.656 78.8122C155.656 121.795 120.811 156.64 77.828 156.64C34.8448 156.64 0 121.795 0 78.8122C0 35.829 34.8448 0.984192 77.828 0.984192C120.811 0.984192 155.656 35.829 155.656 78.8122ZM26.5097 78.8122C26.5097 107.155 49.4857 130.131 77.828 130.131C106.17 130.131 129.146 107.155 129.146 78.8122C129.146 50.4699 106.17 27.4939 77.828 27.4939C49.4857 27.4939 26.5097 50.4699 26.5097 78.8122Z" fill="white" stroke="#787878" stroke-width="2" mask="url(#path-1-inside-1_627_609)"/>
<circle cx="77.8258" cy="78.8129" r="51.0992" fill="white"/>
<mask id="path-3-inside-2_627_609" fill="white">
<path d="M132.405 43.0503C140.905 56.0228 144.507 71.5989 142.564 86.9862C140.621 102.373 133.26 116.565 121.802 127.018L121.141 126.293C132.426 115.997 139.676 102.019 141.59 86.8632C143.503 71.7075 139.956 56.3657 131.583 43.5884L132.405 43.0503Z"/>
</mask>
<path d="M132.405 43.0503C140.905 56.0228 144.507 71.5989 142.564 86.9862C140.621 102.373 133.26 116.565 121.802 127.018L121.141 126.293C132.426 115.997 139.676 102.019 141.59 86.8632C143.503 71.7075 139.956 56.3657 131.583 43.5884L132.405 43.0503Z" stroke="#787878" stroke-width="6" stroke-dasharray="9 9" mask="url(#path-3-inside-2_627_609)"/>
<mask id="path-4-inside-3_627_609" fill="white">
<path d="M21.8574 45.2746C13.8857 58.5785 10.9136 74.2868 13.4738 89.5835C16.034 104.88 23.9592 118.765 35.8285 128.748L36.4604 127.996C24.7697 118.163 16.9638 104.488 14.4421 89.4214C11.9204 74.3549 14.8478 58.8829 22.6995 45.7792L21.8574 45.2746Z"/>
</mask>
<path d="M21.8574 45.2746C13.8857 58.5785 10.9136 74.2868 13.4738 89.5835C16.034 104.88 23.9592 118.765 35.8285 128.748L36.4604 127.996C24.7697 118.163 16.9638 104.488 14.4421 89.4214C11.9204 74.3549 14.8478 58.8829 22.6995 45.7792L21.8574 45.2746Z" stroke="#787878" stroke-width="6" stroke-dasharray="9 9" mask="url(#path-4-inside-3_627_609)"/>
<path d="M64.9748 99.1029H61V97.0955H64.9748V99.1029Z" fill="#787878"/>
<path d="M66.9609 99.1029H70.9357V97.0955H66.9609V99.1029Z" fill="#787878"/>
<path d="M76.9045 99.1029H72.9297V97.0955H76.9045V99.1029Z" fill="#787878"/>
<path d="M78.8906 99.1029H82.8679V97.0955H78.8906V99.1029Z" fill="#787878"/>
<path d="M86.8429 99.1029H84.8555V97.0955H86.8429V99.1029Z" fill="#787878"/>
<path fill-rule="evenodd" clip-rule="evenodd" d="M61.5701 84.9706C61.0156 84.9706 60.5664 85.4198 60.5664 85.9744V91.9968C60.5664 92.5514 61.0156 93.0005 61.5701 93.0005H68.5966C69.1512 93.0005 69.6004 92.5514 69.6004 91.9968V85.9744C69.6004 85.4198 69.1512 84.9706 68.5966 84.9706H61.5701ZM62.5739 87.9819V86.9781H64.0795V87.9819H62.5739ZM62.5739 89.9893H67.5926V90.9931H62.5739V89.9893ZM67.5926 87.9819V86.9781H66.0869V87.9819H67.5926Z" fill="#787878"/>
<path fill-rule="evenodd" clip-rule="evenodd" d="M88.6719 86.9779C88.6719 86.4233 89.121 85.9741 89.6756 85.9741H99.713C100.268 85.9741 100.717 86.4233 100.717 86.9779V89.9891C100.717 90.5436 100.268 90.9928 99.713 90.9928H89.6756C89.121 90.9928 88.6719 90.5436 88.6719 89.9891V86.9779ZM90.6794 87.9816V88.9853H98.7093V87.9816H90.6794Z" fill="#787878"/>
<path fill-rule="evenodd" clip-rule="evenodd" d="M105.737 75.2782C105.737 72.7086 103.808 70.5907 101.321 70.2946L93.2486 56.3149C91.8735 53.9311 88.8296 53.1155 86.4456 54.4906L52.0173 74.3695C49.6359 75.7446 48.8203 78.7884 50.1955 81.1698L56.0247 91.265V99.0515C56.0247 101.822 58.2706 104.07 61.0434 104.07H100.719C103.492 104.07 105.738 101.822 105.738 99.0515L105.737 75.2782ZM87.449 56.23C88.8718 55.4095 90.6886 55.8962 91.5092 57.319L92.8843 59.7004L74.8497 70.26H63.1511L87.449 56.23ZM78.8217 70.2598H82.799L94.8741 63.146L93.8879 61.4371L78.8217 70.2598ZM95.8779 64.8848L86.754 70.2598H98.9819L95.8779 64.8848ZM56.1151 74.3222L53.0211 76.1063C51.6008 76.9268 51.1139 78.7462 51.9345 80.1664L56.0248 87.2501V75.2778C56.0248 74.9491 56.0549 74.6309 56.1151 74.3222ZM58.0322 99.0517V84.1913H103.73V99.0517C103.73 100.715 102.383 102.063 100.719 102.063H61.0435C59.3798 102.063 58.0322 100.715 58.0322 99.0517ZM103.73 80.2168V82.1841H58.0322V80.2168H103.73ZM103.73 78.2093H58.0322V75.2784C58.0322 73.6147 59.3798 72.2672 61.0435 72.2672H100.719C102.383 72.2672 103.73 73.6147 103.73 75.2784V78.2093Z" fill="#787878"/>
</svg>
