<svg width="156" height="156" viewBox="0 0 156 156" fill="none" xmlns="http://www.w3.org/2000/svg">
<g clip-path="url(#clip0_1875_137)">
<mask id="path-1-inside-1_1875_137" fill="white">
<path d="M155.656 77.9647C155.656 120.948 120.811 155.793 77.828 155.793C34.8448 155.793 0 120.948 0 77.9647C0 34.9815 34.8448 0.136719 77.828 0.136719C120.811 0.136719 155.656 34.9815 155.656 77.9647ZM26.5097 77.9647C26.5097 106.307 49.4857 129.283 77.828 129.283C106.17 129.283 129.146 106.307 129.146 77.9647C129.146 49.6224 106.17 26.6464 77.828 26.6464C49.4857 26.6464 26.5097 49.6224 26.5097 77.9647Z"/>
</mask>
<path d="M155.656 77.9647C155.656 120.948 120.811 155.793 77.828 155.793C34.8448 155.793 0 120.948 0 77.9647C0 34.9815 34.8448 0.136719 77.828 0.136719C120.811 0.136719 155.656 34.9815 155.656 77.9647ZM26.5097 77.9647C26.5097 106.307 49.4857 129.283 77.828 129.283C106.17 129.283 129.146 106.307 129.146 77.9647C129.146 49.6224 106.17 26.6464 77.828 26.6464C49.4857 26.6464 26.5097 49.6224 26.5097 77.9647Z" fill="white" stroke="#787878" stroke-width="2" mask="url(#path-1-inside-1_1875_137)"/>
<circle cx="77.8258" cy="77.9654" r="51.0992" fill="white"/>
<mask id="path-3-inside-2_1875_137" fill="white">
<path d="M132.405 42.2036C140.905 55.1761 144.507 70.7522 142.564 86.1394C140.621 101.527 133.26 115.719 121.802 126.171L121.141 125.446C132.426 115.151 139.676 101.172 141.59 86.0164C143.503 70.8607 139.956 55.519 131.583 42.7417L132.405 42.2036Z"/>
</mask>
<path d="M132.405 42.2036C140.905 55.1761 144.507 70.7522 142.564 86.1394C140.621 101.527 133.26 115.719 121.802 126.171L121.141 125.446C132.426 115.151 139.676 101.172 141.59 86.0164C143.503 70.8607 139.956 55.519 131.583 42.7417L132.405 42.2036Z" stroke="#787878" stroke-width="6" stroke-dasharray="9 9" mask="url(#path-3-inside-2_1875_137)"/>
<mask id="path-4-inside-3_1875_137" fill="white">
<path d="M21.8574 44.4278C13.8857 57.7317 10.9136 73.4401 13.4738 88.7367C16.034 104.033 23.9592 117.918 35.8285 127.901L36.4604 127.15C24.7697 117.317 16.9638 103.641 14.4421 88.5747C11.9204 73.5082 14.8478 58.0361 22.6995 44.9324L21.8574 44.4278Z"/>
</mask>
<path d="M21.8574 44.4278C13.8857 57.7317 10.9136 73.4401 13.4738 88.7367C16.034 104.033 23.9592 117.918 35.8285 127.901L36.4604 127.15C24.7697 117.317 16.9638 103.641 14.4421 88.5747C11.9204 73.5082 14.8478 58.0361 22.6995 44.9324L21.8574 44.4278Z" stroke="#787878" stroke-width="6" stroke-dasharray="9 9" mask="url(#path-4-inside-3_1875_137)"/>
<path d="M64.9748 98.2555H61V96.248H64.9748V98.2555Z" fill="#787878"/>
<path d="M66.9609 98.2555H70.9357V96.248H66.9609V98.2555Z" fill="#787878"/>
<path d="M76.9045 98.2555H72.9297V96.248H76.9045V98.2555Z" fill="#787878"/>
<path d="M78.8906 98.2555H82.8679V96.248H78.8906V98.2555Z" fill="#787878"/>
<path d="M86.8429 98.2555H84.8555V96.248H86.8429V98.2555Z" fill="#787878"/>
<path fill-rule="evenodd" clip-rule="evenodd" d="M61.5701 84.123C61.0156 84.123 60.5664 84.5722 60.5664 85.1268V91.1492C60.5664 91.7038 61.0156 92.1529 61.5701 92.1529H68.5966C69.1512 92.1529 69.6004 91.7038 69.6004 91.1492V85.1268C69.6004 84.5722 69.1512 84.123 68.5966 84.123H61.5701ZM62.5739 87.1343V86.1305H64.0795V87.1343H62.5739ZM62.5739 89.1417H67.5926V90.1455H62.5739V89.1417ZM67.5926 87.1343V86.1305H66.0869V87.1343H67.5926Z" fill="#787878"/>
<path fill-rule="evenodd" clip-rule="evenodd" d="M88.6719 86.1307C88.6719 85.5761 89.121 85.127 89.6756 85.127H99.713C100.268 85.127 100.717 85.5761 100.717 86.1307V89.1419C100.717 89.6965 100.268 90.1456 99.713 90.1456H89.6756C89.121 90.1456 88.6719 89.6965 88.6719 89.1419V86.1307ZM90.6794 87.1344V88.1382H98.7093V87.1344H90.6794Z" fill="#787878"/>
<path fill-rule="evenodd" clip-rule="evenodd" d="M105.737 74.4302C105.737 71.8607 103.808 69.7428 101.321 69.4467L93.2486 55.4669C91.8735 53.0831 88.8296 52.2675 86.4456 53.6427L52.0173 73.5215C49.6359 74.8966 48.8203 77.9405 50.1955 80.3219L56.0247 90.4171V98.2035C56.0247 100.974 58.2706 103.222 61.0434 103.222H100.719C103.492 103.222 105.738 100.974 105.738 98.2035L105.737 74.4302ZM87.449 55.382C88.8718 54.5615 90.6886 55.0483 91.5092 56.4711L92.8843 58.8524L74.8497 69.4121H63.1511L87.449 55.382ZM78.8217 69.4119H82.799L94.8741 62.298L93.8879 60.5891L78.8217 69.4119ZM95.8779 64.0368L86.754 69.4119H98.9819L95.8779 64.0368ZM56.1151 73.4742L53.0211 75.2583C51.6008 76.0789 51.1139 77.8982 51.9345 79.3185L56.0248 86.4021V74.4299C56.0248 74.1011 56.0549 73.7829 56.1151 73.4742ZM58.0322 98.2038V83.3433H103.73V98.2038C103.73 99.8674 102.383 101.215 100.719 101.215H61.0435C59.3798 101.215 58.0322 99.8674 58.0322 98.2038ZM103.73 79.3688V81.3361H58.0322V79.3688H103.73ZM103.73 77.3613H58.0322V74.4304C58.0322 72.7668 59.3798 71.4192 61.0435 71.4192H100.719C102.383 71.4192 103.73 72.7668 103.73 74.4304V77.3613Z" fill="#787878"/>
<path d="M27.4828 29.7223L35.6446 36.2523L34.8793 37.2087L24.9127 36.5292L24.8489 36.6089L31.2572 41.736L30.4665 42.7243L22.3047 36.1943L23.0699 35.2379L33.0652 35.9142L33.129 35.8345L26.7048 30.6947L27.4828 29.7223Z" fill="#787878"/>
<path d="M39.7922 25.5864C40.523 26.4117 41.0055 27.257 41.2398 28.1221C41.4741 28.9872 41.4757 29.8128 41.2448 30.5991C41.0138 31.3853 40.5646 32.0738 39.8972 32.6648C39.2297 33.2558 38.4918 33.6183 37.6834 33.7523C36.875 33.8864 36.0556 33.7848 35.2253 33.4475C34.3949 33.1102 33.6143 32.5289 32.8835 31.7035C32.1527 30.8781 31.6702 30.0329 31.4359 29.1678C31.2016 28.3027 31.2 27.477 31.431 26.6908C31.6619 25.9046 32.1111 25.216 32.7786 24.625C33.446 24.0341 34.1839 23.6716 34.9923 23.5375C35.8007 23.4034 36.6201 23.5051 37.4505 23.8424C38.2808 24.1797 39.0614 24.761 39.7922 25.5864ZM38.8751 26.3984C38.2751 25.7208 37.6554 25.2492 37.0159 24.9838C36.379 24.7161 35.7621 24.6328 35.1655 24.7339C34.5713 24.8328 34.0373 25.092 33.5635 25.5116C33.0897 25.9311 32.7664 26.4309 32.5938 27.0109C32.4237 27.5887 32.4317 28.2111 32.6177 28.878C32.8063 29.5427 33.2006 30.2138 33.8006 30.8915C34.4006 31.5691 35.019 32.0418 35.656 32.3094C36.2955 32.5749 36.9123 32.6582 37.5064 32.5593C38.1031 32.4582 38.6384 32.1978 39.1122 31.7783C39.586 31.3588 39.908 30.8601 40.0781 30.2823C40.2507 29.7022 40.2428 29.0799 40.0542 28.4152C39.8681 27.7483 39.4751 27.076 38.8751 26.3984Z" fill="#787878"/>
<path d="M45.7674 15.5633C46.2496 15.3055 46.7428 15.1323 47.2456 15.0452L47.2448 15.0456C47.7503 14.9569 48.2504 14.9559 48.7437 15.0446L48.7429 15.0451C49.2358 15.1309 49.7033 15.307 50.1445 15.5723L50.3086 15.6762C50.6857 15.9275 51.0281 16.2487 51.3351 16.6388L51.4822 16.827L50.0123 17.6132L49.9075 17.4876C49.6848 17.22 49.4387 17.0177 49.1698 16.8766L49.168 16.8753C48.8974 16.7305 48.6141 16.6397 48.3169 16.603L48.3134 16.6026C48.0157 16.5614 47.7143 16.5721 47.409 16.6345C47.102 16.6973 46.8039 16.8053 46.5145 16.9601C45.9878 17.2417 45.586 17.628 45.3033 18.1184L45.302 18.118C45.0245 18.603 44.8941 19.1719 44.9192 19.8311L44.9205 19.8315C44.9485 20.484 45.1647 21.1991 45.5816 21.9786C45.9985 22.7581 46.4732 23.3348 47.0004 23.7204C47.5347 24.1073 48.0795 24.3149 48.637 24.3534C49.2018 24.3906 49.7469 24.2703 50.2736 23.9887C50.563 23.8338 50.8184 23.6459 51.041 23.4254C51.2629 23.2056 51.4397 22.9617 51.5723 22.6938C51.7057 22.4226 51.7874 22.1346 51.8172 21.8286L51.8167 21.8277C51.8473 21.5215 51.8155 21.2037 51.718 20.8728L51.6722 20.7167L53.143 19.9301L53.217 20.1574C53.3915 20.6938 53.4677 21.2213 53.4435 21.7384C53.4193 22.2528 53.3071 22.7416 53.1067 23.2021L53.1063 23.2035C52.9046 23.6596 52.625 24.0723 52.2709 24.4432L52.2722 24.4436C51.9206 24.8134 51.5028 25.1275 51.0206 25.3854C50.2044 25.822 49.3649 26.0143 48.5066 25.9548C47.649 25.8953 46.8405 25.5919 46.0837 25.0523C45.3238 24.5105 44.6798 23.7381 44.1486 22.745C43.6175 21.7518 43.3326 20.7874 43.3037 19.8545C43.2751 18.9255 43.4716 18.0846 43.8982 17.3382C44.3252 16.5914 44.9512 15.9998 45.7674 15.5633Z" fill="#787878" stroke="#787878" stroke-width="0.4"/>
<path d="M55.3191 10.663C56.1092 10.3868 56.8218 10.2888 57.4504 10.3855C58.0725 10.4782 58.6027 10.7246 59.032 11.1278C59.4555 11.5255 59.7721 12.0316 59.9846 12.6393C60.197 13.2469 60.263 13.837 60.1771 14.4062C60.09 14.9826 59.8294 15.5001 59.4028 15.9556L59.4019 15.9559C59.3464 16.0146 59.2874 16.0716 59.2258 16.1271L62.7068 19.2634L62.9575 19.4893L61.1387 20.1251L61.0507 20.0452L57.7097 16.9954C57.6642 17.0123 57.6181 17.0305 57.5714 17.0468L55.6024 17.7352L56.9498 21.5895L55.3771 22.1393L51.7957 11.8947L55.3191 10.663ZM55.0932 16.2787L57.0245 15.6035C57.5352 15.4249 57.9018 15.2121 58.1401 14.9745L58.2271 14.8831C58.4164 14.6679 58.5233 14.4366 58.5574 14.1883L58.558 14.1871C58.6004 13.8876 58.5611 13.5539 58.4313 13.1824C58.3014 12.811 58.1216 12.5199 57.8968 12.3016C57.68 12.0911 57.4058 11.9626 57.0641 11.9202L57.0629 11.9196C56.7234 11.8748 56.2994 11.9341 55.7831 12.1146L53.8712 12.783L55.0932 16.2787Z" fill="#787878" stroke="#787878" stroke-width="0.4"/>
<path d="M68.6363 7.64463L68.9339 9.13871L63.989 10.1237L64.6009 13.1952L69.2258 12.2739L69.5233 13.7671L64.8983 14.6883L65.5141 17.7799L70.5394 16.7789L70.8368 18.272L64.1776 19.5985L62.0575 8.95508L68.6363 7.64463Z" fill="#787878" stroke="#787878" stroke-width="0.4"/>
<path d="M75.7765 7.19363C76.8163 7.14354 77.7293 7.31499 78.507 7.71715C79.2841 8.11584 79.8937 8.7149 80.3335 9.50731L80.3345 9.50726C80.7742 10.2964 81.0167 11.2471 81.0699 12.3511C81.1234 13.4619 80.972 14.4394 80.6076 15.2772C80.2879 16.0086 79.818 16.6061 79.1998 17.0648L78.9253 17.253C78.1691 17.729 77.2427 17.9881 76.1563 18.0405L72.7345 18.2053L72.2123 7.36533L75.7765 7.19363ZM74.3253 16.6044L76.0011 16.5237C76.8395 16.4833 77.51 16.2888 78.0238 15.9531C78.5397 15.6159 78.9135 15.1545 79.1477 14.5634C79.3839 13.9672 79.4866 13.2576 79.4468 12.4293C79.4072 11.6079 79.2394 10.9181 78.9508 10.3541L78.9498 10.3532C78.6627 9.78954 78.2578 9.37141 77.7334 9.0919L77.7324 9.09097C77.2091 8.80912 76.558 8.68123 75.7688 8.7192L73.9497 8.80684L74.3253 16.6044Z" fill="#787878" stroke="#787878" stroke-width="0.4"/>
<path d="M85.2412 7.32173L84.554 18.1525L82.8913 18.047L83.5785 7.21624L85.2412 7.32173Z" fill="#787878" stroke="#787878" stroke-width="0.4"/>
<path d="M95.7261 8.83175L95.4727 10.334L92.2323 9.78754L90.6811 18.9868L89.0382 18.7097L90.5895 9.51051L87.3482 8.96391L87.6015 7.46169L95.7261 8.83175Z" fill="#787878" stroke="#787878" stroke-width="0.4"/>
<path d="M106.676 17.203L105.503 16.7272C105.571 16.3617 105.57 16.0161 105.5 15.6903C105.433 15.3659 105.312 15.067 105.136 14.7939C104.965 14.5188 104.749 14.277 104.489 14.0685C104.228 13.86 103.937 13.6905 103.616 13.5601C103.029 13.3222 102.438 13.2549 101.841 13.3581C101.248 13.4626 100.694 13.7465 100.18 14.2097C99.668 14.6741 99.2422 15.3257 98.902 16.1644C98.5617 17.0031 98.4133 17.7672 98.4567 18.4567C98.5033 19.1475 98.7029 19.7371 99.0557 20.2253C99.4115 20.7148 99.8827 21.0785 100.469 21.3164C100.791 21.4469 101.118 21.5281 101.45 21.56C101.782 21.592 102.105 21.5705 102.418 21.4955C102.735 21.4187 103.031 21.2872 103.305 21.1008C103.583 20.9126 103.825 20.6655 104.03 20.3594L105.203 20.8352C104.914 21.2944 104.573 21.6722 104.181 21.9685C103.789 22.2648 103.364 22.4798 102.906 22.6134C102.449 22.7439 101.976 22.7924 101.487 22.7591C101 22.727 100.513 22.6119 100.024 22.4136C99.198 22.0786 98.5452 21.5788 98.0657 20.9143C97.5862 20.2498 97.3129 19.4706 97.2459 18.5769C97.1788 17.6831 97.3525 16.7255 97.7669 15.7039C98.1813 14.6824 98.7239 13.8743 99.3946 13.2799C100.065 12.6854 100.804 12.3169 101.611 12.1742C102.418 12.0315 103.235 12.1277 104.061 12.4628C104.549 12.6611 104.979 12.9181 105.351 13.234C105.725 13.5511 106.03 13.9171 106.265 14.3321C106.502 14.744 106.658 15.1927 106.733 15.6783C106.809 16.1608 106.79 16.669 106.676 17.203Z" fill="#787878"/>
<path d="M104.868 24.535L103.732 23.8498L112.416 16.8802L113.535 17.5548L111.424 28.4879L110.288 27.8028L112.156 18.6547L112.086 18.6126L104.868 24.535ZM107.396 21.2913L111.977 24.0531L111.397 25.0147L106.816 22.2529L107.396 21.2913Z" fill="#787878"/>
<path d="M112.023 29.1161L118.699 21.0732L121.417 23.329C122.045 23.8505 122.472 24.386 122.697 24.9354C122.924 25.4821 122.98 26.0217 122.865 26.5543C122.75 27.0869 122.496 27.5901 122.103 28.064C121.71 28.5379 121.264 28.8777 120.766 29.0834C120.268 29.2891 119.732 29.3305 119.157 29.2074C118.585 29.0818 117.987 28.7603 117.364 28.2431L115.165 26.4177L115.895 25.538L118.063 27.3374C118.493 27.6938 118.89 27.9178 119.256 28.0094C119.625 28.1032 119.964 28.0839 120.273 27.9513C120.587 27.8182 120.877 27.5907 121.145 27.2686C121.412 26.9466 121.585 26.6152 121.665 26.2744C121.744 25.9335 121.706 25.5879 121.551 25.2375C121.397 24.8845 121.103 24.5276 120.668 24.1669L118.956 22.7456L112.997 29.9245L112.023 29.1161ZM118.808 28.6455L117.788 33.9014L116.657 32.9626L117.708 27.7327L118.808 28.6455Z" fill="#787878"/>
<path d="M120.382 36.9171L118.246 34.5001L126.078 27.5781L128.309 30.1021C128.98 30.8619 129.398 31.6506 129.562 32.4682C129.729 33.2836 129.648 34.0934 129.318 34.8975C128.992 35.6993 128.423 36.4585 127.612 37.175C126.796 37.8961 125.966 38.3715 125.12 38.6014C124.277 38.829 123.451 38.8046 122.644 38.5282C121.839 38.2495 121.085 37.7125 120.382 36.9171ZM119.926 34.705L121.169 36.1123C121.742 36.7599 122.341 37.1861 122.967 37.3911C123.593 37.596 124.229 37.5991 124.876 37.4003C125.522 37.2015 126.164 36.8205 126.801 36.2572C127.433 35.6984 127.886 35.1141 128.16 34.5042C128.437 33.8921 128.516 33.2727 128.398 32.6459C128.282 32.0169 127.954 31.3964 127.413 30.7845L126.075 29.2701L119.926 34.705Z" fill="#787878"/>
<path d="M62.0795 135.112L57.4697 144.493L56.3703 143.952L54.8778 134.075L54.7862 134.03L51.1668 141.395L50.0308 140.837L54.6406 131.456L55.74 131.996L57.2418 141.901L57.3334 141.946L60.9619 134.562L62.0795 135.112Z" fill="#787878"/>
<path d="M60.9385 145.822L63.5703 135.706L69.6753 137.294L69.3926 138.381L64.5126 137.111L63.6233 140.529L68.1872 141.717L67.9045 142.803L63.3406 141.616L62.4462 145.054L67.4053 146.344L67.1225 147.431L60.9385 145.822Z" fill="#787878"/>
<path d="M70.7623 148.147L71.5117 137.722L77.8038 138.174L77.7232 139.294L72.6937 138.932L72.4405 142.455L77.1442 142.793L77.0637 143.913L72.36 143.575L72.1053 147.118L77.2163 147.486L77.1358 148.605L70.7623 148.147Z" fill="#787878"/>
<path d="M84.0668 148.314L80.8662 148.715L79.5664 138.344L82.9088 137.925C83.9148 137.799 84.8018 137.899 85.5695 138.224C86.3369 138.546 86.9598 139.07 87.4382 139.795C87.9161 140.517 88.2224 141.415 88.3569 142.489C88.4923 143.569 88.4165 144.523 88.1293 145.351C87.8418 146.176 87.3562 146.844 86.6727 147.355C85.9887 147.862 85.1201 148.182 84.0668 148.314ZM81.9825 147.444L83.8461 147.21C84.7036 147.103 85.3936 146.848 85.9159 146.447C86.4383 146.045 86.7996 145.521 86.9998 144.876C87.2001 144.23 87.2473 143.485 87.1415 142.641C87.0366 141.804 86.8095 141.1 86.4603 140.53C86.1107 139.957 85.6438 139.542 85.0596 139.286C84.475 139.027 83.7776 138.948 82.9674 139.049L80.9619 139.3L81.9825 147.444Z" fill="#787878"/>
<path d="M92.3286 146.964L89.0078 137.053L94.9892 135.049L95.346 136.113L90.5647 137.715L91.6868 141.064L96.1583 139.566L96.5151 140.63L92.0435 142.129L93.1721 145.497L98.0308 143.869L98.3875 144.934L92.3286 146.964Z" fill="#787878"/>
<path d="M104.645 141.999L101.848 143.604L96.6445 134.539L99.566 132.862C100.445 132.357 101.302 132.107 102.136 132.111C102.968 132.112 103.745 132.354 104.466 132.839C105.186 133.32 105.815 134.03 106.354 134.969C106.896 135.913 107.194 136.822 107.249 137.697C107.302 138.569 107.112 139.372 106.679 140.108C106.244 140.84 105.566 141.47 104.645 141.999ZM102.387 142L104.016 141.066C104.765 140.635 105.303 140.134 105.63 139.562C105.957 138.99 106.088 138.367 106.023 137.694C105.959 137.021 105.715 136.316 105.291 135.578C104.871 134.847 104.39 134.285 103.848 133.894C103.304 133.5 102.713 133.298 102.076 133.287C101.436 133.274 100.762 133.47 100.054 133.877L98.3012 134.883L102.387 142Z" fill="#787878"/>
</g>
<defs>
<clipPath id="clip0_1875_137">
<rect width="156" height="156" fill="white"/>
</clipPath>
</defs>
</svg>
