<svg width="221" height="65" viewBox="0 0 221 65" fill="none" xmlns="http://www.w3.org/2000/svg">
<path d="M173.978 35.435C173.978 36.6214 174.39 37.6272 175.216 38.4524C176.093 39.2777 177.124 39.6903 178.311 39.6903H185.815V48.6652H178.311C176.299 48.6652 174.39 48.3041 172.585 47.582C170.832 46.8083 169.284 45.7767 167.943 44.4872C166.654 43.1462 165.622 41.5988 164.848 39.8451C164.075 38.0914 163.688 36.2087 163.688 34.1971V22.5918H158.117V14.0038H163.688V0H173.978V35.435Z" fill="black"/>
<path d="M133.946 9.36194C136.732 9.36194 139.362 9.90352 141.838 10.9867C144.314 12.0183 146.454 13.4625 148.26 15.3194C150.117 17.1246 151.561 19.2394 152.592 21.6636C153.676 24.0879 154.217 26.6926 154.217 29.4779C154.217 32.3148 153.676 34.9711 152.592 37.4469C151.561 39.9227 150.117 42.0891 148.26 43.9459C146.454 45.7512 144.314 47.1954 141.838 48.2786C139.362 49.3102 136.732 49.826 133.946 49.826C130.13 49.826 126.957 48.7944 124.43 46.7312V46.6538L128.299 39.5359L128.376 39.6133C129.769 40.2322 131.187 40.5417 132.631 40.5417C134.127 40.5417 135.545 40.258 136.887 39.6906C138.228 39.1233 139.388 38.3496 140.368 37.3696C141.4 36.338 142.199 35.1516 142.767 33.8106C143.334 32.4695 143.618 31.0253 143.618 29.4779C143.618 27.9821 143.334 26.5895 142.767 25.3C142.199 23.9589 141.4 22.7984 140.368 21.8184C139.388 20.8384 138.228 20.0647 136.887 19.4973C135.545 18.9299 134.127 18.6462 132.631 18.6462C131.084 18.6462 129.64 18.9299 128.299 19.4973C127.009 20.0647 125.874 20.8384 124.894 21.8184C123.914 22.7984 123.141 23.9589 122.573 25.3C122.006 26.5895 121.722 27.9821 121.722 29.4779V64.1393H111.277V9.98089H121.722V15.242C124.507 11.322 128.582 9.36194 133.946 9.36194Z" fill="black"/>
<path d="M66.4141 48.6666L76.7815 34.5854L86.2205 38.9181L79.0252 48.6666H66.4141ZM93.1838 29.4791L107.42 48.6666H94.7311V48.5892L80.65 29.5564L66.4914 9.98206H79.0252L86.8395 23.1348L94.7311 9.98206H107.42L107.265 10.0594L93.1838 29.4791Z" fill="black"/>
<path d="M49.28 9.36194C52.0137 9.36194 54.5927 9.90352 57.0169 10.9867C59.4412 12.0183 61.5559 13.4367 63.3612 15.242C65.1665 17.0473 66.5849 19.162 67.6165 21.5863C68.6997 24.0105 69.2412 26.6152 69.2412 29.4005C69.2412 30.8963 69.0865 32.3406 68.777 33.7332L68.6997 33.8879H49.0479L44.0963 25.9963H58.7964C58.0743 23.83 56.8622 22.0505 55.1601 20.6578C53.5095 19.2652 51.5495 18.5689 49.28 18.5689C47.8874 18.5689 46.5721 18.8525 45.3342 19.4199C44.0963 19.9873 43.0131 20.761 42.0847 21.741C41.2079 22.6694 40.5115 23.8042 39.9957 25.1452C39.4799 26.4347 39.222 27.8531 39.222 29.4005C39.222 30.5869 39.4542 31.8248 39.9184 33.1142C40.3826 34.3522 41.0531 35.4869 41.93 36.5185C42.8068 37.5501 43.8642 38.4269 45.1021 39.149C46.34 39.8196 47.7326 40.1548 49.28 40.1548C50.6727 40.1548 51.9364 39.9743 53.0711 39.6133C54.2574 39.2006 55.3664 38.3238 56.398 36.9827L56.4754 36.9053L56.6301 36.9827L65.6049 40.9285L65.4502 41.0833C63.5933 43.6622 61.2207 45.6738 58.3322 47.118C55.4953 48.5623 52.4779 49.2844 49.28 49.2844C46.4947 49.2844 43.8642 48.7686 41.3884 47.737C38.9641 46.7054 36.8494 45.287 35.0441 43.4817C33.2388 41.6764 31.7946 39.5617 30.7114 37.1374C29.6799 34.7132 29.1641 32.1342 29.1641 29.4005C29.1641 26.6152 29.6799 24.0105 30.7114 21.5863C31.7946 19.162 33.2388 17.0473 35.0441 15.242C36.8494 13.4367 38.9641 12.0183 41.3884 10.9867C43.8642 9.90352 46.4947 9.36194 49.28 9.36194Z" fill="black"/>
<path d="M31.5666 11.5283L30.6382 13.0757L26.6923 20.1162L26.615 20.0389C24.9128 19.0589 23.0818 18.5689 21.1218 18.5689C19.7807 18.5689 18.517 18.801 17.3307 19.2652C16.1444 19.6778 15.087 20.2968 14.1585 21.122C13.2301 21.8957 12.4306 22.8242 11.7601 23.9073C11.1411 24.9905 10.7285 26.151 10.5222 27.3889V48.6654H0V9.98089H10.5222V15.0099C13.2559 11.2446 17.2533 9.36194 22.5144 9.36194C25.6092 9.36194 28.6008 10.0841 31.4892 11.5283H31.5666Z" fill="black"/>
<path d="M174.469 13.9249H183.946V22.6289L174.469 13.9249Z" fill="black"/>
<path d="M105.86 58.4746L106.669 58.5745C106.541 59.0466 106.305 59.413 105.96 59.6737C105.616 59.9343 105.176 60.0647 104.64 60.0647C103.965 60.0647 103.429 59.8576 103.032 59.4434C102.638 59.0263 102.441 58.4427 102.441 57.6926C102.441 56.9164 102.641 56.3139 103.041 55.8853C103.441 55.4566 103.959 55.2423 104.596 55.2423C105.213 55.2423 105.717 55.4523 106.108 55.8723C106.499 56.2922 106.695 56.8831 106.695 57.6448C106.695 57.6911 106.693 57.7606 106.69 57.8533H103.249C103.278 58.3602 103.422 58.7483 103.68 59.0176C103.937 59.287 104.259 59.4217 104.644 59.4217C104.931 59.4217 105.176 59.3464 105.378 59.1958C105.581 59.0452 105.742 58.8048 105.86 58.4746ZM103.293 57.2103H105.869C105.834 56.8222 105.736 56.5312 105.574 56.3371C105.325 56.0359 105.002 55.8853 104.605 55.8853C104.246 55.8853 103.943 56.0055 103.697 56.2459C103.454 56.4863 103.319 56.8078 103.293 57.2103Z" fill="black"/>
<path d="M101.351 58.2704L102.12 58.3703C102.036 58.9003 101.82 59.316 101.473 59.6172C101.128 59.9155 100.704 60.0647 100.2 60.0647C99.5685 60.0647 99.0602 59.859 98.675 59.4477C98.2927 59.0336 98.1016 58.4413 98.1016 57.6709C98.1016 57.1727 98.1841 56.7368 98.3492 56.3632C98.5143 55.9896 98.7648 55.7101 99.1008 55.5247C99.4397 55.3364 99.8075 55.2423 100.204 55.2423C100.705 55.2423 101.115 55.3697 101.434 55.6246C101.752 55.8766 101.957 56.2357 102.046 56.702L101.286 56.8193C101.214 56.5094 101.085 56.2763 100.899 56.1199C100.717 55.9635 100.495 55.8853 100.235 55.8853C99.8408 55.8853 99.5208 56.0272 99.2746 56.311C99.0284 56.592 98.9053 57.038 98.9053 57.6491C98.9053 58.2689 99.024 58.7193 99.2615 59.0003C99.499 59.2812 99.8089 59.4217 100.191 59.4217C100.498 59.4217 100.755 59.3275 100.96 59.1393C101.166 58.951 101.296 58.6614 101.351 58.2704Z" fill="black"/>
<path d="M96.4531 54.4942V53.5948H97.2351V54.4942H96.4531ZM96.4531 59.9638V55.35H97.2351V59.9638H96.4531Z" fill="black"/>
<path d="M93.3723 59.9626L91.6172 55.3488H92.4426L93.4332 58.1118C93.5403 58.4101 93.6388 58.7201 93.7286 59.0415C93.7981 58.7983 93.8951 58.5057 94.0197 58.164L95.045 55.3488H95.8487L94.1022 59.9626H93.3723Z" fill="black"/>
<path d="M89.207 59.9604V55.3466H89.9108V56.046C90.0904 55.7188 90.2555 55.503 90.4061 55.3987C90.5596 55.2944 90.7276 55.2423 90.9101 55.2423C91.1736 55.2423 91.4415 55.3263 91.7138 55.4943L91.4444 56.2198C91.2533 56.1069 91.0621 56.0504 90.871 56.0504C90.7001 56.0504 90.5466 56.1025 90.4104 56.2068C90.2743 56.3081 90.1773 56.4501 90.1194 56.6325C90.0325 56.9106 89.989 57.2147 89.989 57.5449V59.9604H89.207Z" fill="black"/>
<path d="M87.5128 58.4746L88.3209 58.5745C88.1935 59.0466 87.9574 59.413 87.6128 59.6737C87.2681 59.9343 86.8279 60.0647 86.292 60.0647C85.6172 60.0647 85.0814 59.8576 84.6846 59.4434C84.2907 59.0263 84.0938 58.4427 84.0938 57.6926C84.0938 56.9164 84.2936 56.3139 84.6933 55.8853C85.093 55.4566 85.6114 55.2423 86.2486 55.2423C86.8655 55.2423 87.3695 55.4523 87.7605 55.8723C88.1515 56.2922 88.347 56.8831 88.347 57.6448C88.347 57.6911 88.3455 57.7606 88.3426 57.8533H84.9018C84.9308 58.3602 85.0741 58.7483 85.3319 59.0176C85.5897 59.287 85.9112 59.4217 86.2964 59.4217C86.5831 59.4217 86.8279 59.3464 87.0306 59.1958C87.2333 59.0452 87.3941 58.8048 87.5128 58.4746ZM84.9453 57.2103H87.5215C87.4868 56.8222 87.3883 56.5312 87.2261 56.3371C86.977 56.0359 86.6541 55.8853 86.2573 55.8853C85.8981 55.8853 85.5955 56.0055 85.3493 56.2459C85.106 56.4863 84.9713 56.8078 84.9453 57.2103Z" fill="black"/>
<path d="M78.3164 57.9174L79.1114 57.8479C79.1491 58.1665 79.236 58.4286 79.3721 58.6343C79.5111 58.837 79.7255 59.0021 80.0151 59.1295C80.3047 59.2541 80.6306 59.3163 80.9926 59.3163C81.3141 59.3163 81.5979 59.2686 81.8441 59.173C82.0903 59.0774 82.2728 58.9471 82.3915 58.782C82.5132 58.614 82.574 58.4315 82.574 58.2346C82.574 58.0347 82.516 57.8609 82.4002 57.7132C82.2843 57.5626 82.0932 57.4366 81.8267 57.3353C81.6558 57.2687 81.2779 57.1658 80.6928 57.0268C80.1078 56.8849 79.6979 56.7517 79.4633 56.6271C79.1592 56.4678 78.9319 56.2709 78.7813 56.0363C78.6336 55.7988 78.5597 55.5338 78.5597 55.2412C78.5597 54.9198 78.6509 54.62 78.8334 54.3419C79.0159 54.061 79.2823 53.8481 79.6328 53.7033C79.9832 53.5585 80.3728 53.4861 80.8014 53.4861C81.2735 53.4861 81.6892 53.5628 82.0483 53.7163C82.4103 53.8669 82.6884 54.09 82.8824 54.3854C83.0765 54.6808 83.1807 55.0153 83.1952 55.389L82.3872 55.4498C82.3437 55.0472 82.196 54.7431 81.944 54.5374C81.6949 54.3318 81.3257 54.229 80.8362 54.229C80.3264 54.229 79.9543 54.3231 79.7197 54.5114C79.488 54.6967 79.3721 54.9212 79.3721 55.1848C79.3721 55.4136 79.4547 55.6018 79.6197 55.7495C79.7819 55.8973 80.2048 56.0493 80.8883 56.2057C81.5747 56.3592 82.0454 56.4939 82.3003 56.6097C82.671 56.7806 82.9447 56.9979 83.1214 57.2614C83.298 57.5221 83.3864 57.8233 83.3864 58.1651C83.3864 58.5039 83.2894 58.824 83.0953 59.1252C82.9013 59.4235 82.6218 59.6567 82.2568 59.8246C81.8948 59.9897 81.4864 60.0723 81.0317 60.0723C80.4553 60.0723 79.9716 59.9883 79.5806 59.8203C79.1925 59.6523 78.887 59.4003 78.664 59.0644C78.4438 58.7255 78.328 58.3432 78.3164 57.9174Z" fill="black"/>
<path d="M75.4422 59.2644L75.5551 59.9552C75.335 60.0015 75.138 60.0247 74.9643 60.0247C74.6804 60.0247 74.4603 59.9798 74.3039 59.89C74.1475 59.8002 74.0375 59.6829 73.9737 59.5381C73.91 59.3904 73.8782 59.082 73.8782 58.6128V55.9583H73.3047V55.3501H73.8782V54.2075L74.6558 53.7383V55.3501H75.4422V55.9583H74.6558V58.6562C74.6558 58.8792 74.6688 59.0226 74.6949 59.0863C74.7239 59.15 74.7688 59.2007 74.8296 59.2384C74.8933 59.276 74.9831 59.2948 75.0989 59.2948C75.1858 59.2948 75.3002 59.2847 75.4422 59.2644Z" fill="black"/>
<path d="M69.0547 58.5832L69.828 58.4616C69.8714 58.7715 69.9916 59.009 70.1886 59.174C70.3884 59.3391 70.6665 59.4217 71.0227 59.4217C71.3819 59.4217 71.6483 59.3493 71.8221 59.2045C71.9959 59.0567 72.0828 58.8844 72.0828 58.6875C72.0828 58.5108 72.006 58.3718 71.8525 58.2704C71.7454 58.2009 71.4789 58.1125 71.0531 58.0054C70.4797 57.8606 70.0814 57.736 69.8584 57.6318C69.6383 57.5246 69.4703 57.3783 69.3545 57.193C69.2415 57.0047 69.185 56.7976 69.185 56.5717C69.185 56.3661 69.2314 56.1764 69.324 56.0026C69.4196 55.8259 69.5485 55.6797 69.7107 55.5638C69.8323 55.474 69.9974 55.3987 70.206 55.3379C70.4174 55.2742 70.6433 55.2423 70.8837 55.2423C71.2457 55.2423 71.5629 55.2944 71.8351 55.3987C72.1103 55.503 72.313 55.6449 72.4434 55.8245C72.5737 56.0011 72.6635 56.2386 72.7127 56.537L71.9481 56.6412C71.9133 56.4037 71.812 56.2184 71.644 56.0851C71.4789 55.9519 71.2443 55.8853 70.9402 55.8853C70.581 55.8853 70.3247 55.9447 70.1712 56.0634C70.0177 56.1822 69.941 56.3212 69.941 56.4805C69.941 56.5819 69.9728 56.6731 70.0365 56.7542C70.1003 56.8382 70.2002 56.9077 70.3363 56.9627C70.4145 56.9917 70.6448 57.0583 71.0271 57.1626C71.5803 57.3103 71.9655 57.4319 72.1827 57.5275C72.4028 57.6202 72.5751 57.7563 72.6997 57.9359C72.8242 58.1154 72.8865 58.3385 72.8865 58.6049C72.8865 58.8656 72.8097 59.1118 72.6562 59.3435C72.5056 59.5723 72.287 59.7504 72.0002 59.8778C71.7135 60.0024 71.3891 60.0647 71.0271 60.0647C70.4275 60.0647 69.9699 59.9401 69.6542 59.691C69.3414 59.4419 69.1416 59.0727 69.0547 58.5832Z" fill="black"/>
<path d="M67.4805 54.4942V53.5948H68.2625V54.4942H67.4805ZM67.4805 59.9638V55.35H68.2625V59.9638H67.4805Z" fill="black"/>
<path d="M62.6133 59.9604V55.3466H63.3171V56.0026C63.656 55.4957 64.1454 55.2423 64.7855 55.2423C65.0636 55.2423 65.3184 55.293 65.5501 55.3944C65.7847 55.4928 65.96 55.6232 66.0758 55.7854C66.1917 55.9476 66.2728 56.1402 66.3191 56.3632C66.3481 56.508 66.3625 56.7614 66.3625 57.1235V59.9604H65.5805V57.1539C65.5805 56.8353 65.5501 56.5978 65.4893 56.4414C65.4285 56.2821 65.3199 56.1561 65.1635 56.0634C65.01 55.9678 64.829 55.92 64.6204 55.92C64.2873 55.92 63.9992 56.0258 63.7559 56.2372C63.5155 56.4486 63.3953 56.8498 63.3953 57.4406V59.9604H62.6133Z" fill="black"/>
<path d="M57.4648 57.6535C57.4648 56.7991 57.7023 56.1662 58.1773 55.755C58.5741 55.4132 59.0578 55.2423 59.6284 55.2423C60.2627 55.2423 60.7811 55.4508 61.1837 55.8679C61.5863 56.2821 61.7876 56.8556 61.7876 57.5883C61.7876 58.1821 61.6978 58.6498 61.5182 58.9916C61.3415 59.3304 61.0823 59.594 60.7406 59.7823C60.4017 59.9705 60.031 60.0647 59.6284 60.0647C58.9825 60.0647 58.4597 59.8576 58.06 59.4434C57.6632 59.0292 57.4648 58.4326 57.4648 57.6535ZM58.2686 57.6535C58.2686 58.2443 58.3975 58.6875 58.6552 58.9829C58.913 59.2754 59.2374 59.4217 59.6284 59.4217C60.0165 59.4217 60.3394 59.274 60.5972 58.9785C60.855 58.6831 60.9839 58.2327 60.9839 57.6274C60.9839 57.0568 60.8535 56.6253 60.5929 56.3328C60.3351 56.0373 60.0136 55.8896 59.6284 55.8896C59.2374 55.8896 58.913 56.0359 58.6552 56.3284C58.3975 56.621 58.2686 57.0626 58.2686 57.6535Z" fill="black"/>
<path d="M55.8672 54.4942V53.5948H56.6492V54.4942H55.8672ZM55.8672 59.9638V55.35H56.6492V59.9638H55.8672Z" fill="black"/>
<path d="M55.1804 59.2644L55.2934 59.9552C55.0733 60.0015 54.8763 60.0247 54.7026 60.0247C54.4187 60.0247 54.1986 59.9798 54.0422 59.89C53.8858 59.8002 53.7757 59.6829 53.712 59.5381C53.6483 59.3904 53.6164 59.082 53.6164 58.6128V55.9583H53.043V55.3501H53.6164V54.2075L54.3941 53.7383V55.3501H55.1804V55.9583H54.3941V58.6562C54.3941 58.8792 54.4071 59.0226 54.4332 59.0863C54.4622 59.15 54.5071 59.2007 54.5679 59.2384C54.6316 59.276 54.7214 59.2948 54.8372 59.2948C54.9241 59.2948 55.0385 59.2847 55.1804 59.2644Z" fill="black"/>
<path d="M48.6016 61.7286V55.3466H49.3141V55.9461C49.482 55.7115 49.6717 55.5363 49.8832 55.4204C50.0946 55.3017 50.3509 55.2423 50.6521 55.2423C51.046 55.2423 51.3936 55.3437 51.6948 55.5464C51.996 55.7492 52.2234 56.0359 52.3769 56.4066C52.5304 56.7745 52.6072 57.1785 52.6072 57.6187C52.6072 58.0908 52.5217 58.5166 52.3508 58.896C52.1828 59.2725 51.9367 59.5621 51.6123 59.7649C51.2908 59.9647 50.9519 60.0647 50.5957 60.0647C50.335 60.0647 50.1004 60.0096 49.8919 59.8996C49.6862 59.7895 49.5168 59.6505 49.3836 59.4825V61.7286H48.6016ZM49.3097 57.6795C49.3097 58.2733 49.4299 58.7121 49.6703 58.9959C49.9107 59.2798 50.2018 59.4217 50.5435 59.4217C50.8911 59.4217 51.188 59.2754 51.4341 58.9829C51.6832 58.6875 51.8078 58.2313 51.8078 57.6144C51.8078 57.0264 51.6861 56.5862 51.4428 56.2937C51.2024 56.0011 50.9143 55.8549 50.5783 55.8549C50.2452 55.8549 49.9498 56.0113 49.692 56.3241C49.4371 56.634 49.3097 57.0858 49.3097 57.6795Z" fill="black"/>
<path d="M46.9035 58.4746L47.7115 58.5745C47.5841 59.0466 47.348 59.413 47.0034 59.6737C46.6587 59.9343 46.2185 60.0647 45.6827 60.0647C45.0078 60.0647 44.472 59.8576 44.0752 59.4434C43.6813 59.0263 43.4844 58.4427 43.4844 57.6926C43.4844 56.9164 43.6842 56.3139 44.0839 55.8853C44.4836 55.4566 45.002 55.2423 45.6392 55.2423C46.2561 55.2423 46.7601 55.4523 47.1511 55.8723C47.5421 56.2922 47.7376 56.8831 47.7376 57.6448C47.7376 57.6911 47.7361 57.7606 47.7333 57.8533H44.2924C44.3214 58.3602 44.4648 58.7483 44.7225 59.0176C44.9803 59.287 45.3018 59.4217 45.687 59.4217C45.9737 59.4217 46.2185 59.3464 46.4212 59.1958C46.624 59.0452 46.7847 58.8048 46.9035 58.4746ZM44.3359 57.2103H46.9122C46.8774 56.8222 46.7789 56.5312 46.6167 56.3371C46.3676 56.0359 46.0447 55.8853 45.6479 55.8853C45.2888 55.8853 44.9861 56.0055 44.7399 56.2459C44.4966 56.4863 44.362 56.8078 44.3359 57.2103Z" fill="black"/>
<path d="M42.3981 58.2704L43.1671 58.3703C43.0831 58.9003 42.8673 59.316 42.5197 59.6172C42.1751 59.9155 41.7508 60.0647 41.2468 60.0647C40.6154 60.0647 40.1071 59.859 39.7219 59.4477C39.3396 59.0336 39.1484 58.4413 39.1484 57.6709C39.1484 57.1727 39.231 56.7368 39.3961 56.3632C39.5612 55.9896 39.8117 55.7101 40.1477 55.5247C40.4865 55.3364 40.8544 55.2423 41.2512 55.2423C41.7522 55.2423 42.162 55.3697 42.4806 55.6246C42.7992 55.8766 43.0034 56.2357 43.0932 56.702L42.3329 56.8193C42.2605 56.5094 42.1316 56.2763 41.9463 56.1199C41.7638 55.9635 41.5422 55.8853 41.2816 55.8853C40.8877 55.8853 40.5676 56.0272 40.3214 56.311C40.0753 56.592 39.9522 57.038 39.9522 57.6491C39.9522 58.2689 40.0709 58.7193 40.3084 59.0003C40.5459 59.2812 40.8558 59.4217 41.2381 59.4217C41.5451 59.4217 41.8015 59.3275 42.0071 59.1393C42.2127 58.951 42.3431 58.6614 42.3981 58.2704Z" fill="black"/>
<path d="M37.6769 58.4746L38.485 58.5745C38.3575 59.0466 38.1215 59.413 37.7768 59.6737C37.4322 59.9343 36.9919 60.0647 36.4561 60.0647C35.7813 60.0647 35.2455 59.8576 34.8487 59.4434C34.4548 59.0263 34.2578 58.4427 34.2578 57.6926C34.2578 56.9164 34.4577 56.3139 34.8573 55.8853C35.257 55.4566 35.7755 55.2423 36.4127 55.2423C37.0296 55.2423 37.5335 55.4523 37.9245 55.8723C38.3155 56.2922 38.511 56.8831 38.511 57.6448C38.511 57.6911 38.5096 57.7606 38.5067 57.8533H35.0659C35.0948 58.3602 35.2382 58.7483 35.496 59.0176C35.7538 59.287 36.0752 59.4217 36.4605 59.4217C36.7472 59.4217 36.9919 59.3464 37.1947 59.1958C37.3974 59.0452 37.5582 58.8048 37.6769 58.4746ZM35.1093 57.2103H37.6856C37.6508 56.8222 37.5524 56.5312 37.3902 56.3371C37.1411 56.0359 36.8181 55.8853 36.4214 55.8853C36.0622 55.8853 35.7595 56.0055 35.5134 56.2459C35.2701 56.4863 35.1354 56.8078 35.1093 57.2103Z" fill="black"/>
<path d="M28.2891 59.9638V53.5948H31.113C31.6806 53.5948 32.1122 53.6528 32.4076 53.7686C32.703 53.8816 32.9391 54.0829 33.1158 54.3725C33.2924 54.6621 33.3808 54.9822 33.3808 55.3326C33.3808 55.7845 33.2345 56.1653 32.942 56.4752C32.6494 56.7851 32.1976 56.9821 31.5865 57.0661C31.8095 57.1732 31.979 57.2789 32.0948 57.3832C32.341 57.6091 32.5741 57.8915 32.7943 58.2304L33.9021 59.9638H32.8421L31.9992 58.6388C31.753 58.2565 31.5503 57.9639 31.391 57.7612C31.2317 57.5584 31.0883 57.4165 30.9609 57.3354C30.8364 57.2543 30.7089 57.1979 30.5786 57.166C30.483 57.1457 30.3266 57.1356 30.1094 57.1356H29.1319V59.9638H28.2891ZM29.1319 56.4057H30.9435C31.3287 56.4057 31.6299 56.3666 31.8472 56.2884C32.0644 56.2073 32.2295 56.0799 32.3424 55.9061C32.4554 55.7294 32.5119 55.5383 32.5119 55.3326C32.5119 55.0314 32.4018 54.7838 32.1817 54.5897C31.9645 54.3957 31.6198 54.2987 31.1477 54.2987H29.1319V56.4057Z" fill="black"/>
<path d="M23.6484 59.9638V53.5948H24.4913V59.9638H23.6484Z" fill="black"/>
<path d="M16.957 59.9638L19.403 53.5948H20.311L22.9176 59.9638H21.9575L21.2146 58.0349H18.5514L17.852 59.9638H16.957ZM18.7947 57.3485H20.9539L20.2892 55.5846C20.0865 55.0488 19.9359 54.6086 19.8374 54.2639C19.7563 54.6723 19.6419 55.0778 19.4942 55.4803L18.7947 57.3485Z" fill="black"/>
<path d="M13.9621 58.4746L14.7701 58.5745C14.6427 59.0466 14.4066 59.413 14.062 59.6737C13.7173 59.9343 13.2771 60.0647 12.7413 60.0647C12.0664 60.0647 11.5306 59.8576 11.1338 59.4434C10.7399 59.0263 10.543 58.4427 10.543 57.6926C10.543 56.9164 10.7428 56.3139 11.1425 55.8853C11.5422 55.4566 12.0606 55.2423 12.6978 55.2423C13.3147 55.2423 13.8187 55.4523 14.2097 55.8723C14.6007 56.2922 14.7962 56.8831 14.7962 57.6448C14.7962 57.6911 14.7947 57.7606 14.7918 57.8533H11.351C11.38 58.3602 11.5234 58.7483 11.7811 59.0176C12.0389 59.287 12.3604 59.4217 12.7456 59.4217C13.0323 59.4217 13.2771 59.3464 13.4798 59.1958C13.6826 59.0452 13.8433 58.8048 13.9621 58.4746ZM11.3945 57.2103H13.9707C13.936 56.8222 13.8375 56.5312 13.6753 56.3371C13.4262 56.0359 13.1033 55.8853 12.7065 55.8853C12.3474 55.8853 12.0447 56.0055 11.7985 56.2459C11.5552 56.4863 11.4205 56.8078 11.3945 57.2103Z" fill="black"/>
<path d="M5.94141 59.9638V53.5948H6.72341V55.88C7.08834 55.4572 7.54885 55.2457 8.10495 55.2457C8.44671 55.2457 8.74358 55.3138 8.99556 55.4499C9.24754 55.5832 9.42711 55.7685 9.53427 56.006C9.64433 56.2435 9.69936 56.5882 9.69936 57.04V59.9638H8.91736V57.04C8.91736 56.649 8.83192 56.3652 8.66104 56.1885C8.49305 56.0089 8.2541 55.9191 7.9442 55.9191C7.7125 55.9191 7.49382 55.98 7.28819 56.1016C7.08545 56.2203 6.94063 56.3825 6.85374 56.5882C6.76685 56.7938 6.72341 57.0777 6.72341 57.4397V59.9638H5.94141Z" fill="black"/>
<path d="M2.30931 59.9638V54.3464H0.210938V53.5948H5.25919V54.3464H3.15213V59.9638H2.30931Z" fill="black"/>
<rect x="189.812" y="20.5585" width="30.6546" height="28.3155" rx="5" fill="#6524EB"/>
<path d="M215.878 34.246C215.878 34.6387 215.941 35.2317 215.878 35.6106C213.657 46.2128 202.914 48.1128 201.812 47.525C201.707 47.469 202.914 44.9057 202.547 44.1659C198.82 44.1659 194.254 38.2349 194.254 34.8758C194.254 30.0746 198.727 25.7064 204.701 25.7064C210.675 25.7064 215.878 29.4447 215.878 34.246Z" fill="white"/>
<path d="M215.622 34.6096C215.622 29.8084 210.989 25.9162 205.015 25.9162C199.041 25.9162 194.198 29.8084 194.198 34.6096L194.199 34.722C194.262 38.6849 198.463 42.9536 203.018 43.9458C203.228 43.9915 202.438 46.9999 202.438 46.9999L203.856 46.6325C203.856 46.6325 213.251 45.2154 215.403 36.3605C215.532 35.8289 215.612 35.2825 215.621 34.722L215.622 34.6096ZM216.882 34.6096C216.882 35.2615 216.784 35.8891 216.663 36.5027C214.532 47.3148 200.814 48.8369 200.814 48.8369C200.814 48.8369 201.856 44.836 201.601 44.743C197.137 43.116 193.148 39.3374 193.148 34.6096C193.148 29.0261 198.687 24.8665 205.015 24.8665C211.343 24.8665 216.882 29.0261 216.882 34.6096Z" fill="#6524EB"/>
<path d="M199.771 47.4587C203.038 47.3324 206.375 46.8159 208.642 45.6806C214.112 42.9415 215.619 39.6748 216.117 35.9874L201.914 41.9686L199.771 47.4587Z" fill="white"/>
<ellipse cx="207.798" cy="35.7684" rx="8.08287" ry="9.18508" fill="white"/>
<ellipse cx="205.141" cy="35.4567" rx="10.8953" ry="9.47954" fill="white"/>
<rect x="196.676" y="30.7507" width="13.4051" height="6.90164" rx="3.45082" fill="#6524EB"/>
<rect x="198.402" y="32.4745" width="1.72541" height="3.45082" rx="0.862705" fill="white"/>
<rect x="201.188" y="32.4745" width="1.72541" height="3.45082" rx="0.862705" fill="white"/>
<path d="M206.647 20.5462C206.647 21.5608 205.848 22.3833 204.863 22.3833C203.877 22.3833 203.078 21.5608 203.078 20.5462C203.078 19.5317 203.877 18.7092 204.863 18.7092C205.848 18.7092 206.647 19.5317 206.647 20.5462Z" fill="white"/>
<path d="M206.62 20.5979C206.62 19.6405 205.856 18.8615 204.904 18.8374L204.859 18.8368C203.886 18.8368 203.098 19.6253 203.098 20.5979L203.098 20.6433C203.122 21.5798 203.877 22.3345 204.813 22.3583L204.859 22.3589C205.816 22.3588 206.595 21.5949 206.619 20.6433L206.62 20.5979ZM207.483 20.5979C207.483 22.0472 206.308 23.2221 204.859 23.2221C203.409 23.2221 202.234 22.0472 202.234 20.5979C202.234 19.1485 203.409 17.9735 204.859 17.9735C206.308 17.9735 207.483 19.1485 207.483 20.5979Z" fill="#6524EB"/>
<path d="M205.601 22.3813L206.015 25.9504H203.496L204.073 22.3813H205.601ZM204.627 22.9601L204.237 25.3716H205.304L205.024 22.9601H204.627Z" fill="#6524EB"/>
<path d="M204.652 22.6984H205.058L205.493 26.0575H204.023L204.652 22.6984Z" fill="white"/>
</svg>
