<svg width="104" height="134" viewBox="0 0 104 134" fill="none" xmlns="http://www.w3.org/2000/svg">
<path d="M36.9243 35.0283C46.5844 35.0283 54.4384 27.174 54.4384 17.5141C54.4384 7.85425 46.5842 0 36.9243 0C27.2642 0 19.4102 7.85425 19.4102 17.5141C19.4102 27.174 27.2644 35.0283 36.9243 35.0283ZM36.9243 2.23315C45.3489 2.23315 52.2053 9.08952 52.2053 17.5141C52.2053 25.9388 45.3557 32.7951 36.9243 32.7951C28.4997 32.7951 21.6433 25.9388 21.6433 17.5141C21.6433 9.08952 28.4929 2.23315 36.9243 2.23315Z" fill="#6524EB"/>
<path d="M75.7814 77.9444C75.1229 77.9444 74.4848 77.9987 73.8399 78.0462V66.5464C73.8399 52.0325 62.0346 40.2266 47.52 40.2266H26.3199C11.806 40.2266 0 52.0318 0 66.5464V99.6474C0 105.112 4.45326 109.565 9.91796 109.565H48.2117C50.0582 123.142 61.7004 133.65 75.7793 133.65C91.1417 133.65 103.632 121.16 103.632 105.798C103.632 90.4422 91.1411 77.945 75.7793 77.945L75.7814 77.9444ZM18.6024 107.325V68.8345C18.6024 68.2168 18.1068 67.7144 17.4823 67.7144C16.8645 67.7144 16.3622 68.2168 16.3622 68.8345V107.325H9.91316C5.67713 107.325 2.22852 103.876 2.22852 99.64L2.23531 66.5459C2.23531 53.2676 13.0427 42.4609 26.3203 42.4609H47.5204C60.7987 42.4609 71.6054 53.2683 71.6054 66.5459V78.2968C66.2426 79.1114 61.382 81.4399 57.4718 84.8612V68.8335C57.4718 68.2157 56.9694 67.7134 56.3517 67.7134C55.7339 67.7134 55.2316 68.2157 55.2316 68.8335V87.0532C50.7036 92.0089 47.9204 98.5733 47.9204 105.796C47.9204 106.312 47.9679 106.814 47.9951 107.323L18.6024 107.325ZM75.7814 131.417C61.6545 131.417 50.1689 119.924 50.1689 105.804C50.1689 91.6771 61.6618 80.1845 75.7814 80.1845C89.9083 80.1845 101.401 91.6774 101.401 105.804C101.401 119.924 89.908 131.417 75.7814 131.417Z" fill="#6524EB"/>
<path d="M90.8513 101.549H80.7839V91.4813C80.7839 89.3904 79.08 87.6797 76.9823 87.6797H72.9567C70.8659 87.6797 69.1552 89.3836 69.1552 91.4813V101.549H59.0945C56.9969 101.549 55.293 103.253 55.293 105.35V109.369C55.293 111.46 56.9969 113.171 59.0945 113.171H69.1552V123.238C69.1552 125.329 70.8591 127.04 72.9567 127.04H76.9823C79.0731 127.04 80.7839 125.336 80.7839 123.238V113.171H90.8513C92.9421 113.171 94.6529 111.467 94.6529 109.369V105.35C94.6529 103.253 92.949 101.549 90.8513 101.549ZM92.4127 109.376C92.4127 110.238 91.7135 110.937 90.8513 110.937H79.6638C79.0461 110.937 78.5437 111.433 78.5437 112.057V123.245C78.5437 124.107 77.8445 124.806 76.9824 124.806H72.9568C72.0947 124.806 71.3954 124.107 71.3954 123.245V112.057C71.3954 111.44 70.8999 110.937 70.2753 110.937H59.0946C58.2325 110.937 57.5333 110.238 57.5333 109.376V105.35C57.5333 104.488 58.2325 103.782 59.0946 103.782H70.2753C70.8931 103.782 71.3954 103.287 71.3954 102.662V91.4813C71.3954 90.6192 72.0946 89.9199 72.9568 89.9199H76.9824C77.8445 89.9199 78.5437 90.6191 78.5437 91.4813V102.669C78.5437 103.287 79.0461 103.789 79.6638 103.789H90.8513C91.7134 103.789 92.4127 104.488 92.4127 105.357V109.376Z" fill="#6524EB"/>
</svg>
