<svg width="156" height="156" viewBox="0 0 156 156" fill="none" xmlns="http://www.w3.org/2000/svg">
<path d="M71.7949 3.72461C75.2411 0.278389 81.0701 0.277854 84.5166 3.72363C86.4233 5.7441 89.1942 7.09017 92.083 7.67383C94.9734 8.25775 98.0354 8.08874 100.536 7.01953L100.537 7.02051C105.277 5.0816 110.459 7.44521 112.406 11.9893C113.476 14.5997 115.541 16.8889 117.994 18.5244C120.449 20.1612 123.333 21.1689 126.067 21.1689C131.026 21.1689 135.127 25.2697 135.127 30.2285C135.127 32.9695 136.196 35.8538 137.859 38.3047C139.523 40.7559 141.811 42.8202 144.307 43.8896L144.314 43.8926C149.065 45.8362 151.217 51.2303 149.279 55.751L149.274 55.7607L149.271 55.7695C148.32 58.2669 148.21 61.326 148.793 64.2129C149.375 67.0934 150.66 69.8597 152.561 71.7666V71.7676C156.027 75.4504 156.012 81.0592 152.571 84.5C150.551 86.4067 149.206 89.1779 148.622 92.0664C148.038 94.9567 148.206 98.0189 149.275 100.52V100.521C151.154 105.112 148.995 110.119 144.727 112.198L144.307 112.39C141.696 113.46 139.407 115.524 137.771 117.978C136.135 120.433 135.127 123.316 135.127 126.051C135.127 131.01 131.026 135.11 126.067 135.11C123.326 135.11 120.442 136.18 117.991 137.843C115.54 139.506 113.476 141.795 112.406 144.29L112.403 144.298C110.46 149.049 105.066 151.2 100.545 149.263L100.535 149.258L100.525 149.255L100.051 149.086C97.6466 148.292 94.7893 148.23 92.083 148.776C89.1967 149.36 86.4239 150.647 84.5166 152.555C81.0701 156.001 75.2413 156.001 71.7949 152.555C69.8882 150.535 67.1178 149.189 64.2295 148.605C61.5168 148.057 58.6523 148.171 56.2432 149.071L55.7754 149.259C51.184 151.137 46.1768 148.978 44.0977 144.71L43.9062 144.29C42.8362 141.68 40.7715 139.39 38.3184 137.755C35.8632 136.118 32.9797 135.11 30.2451 135.11C25.2863 135.11 21.1855 131.01 21.1855 126.051C21.1855 123.31 20.1162 120.426 18.4531 117.975C16.7898 115.523 14.5014 113.459 12.0059 112.39L11.998 112.387C7.24738 110.443 5.09591 105.049 7.0332 100.528L7.03809 100.519L7.04102 100.509C7.99226 98.0115 8.10272 94.9532 7.51953 92.0664C6.93637 89.1801 5.64852 86.4073 3.74121 84.5C0.402634 81.1612 0.2977 75.5868 3.42773 72.1084L3.74121 71.7783C5.76112 69.8716 7.10687 67.1012 7.69043 64.2129C8.27442 61.3222 8.10565 58.2596 7.03613 55.7588H7.03711C5.0982 51.0192 7.46182 45.8372 12.0059 43.8896L12.0049 43.8887C14.6155 42.8187 16.9054 40.755 18.541 38.3018C20.1778 35.8466 21.1855 32.9631 21.1855 30.2285C21.1855 25.2697 25.2863 21.1689 30.2451 21.1689C32.9861 21.1689 35.8704 20.0996 38.3213 18.4365C40.7725 16.7732 42.8368 14.4847 43.9062 11.9893L43.9092 11.9814C45.8528 7.23078 51.2469 5.0793 55.7676 7.0166L55.7773 7.02148L55.7861 7.02441C58.2835 7.97578 61.3426 8.08614 64.2295 7.50293C67.1157 6.91979 69.8876 5.63174 71.7949 3.72461Z" fill="white" stroke="#787878"/>
<circle cx="78.1562" cy="78.1396" r="55" fill="white" stroke="#787878"/>
<rect x="14.6562" y="64.6396" width="128" height="27" rx="4" fill="white"/>
<path d="M30.3484 85.8385C29.2878 85.8385 28.3432 85.6562 27.5146 85.2916C26.6907 84.9223 26.0397 84.4157 25.5614 83.7718C25.0879 83.1231 24.8441 82.375 24.8299 81.5274H27.9265C27.9454 81.8825 28.0614 82.195 28.2745 82.4649C28.4923 82.7301 28.7811 82.936 29.141 83.0828C29.5008 83.2296 29.9057 83.303 30.3555 83.303C30.8242 83.303 31.2385 83.2201 31.5984 83.0544C31.9582 82.8887 32.2399 82.6591 32.4435 82.3655C32.6471 82.0719 32.7489 81.7334 32.7489 81.3499C32.7489 80.9616 32.64 80.6183 32.4222 80.32C32.2092 80.017 31.9014 79.7803 31.4989 79.6098C31.1012 79.4394 30.6277 79.3541 30.0785 79.3541H28.7219V77.0956H30.0785C30.5425 77.0956 30.9521 77.0151 31.3072 76.8541C31.667 76.6932 31.9464 76.4706 32.1452 76.1865C32.3441 75.8977 32.4435 75.5615 32.4435 75.178C32.4435 74.8134 32.3559 74.4938 32.1808 74.2192C32.0103 73.9398 31.7688 73.722 31.4563 73.5658C31.1486 73.4095 30.7887 73.3314 30.3768 73.3314C29.9601 73.3314 29.579 73.4072 29.2333 73.5587C28.8877 73.7055 28.6107 73.9162 28.4023 74.1908C28.194 74.4654 28.0827 74.7874 28.0685 75.1567H25.1211C25.1353 74.3186 25.3744 73.58 25.8384 72.9408C26.3024 72.3016 26.9274 71.8021 27.7134 71.4422C28.5041 71.0776 29.3967 70.8953 30.391 70.8953C31.3948 70.8953 32.2731 71.0776 33.0259 71.4422C33.7788 71.8068 34.3635 72.2992 34.7802 72.9195C35.2016 73.535 35.4099 74.2263 35.4052 74.9933C35.4099 75.8077 35.1566 76.4872 34.6452 77.0317C34.1386 77.5762 33.4781 77.9218 32.6637 78.0686V78.1823C33.7338 78.3196 34.5482 78.6913 35.1069 79.2973C35.6703 79.8986 35.9497 80.6515 35.945 81.5558C35.9497 82.3844 35.7106 83.1207 35.2276 83.7646C34.7494 84.4086 34.0889 84.9152 33.2461 85.2845C32.4033 85.6539 31.4374 85.8385 30.3484 85.8385ZM42.8697 71.0942H46.6623L50.668 80.8669H50.8384L54.8441 71.0942H58.6367V85.6396H55.6538V76.1723H55.533L51.7688 85.5686H49.7376L45.9734 76.1368H45.8526V85.6396H42.8697V71.0942ZM64.2457 71.0942V85.6396H61.1705V71.0942H64.2457ZM78.9421 71.0942V85.6396H76.2859L69.9577 76.4848H69.8512V85.6396H66.7759V71.0942H69.4748L75.7532 80.2419H75.881V71.0942H78.9421ZM90.4673 71.0942H93.5426V80.5402C93.5426 81.6008 93.2893 82.5289 92.7827 83.3243C92.2808 84.1198 91.5777 84.74 90.6733 85.1851C89.7689 85.6254 88.7154 85.8456 87.5128 85.8456C86.3054 85.8456 85.2495 85.6254 84.3452 85.1851C83.4408 84.74 82.7377 84.1198 82.2358 83.3243C81.7339 82.5289 81.483 81.6008 81.483 80.5402V71.0942H84.5582V80.2774C84.5582 80.8314 84.679 81.3238 84.9205 81.7547C85.1667 82.1856 85.5123 82.5241 85.9574 82.7703C86.4025 83.0165 86.9209 83.1396 87.5128 83.1396C88.1094 83.1396 88.6278 83.0165 89.0682 82.7703C89.5133 82.5241 89.8565 82.1856 90.098 81.7547C90.3442 81.3238 90.4673 80.8314 90.4673 80.2774V71.0942ZM95.5188 73.6297V71.0942H107.465V73.6297H103.012V85.6396H99.9719V73.6297H95.5188ZM109.432 85.6396V71.0942H119.233V73.6297H112.507V77.0956H118.729V79.6311H112.507V83.1041H119.262V85.6396H109.432ZM129.569 75.2774C129.512 74.7045 129.268 74.2594 128.837 73.9422C128.406 73.625 127.822 73.4664 127.083 73.4664C126.581 73.4664 126.157 73.5374 125.812 73.6794C125.466 73.8167 125.201 74.0085 125.016 74.2547C124.836 74.5009 124.746 74.7803 124.746 75.0928C124.737 75.3532 124.791 75.5805 124.91 75.7746C125.033 75.9687 125.201 76.1368 125.414 76.2789C125.627 76.4162 125.873 76.5369 126.153 76.6411C126.432 76.7405 126.73 76.8257 127.048 76.8968L128.354 77.2093C128.989 77.3513 129.571 77.5407 130.102 77.7774C130.632 78.0142 131.091 78.3054 131.479 78.651C131.868 78.9967 132.168 79.4039 132.381 79.8726C132.599 80.3414 132.71 80.8788 132.715 81.4848C132.71 82.375 132.483 83.1468 132.033 83.8002C131.588 84.4488 130.944 84.9531 130.102 85.3129C129.263 85.6681 128.253 85.8456 127.069 85.8456C125.895 85.8456 124.872 85.6657 124.001 85.3058C123.134 84.946 122.457 84.4133 121.969 83.7078C121.487 82.9976 121.233 82.1193 121.21 81.0729H124.185C124.219 81.5606 124.358 81.9678 124.604 82.2945C124.855 82.6164 125.189 82.8603 125.606 83.026C126.027 83.187 126.503 83.2675 127.033 83.2675C127.554 83.2675 128.006 83.1917 128.39 83.0402C128.778 82.8887 129.079 82.678 129.292 82.4081C129.505 82.1382 129.612 81.8281 129.612 81.4777C129.612 81.151 129.514 80.8764 129.32 80.6539C129.131 80.4313 128.852 80.2419 128.482 80.0857C128.118 79.9294 127.67 79.7874 127.14 79.6595L125.556 79.2618C124.33 78.9635 123.362 78.4971 122.651 77.8627C121.941 77.2282 121.588 76.3735 121.593 75.2987C121.588 74.4181 121.823 73.6486 122.296 72.9905C122.774 72.3324 123.43 71.8186 124.263 71.4493C125.097 71.08 126.044 70.8953 127.104 70.8953C128.184 70.8953 129.126 71.08 129.931 71.4493C130.741 71.8186 131.371 72.3324 131.82 72.9905C132.27 73.6486 132.502 74.411 132.516 75.2774H129.569Z" fill="#787878"/>
<path d="M55.4134 49.9124C55.3452 49.3366 55.0687 48.8896 54.5838 48.5715C54.099 48.2533 53.5043 48.0942 52.7997 48.0942C52.2846 48.0942 51.8338 48.1775 51.4474 48.3442C51.0649 48.5109 50.7656 48.74 50.5497 49.0317C50.3376 49.3234 50.2315 49.6548 50.2315 50.026C50.2315 50.3366 50.3054 50.6037 50.4531 50.8271C50.6046 51.0468 50.7978 51.2306 51.0327 51.3783C51.2675 51.5222 51.5137 51.6415 51.7713 51.7362C52.0289 51.8271 52.2656 51.901 52.4815 51.9578L53.6634 52.276C53.9664 52.3556 54.3035 52.4654 54.6747 52.6056C55.0497 52.7457 55.4077 52.937 55.7486 53.1794C56.0933 53.4181 56.3774 53.7249 56.6009 54.0999C56.8243 54.4749 56.9361 54.9351 56.9361 55.4806C56.9361 56.1093 56.7713 56.6775 56.4418 57.1851C56.116 57.6927 55.6387 58.0961 55.0099 58.3953C54.3849 58.6946 53.6255 58.8442 52.7315 58.8442C51.8982 58.8442 51.1766 58.7097 50.5668 58.4408C49.9607 58.1718 49.4834 57.7968 49.1349 57.3158C48.7902 56.8347 48.5952 56.276 48.5497 55.6396H50.0043C50.0421 56.079 50.1899 56.4427 50.4474 56.7306C50.7088 57.0146 51.0384 57.2268 51.4361 57.3669C51.8376 57.5033 52.2694 57.5715 52.7315 57.5715C53.2694 57.5715 53.7524 57.4843 54.1804 57.3101C54.6084 57.1321 54.9474 56.8859 55.1974 56.5715C55.4474 56.2533 55.5724 55.8821 55.5724 55.4578C55.5724 55.0715 55.4645 54.7571 55.2486 54.5146C55.0327 54.2722 54.7486 54.0753 54.3963 53.9237C54.044 53.7722 53.6634 53.6396 53.2543 53.526L51.8224 53.1169C50.9134 52.8556 50.1937 52.4825 49.6634 51.9976C49.133 51.5128 48.8679 50.8783 48.8679 50.0942C48.8679 49.4427 49.044 48.8745 49.3963 48.3896C49.7524 47.901 50.2296 47.5222 50.8281 47.2533C51.4304 46.9806 52.1027 46.8442 52.8452 46.8442C53.5952 46.8442 54.2618 46.9787 54.8452 47.2476C55.4285 47.5128 55.8906 47.8764 56.2315 48.3385C56.5762 48.8006 56.758 49.3253 56.777 49.9124H55.4134ZM62.7301 58.8215C61.8892 58.8215 61.1638 58.6359 60.554 58.2646C59.9479 57.8896 59.4801 57.3669 59.1506 56.6965C58.8248 56.0222 58.6619 55.2381 58.6619 54.3442C58.6619 53.4503 58.8248 52.6624 59.1506 51.9806C59.4801 51.295 59.9384 50.7609 60.5256 50.3783C61.1165 49.9919 61.8059 49.7987 62.5938 49.7987C63.0483 49.7987 63.4972 49.8745 63.9403 50.026C64.3835 50.1775 64.7869 50.4237 65.1506 50.7646C65.5142 51.1018 65.804 51.5487 66.0199 52.1056C66.2358 52.6624 66.3438 53.348 66.3438 54.1624V54.7306H59.6165V53.5715H64.9801C64.9801 53.079 64.8816 52.6396 64.6847 52.2533C64.4915 51.8669 64.215 51.562 63.8551 51.3385C63.4991 51.115 63.0786 51.0033 62.5938 51.0033C62.0597 51.0033 61.5975 51.1359 61.2074 51.401C60.821 51.6624 60.5237 52.0033 60.3153 52.4237C60.107 52.8442 60.0028 53.295 60.0028 53.776V54.5487C60.0028 55.2078 60.1165 55.7665 60.3438 56.2249C60.5748 56.6794 60.8949 57.026 61.304 57.2646C61.7131 57.4995 62.1884 57.6169 62.7301 57.6169C63.0824 57.6169 63.4006 57.5677 63.6847 57.4692C63.9725 57.3669 64.2206 57.2154 64.429 57.0146C64.6373 56.8101 64.7983 56.5563 64.9119 56.2533L66.2074 56.6169C66.071 57.0563 65.8419 57.4427 65.5199 57.776C65.1979 58.1056 64.8002 58.3631 64.3267 58.5487C63.8532 58.7306 63.321 58.8215 62.7301 58.8215ZM72.179 49.9124V51.0487H67.6562V49.9124H72.179ZM68.9744 47.8215H70.3153V56.1396C70.3153 56.5184 70.3703 56.8025 70.4801 56.9919C70.5938 57.1775 70.7377 57.3025 70.9119 57.3669C71.09 57.4275 71.2775 57.4578 71.4744 57.4578C71.6222 57.4578 71.7434 57.4503 71.8381 57.4351C71.9328 57.4162 72.0085 57.401 72.0653 57.3896L72.3381 58.5942C72.2472 58.6283 72.1203 58.6624 71.9574 58.6965C71.7945 58.7343 71.5881 58.7533 71.3381 58.7533C70.9593 58.7533 70.5881 58.6718 70.2244 58.509C69.8646 58.3461 69.5653 58.098 69.3267 57.7646C69.0919 57.4313 68.9744 57.0109 68.9744 56.5033V47.8215ZM79.696 55.0715V49.9124H81.0369V58.6396H79.696V57.1624H79.6051C79.4006 57.6056 79.0824 57.9825 78.6506 58.2931C78.2188 58.5999 77.6733 58.7533 77.0142 58.7533C76.4688 58.7533 75.9839 58.634 75.5597 58.3953C75.1354 58.1529 74.8021 57.7893 74.5597 57.3044C74.3172 56.8158 74.196 56.2003 74.196 55.4578V49.9124H75.5369V55.3669C75.5369 56.0033 75.715 56.5109 76.071 56.8896C76.4309 57.2684 76.8892 57.4578 77.446 57.4578C77.7794 57.4578 78.1184 57.3726 78.4631 57.2021C78.8116 57.0317 79.1032 56.7703 79.3381 56.4181C79.5767 56.0658 79.696 55.6169 79.696 55.0715ZM83.4929 61.9124V49.9124H84.7884V51.2987H84.9474C85.0459 51.1472 85.1823 50.954 85.3565 50.7192C85.5346 50.4806 85.7884 50.2684 86.1179 50.0828C86.4512 49.8934 86.902 49.7987 87.4702 49.7987C88.205 49.7987 88.8527 49.9825 89.4134 50.3499C89.974 50.7173 90.4115 51.2381 90.7259 51.9124C91.0402 52.5866 91.1974 53.3821 91.1974 54.2987C91.1974 55.223 91.0402 56.0241 90.7259 56.7021C90.4115 57.3764 89.9759 57.8991 89.419 58.2703C88.8622 58.6378 88.2202 58.8215 87.4929 58.8215C86.9323 58.8215 86.4834 58.7287 86.1463 58.5431C85.8092 58.3537 85.5497 58.1396 85.3679 57.901C85.1861 57.6586 85.0459 57.4578 84.9474 57.2987H84.8338V61.9124H83.4929ZM84.8111 54.276C84.8111 54.9351 84.9077 55.5165 85.1009 56.0203C85.294 56.5203 85.5762 56.9124 85.9474 57.1965C86.3187 57.4768 86.7732 57.6169 87.3111 57.6169C87.8717 57.6169 88.3395 57.4692 88.7145 57.1737C89.0933 56.8745 89.3774 56.473 89.5668 55.9692C89.7599 55.4616 89.8565 54.8972 89.8565 54.276C89.8565 53.6624 89.7618 53.1093 89.5724 52.6169C89.3868 52.1207 89.1046 51.7287 88.7259 51.4408C88.3509 51.1491 87.8793 51.0033 87.3111 51.0033C86.7656 51.0033 86.3073 51.1415 85.9361 51.4181C85.5649 51.6908 85.2846 52.0734 85.0952 52.5658C84.9058 53.0544 84.8111 53.6245 84.8111 54.276ZM97.7429 58.6396V49.9124H99.0838V58.6396H97.7429ZM98.4247 48.4578C98.1634 48.4578 97.938 48.3688 97.7486 48.1908C97.563 48.0128 97.4702 47.7987 97.4702 47.5487C97.4702 47.2987 97.563 47.0847 97.7486 46.9067C97.938 46.7287 98.1634 46.6396 98.4247 46.6396C98.6861 46.6396 98.9096 46.7287 99.0952 46.9067C99.2846 47.0847 99.3793 47.2987 99.3793 47.5487C99.3793 47.7987 99.2846 48.0128 99.0952 48.1908C98.9096 48.3688 98.6861 48.4578 98.4247 48.4578ZM102.881 53.3896V58.6396H101.54V49.9124H102.835V51.276H102.949C103.153 50.8328 103.464 50.4768 103.881 50.2078C104.297 49.9351 104.835 49.7987 105.494 49.7987C106.085 49.7987 106.602 49.92 107.045 50.1624C107.489 50.401 107.833 50.7646 108.08 51.2533C108.326 51.7381 108.449 52.3518 108.449 53.0942V58.6396H107.108V53.1851C107.108 52.4995 106.93 51.9654 106.574 51.5828C106.218 51.1965 105.729 51.0033 105.108 51.0033C104.68 51.0033 104.297 51.0961 103.96 51.2817C103.627 51.4673 103.364 51.7381 103.17 52.0942C102.977 52.4503 102.881 52.8821 102.881 53.3896Z" fill="#787878"/>
<path d="M94.998 95.708C95.7207 94.9501 96.8819 94.9501 97.6045 95.708C98.3308 96.47 98.339 97.7093 97.6299 98.4834L73.8291 122.496L73.7871 122.545C73.7801 122.554 73.7724 122.563 73.7646 122.571C73.0421 123.329 71.8809 123.329 71.1582 122.571L59.708 110.56C58.9724 109.788 58.9724 108.527 59.708 107.755C60.4306 106.997 61.5918 106.997 62.3145 107.755L72.0283 117.945C72.1211 118.043 72.2493 118.099 72.3838 118.101C72.5184 118.102 72.6479 118.049 72.7432 117.954L94.9268 95.791C94.9437 95.7741 94.9593 95.7555 94.9736 95.7363C94.9812 95.7263 94.9896 95.7168 94.998 95.708Z" fill="#787878" stroke="white" stroke-linecap="round" stroke-linejoin="round"/>
</svg>
