<svg width="141" height="306" viewBox="0 0 141 306" fill="none" xmlns="http://www.w3.org/2000/svg">
<rect x="0.5" y="0.5" width="140" height="305" rx="19.5" fill="white" stroke="#D8D8D8"/>
<path d="M74.21 277.836L46.784 287.412L46.784 285.69L68.876 278.004C69.968 277.626 71.606 277.164 71.606 277.164C71.606 277.164 69.968 276.744 68.876 276.408L46.616 269.058L46.616 267.714L68.876 260.364C69.968 260.028 71.606 259.608 71.606 259.608C71.606 259.608 69.968 259.146 68.876 258.768L46.784 251.082L46.784 249.36L74.21 258.936L74.21 260.28L52.118 267.588C50.942 267.966 49.178 268.386 49.178 268.386C49.178 268.386 50.942 268.764 52.118 269.142L74.21 276.492L74.21 277.836ZM53.504 238.542C53.504 234.888 55.562 231.696 58.544 230.226L53.924 230.226L53.924 228.63L74 228.63L74 230.226L69.17 230.226C72.194 231.57 74.42 234.846 74.42 238.542C74.42 244.296 69.884 248.454 63.962 248.454C57.998 248.454 53.504 244.296 53.504 238.542ZM63.962 230.226C59.006 230.226 55.058 233.796 55.058 238.458C55.058 243.162 58.838 246.774 63.962 246.774C69.086 246.774 72.866 243.288 72.866 238.416C72.866 233.838 68.918 230.226 63.962 230.226ZM74.42 216.544C74.42 219.4 73.286 221.668 68.498 221.668L55.31 221.668L55.31 224.734L53.924 224.734L53.924 221.668L49.136 221.668L48.926 220.072L53.924 220.072L53.924 212.344L55.31 212.344L55.31 220.072L68.54 220.072C71.984 220.072 72.908 218.686 72.908 216.544C72.908 214.36 71.648 212.764 71.648 212.764L72.95 212.134C73.412 212.764 74.42 214.444 74.42 216.544ZM74.42 198.744C74.42 204.624 69.842 209.202 63.962 209.202C58.082 209.202 53.504 204.624 53.504 198.744C53.504 195.972 54.512 193.452 56.234 191.562L57.41 192.612C55.94 194.166 55.058 196.308 55.058 198.744C55.058 203.7 58.88 207.522 63.962 207.522C69.002 207.522 72.866 203.742 72.866 198.702C72.866 196.014 71.774 193.662 70.01 192.066L71.144 191.016C73.16 192.906 74.42 195.636 74.42 198.744ZM74 186.496L46.364 186.496L46.364 184.9L57.956 184.9C55.268 183.64 53.504 180.784 53.504 177.424C53.504 172.93 55.856 170.116 61.148 170.116L74 170.116L74 171.712L61.358 171.712C57.116 171.712 55.058 173.812 55.058 177.76C55.058 182.128 58.922 184.9 62.198 184.9L74 184.9L74 186.496Z" fill="#24252C"/>
<path d="M115 287.416L78.712 287.416L78.712 272.856C78.712 260.928 86.944 253.424 96.856 253.424C106.768 253.424 115 260.928 115 272.856L115 287.416ZM108.28 279.576L108.28 273.192C108.28 266.248 103.464 261.656 96.856 261.656C90.304 261.656 85.432 266.248 85.432 273.192L85.432 279.576L108.28 279.576ZM115 247.549L78.712 247.549L78.712 219.157L85.432 219.157L85.432 239.709L92.824 239.709L92.824 220.221L99.488 220.221L99.488 239.709L108.28 239.709L108.28 218.373L115 218.373L115 247.549ZM115 213.478L78.712 213.478L78.712 206.702L86.776 200.99C89.744 198.862 96.184 194.438 96.184 194.438C96.184 194.438 89.8 189.958 86.832 187.886L78.712 182.174L78.712 175.398L115 175.398L115 183.238L92.04 183.238C92.04 183.238 94.336 184.638 97.08 186.542L108.336 194.438L97.024 202.39C94.392 204.238 92.04 205.638 92.04 205.638L115 205.638L115 213.478ZM115.616 150.332C115.616 161.532 107.272 169.54 96.856 169.54C86.496 169.54 78.152 161.532 78.152 150.332C78.152 139.132 86.496 131.124 96.856 131.124C107.272 131.124 115.616 139.132 115.616 150.332ZM108.504 150.276C108.504 143.948 103.352 139.3 96.856 139.3C90.416 139.3 85.264 143.948 85.264 150.276C85.264 156.604 90.416 161.364 96.856 161.364C103.352 161.364 108.504 156.66 108.504 150.276Z" fill="#6524EB"/>
<rect x="25" y="24" width="91" height="91" rx="13" fill="#6524EB"/>
<path d="M93 70L55.5 91.6506L55.5 48.3494L93 70Z" fill="white"/>
</svg>
