<svg width="41" height="42" viewBox="0 0 41 42" fill="none" xmlns="http://www.w3.org/2000/svg">
<rect x="0.5" y="0.5" width="40" height="41" rx="11.5" fill="white"/>
<rect x="0.5" y="0.5" width="40" height="41" rx="11.5" stroke="#E6E6E6"/>
<path fill-rule="evenodd" clip-rule="evenodd" d="M10.9346 11.352C8.84428 11.5171 7.26434 13.2258 7.16259 15.3312C7.07875 17.0658 7 19.0619 7 20.4399C7 21.8336 7.08056 23.8597 7.16546 25.608C7.2664 27.6864 8.81017 29.3838 10.8713 29.5751C13.153 29.7869 16.4543 30 20.5 30C24.5352 30 27.8299 29.788 30.1109 29.5767C32.18 29.3851 33.7268 27.6768 33.8264 25.5903C33.9142 23.7495 34 21.6433 34 20.4399C34 19.2493 33.916 17.1753 33.8292 15.3488C33.7287 13.2353 32.1463 11.516 30.048 11.3507C27.8022 11.1737 24.5628 11 20.5 11C16.4267 11 13.1811 11.1746 10.9346 11.352ZM17.8 16.4114L24.76 20.4399L17.8 24.4683V16.4114Z" fill="black"/>
</svg>
